STARTFONT 2.1
COMMENT
COMMENT Converted from OpenType font "Patriot-Normal.otf" by "otf2bdf 3.0".
COMMENT
FONT -FreeType-Patriot Normal-Medium-R-Normal--55-400-100-100-P-259-ISO10646-1
SIZE 40 100 100
FONTBOUNDINGBOX 85 73 -19 -15
STARTPROPERTIES 19
FOUNDRY "FreeType"
FAMILY_NAME "Patriot Normal"
WEIGHT_NAME "Medium"
SLANT "R"
SETWIDTH_NAME "Normal"
ADD_STYLE_NAME ""
PIXEL_SIZE 55
POINT_SIZE 400
RESOLUTION_X 100
RESOLUTION_Y 100
SPACING "P"
AVERAGE_WIDTH 259
CHARSET_REGISTRY "ISO10646"
CHARSET_ENCODING "1"
FONT_ASCENT 56
FONT_DESCENT 11
COPYRIGHT "Copyright © 2020 by Behalf Studio. All rights reserved."
_OTF_FONTFILE "Patriot-Normal.otf"
_OTF_PSNAME "Patriot-Normal"
ENDPROPERTIES
CHARS 426
STARTCHAR 0020
ENCODING 32
SWIDTH 342 0
DWIDTH 19 0
BBX 0 0 0 0
BITMAP
ENDCHAR
STARTCHAR 0021
ENCODING 33
SWIDTH 234 0
DWIDTH 13 0
BBX 8 40 3 -1
BITMAP
3C
3C
3C
3C
3C
3C
3C
3C
3C
3C
3C
3C
3C
3C
3C
3C
3C
3C
3C
3C
3C
3C
3C
3C
3C
00
00
00
00
00
00
00
3C
7E
FE
FF
FF
FE
7C
10
ENDCHAR
STARTCHAR 0022
ENCODING 34
SWIDTH 288 0
DWIDTH 16 0
BBX 10 12 3 27
BITMAP
E1C0
E1C0
E1C0
E1C0
E1C0
E1C0
E1C0
E1C0
E1C0
E1C0
E1C0
E1C0
ENDCHAR
STARTCHAR 0023
ENCODING 35
SWIDTH 612 0
DWIDTH 34 0
BBX 29 39 3 0
BITMAP
00780380
00700380
00700780
00700780
00700780
00F00780
00F00700
00F00700
00E00700
00E00700
00E00F00
00E00F00
7FFFFFF8
7FFFFFF8
7FFFFFF8
7FFFFFF8
01C00E00
01C01E00
01C01E00
03C01E00
03C01C00
03C01C00
03C01C00
03801C00
03803C00
FFFFFFE0
FFFFFFE0
FFFFFFE0
07803800
07803800
07003800
07007800
07007800
0F007800
0F007000
0F007000
0F007000
0E007000
0E00F000
ENDCHAR
STARTCHAR 0024
ENCODING 36
SWIDTH 522 0
DWIDTH 29 0
BBX 24 49 3 -5
BITMAP
001C00
001C00
001C00
001C00
007E00
03FF80
07FFE0
0FFFF0
1FDFF8
1F1CF8
3E1C7C
3C1C3C
3C1C3E
3C1C1E
3C1C18
3C1C00
3E1C00
1F1C00
1F9C00
0FDC00
07FC00
03FC00
00FE00
007F80
001FC0
001FE0
001FF8
001DF8
001C7C
001C3E
001C3E
001C1E
001C1F
301C0F
F01C0F
F81C1F
F81C1E
7C1C1E
7C1C3E
3E1C7C
1F9DFC
1FFFF8
07FFF0
03FFC0
007F00
001C00
001C00
001C00
001C00
ENDCHAR
STARTCHAR 0025
ENCODING 37
SWIDTH 846 0
DWIDTH 47 0
BBX 41 41 3 -1
BITMAP
01F000000000
0FFC0000F000
1FFE0001E000
3FBF0001C000
7C078003C000
7803C0078000
F003C00F0000
F001C00F0000
F001E01E0000
F001E03C0000
F001E0380000
F001E0780000
F003C0F00000
7803C0E00000
7C0781E00000
3FBF83C00000
1FFF07800000
07FC07800000
01F00F000000
00001E000000
00001C000000
00003C000000
00007803C000
0000701FF000
0000F03FFC00
0001E0FFFE00
0003C0F81F00
0003C1E00F00
000781E00780
000F03C00780
000E03C00780
001E03C00780
003C03C00780
003803C00780
007801E00780
00F001E00F00
01E000F01F00
01E000FE7E00
03C0007FFC00
0780001FF800
00000007C000
ENDCHAR
STARTCHAR 0026
ENCODING 38
SWIDTH 648 0
DWIDTH 36 0
BBX 30 40 3 -1
BITMAP
01FF8000
03FFE000
0FFFF000
0FE7F800
1F00FC00
3E007E00
3C003E00
3C001C00
7C000000
7C000000
7C000000
3C000000
3C000000
3E000000
1F000000
1F800000
0FFFFFFC
07FFFFFC
07FFFFFC
1FFFFFFC
3FC001E0
3E0001E0
7C0001E0
780001E0
F80001E0
F00003E0
F00003E0
F00003C0
F00003C0
F00007C0
F8000780
F8000F80
7C000F00
7E001F00
3F007E00
1FF3FC00
0FFFF800
07FFF000
01FFC000
000E0000
ENDCHAR
STARTCHAR 0027
ENCODING 39
SWIDTH 144 0
DWIDTH 8 0
BBX 3 12 3 27
BITMAP
E0
E0
E0
E0
E0
E0
E0
E0
E0
E0
E0
E0
ENDCHAR
STARTCHAR 0028
ENCODING 40
SWIDTH 306 0
DWIDTH 17 0
BBX 12 51 3 -8
BITMAP
00C0
00E0
01E0
03C0
03C0
0780
0780
0F00
0F00
1E00
1E00
3C00
3C00
3800
7800
7800
7000
7000
F000
F000
F000
F000
E000
E000
E000
E000
E000
E000
E000
F000
F000
F000
F000
7000
7000
7800
7800
3800
3C00
3C00
1C00
1E00
0E00
0F00
0700
0780
03C0
03C0
01E0
01F0
00C0
ENDCHAR
STARTCHAR 0029
ENCODING 41
SWIDTH 306 0
DWIDTH 17 0
BBX 12 51 3 -8
BITMAP
2000
F000
F000
7800
3C00
3C00
1E00
1E00
0F00
0F00
0780
0780
0380
03C0
03C0
01C0
01C0
01E0
01E0
00E0
00E0
00E0
00E0
00F0
00F0
00F0
00F0
00F0
00E0
00E0
00E0
00E0
00E0
01E0
01E0
01C0
01C0
03C0
0380
0780
0780
0700
0F00
0E00
1E00
3C00
3C00
7800
7800
F000
6000
ENDCHAR
STARTCHAR 002A
ENCODING 42
SWIDTH 450 0
DWIDTH 25 0
BBX 19 19 3 20
BITMAP
004000
00E000
01F000
01F000
01F000
01F000
F8E3E0
FEE7E0
FFFFE0
7FFFC0
1FFF00
01F000
03F800
0FBE00
0FBE00
1F1F00
1F1F00
1E0F00
0C0600
ENDCHAR
STARTCHAR 002B
ENCODING 43
SWIDTH 540 0
DWIDTH 30 0
BBX 25 25 3 6
BITMAP
003C0000
003C0000
003C0000
003C0000
003C0000
003C0000
003C0000
003C0000
003C0000
003C0000
003C0000
FFFFFF80
FFFFFF80
FFFFFF80
003C0000
003C0000
003C0000
003C0000
003C0000
003C0000
003C0000
003C0000
003C0000
003C0000
003C0000
ENDCHAR
STARTCHAR 002C
ENCODING 44
SWIDTH 252 0
DWIDTH 14 0
BBX 8 11 3 -7
BITMAP
0F
1F
1E
1C
3C
38
78
70
70
E0
E0
ENDCHAR
STARTCHAR 002D
ENCODING 45
SWIDTH 432 0
DWIDTH 24 0
BBX 19 4 3 11
BITMAP
FFFFE0
FFFFE0
FFFFE0
FFFFE0
ENDCHAR
STARTCHAR 002E
ENCODING 46
SWIDTH 234 0
DWIDTH 13 0
BBX 8 8 3 -1
BITMAP
3C
7E
FE
FF
FF
FE
7C
10
ENDCHAR
STARTCHAR 002F
ENCODING 47
SWIDTH 360 0
DWIDTH 20 0
BBX 15 41 3 -1
BITMAP
001E
001E
001C
001C
003C
003C
0038
0078
0078
0070
0070
00F0
00F0
00E0
01E0
01E0
01C0
01C0
03C0
03C0
0380
0780
0780
0700
0700
0F00
0F00
0E00
1E00
1E00
1C00
1C00
3C00
3800
3800
7800
7800
7000
7000
F000
E000
ENDCHAR
STARTCHAR 0030
ENCODING 48
SWIDTH 684 0
DWIDTH 38 0
BBX 35 41 2 -1
BITMAP
0003F00000
001FFF0000
007FFFC000
01FFFFF000
03FC07F800
07E001FC00
0FC0007E00
1F80003E00
1F00001F00
3E00000F80
3C00000780
7C000007C0
78000003C0
78000003C0
F0000003C0
F0000003E0
F0000001E0
F0000001E0
F0000001E0
F0000001E0
F0000001E0
F0000001E0
F0000001E0
F0000001E0
F0000001E0
F0000003E0
F0000003C0
78000003C0
78000003C0
7C000007C0
3C00000780
3E00000F80
1E00001F00
1F00003F00
0FC0007E00
07E001FC00
03FC07F800
01FFFFF000
007FFFC000
001FFF0000
0003F80000
ENDCHAR
STARTCHAR 0031
ENCODING 49
SWIDTH 270 0
DWIDTH 15 0
BBX 10 39 2 0
BITMAP
03C0
03C0
03C0
FFC0
FFC0
FFC0
FFC0
03C0
03C0
03C0
03C0
03C0
03C0
03C0
03C0
03C0
03C0
03C0
03C0
03C0
03C0
03C0
03C0
03C0
03C0
03C0
03C0
03C0
03C0
03C0
03C0
03C0
03C0
03C0
03C0
03C0
03C0
03C0
03C0
ENDCHAR
STARTCHAR 0032
ENCODING 50
SWIDTH 522 0
DWIDTH 29 0
BBX 26 40 2 0
BITMAP
003E0000
01FFE000
07FFF000
0FFFF800
1FC0FC00
3F003E00
3E001F00
7C000F00
78000F00
F8000F80
F0000780
F0000780
F0000780
00000780
00000F80
00000F00
00000F00
00001F00
00001E00
00003E00
00007C00
0000F800
0000F800
0001F000
0003E000
0007C000
000F8000
001F0000
003E0000
007C0000
00F80000
01F00000
03E00000
07C00000
0F800000
1F000000
3FFFFFC0
7FFFFFC0
FFFFFFC0
FFFFFFC0
ENDCHAR
STARTCHAR 0033
ENCODING 51
SWIDTH 504 0
DWIDTH 28 0
BBX 25 40 2 -1
BITMAP
FFFFFE00
FFFFFE00
FFFFFE00
FFFFFC00
0000F000
0001E000
0007C000
000F8000
001F0000
003E0000
007C0000
00F80000
01FE0000
07FFC000
0FFFF000
1FFFF800
3F01FC00
1C007E00
08003E00
00001F00
00000F00
00000780
00000780
00000780
00000780
00000780
00000780
00000780
00000780
00000780
00000F00
00000F00
30001F00
F8003E00
FC007C00
7F01FC00
3FFFF800
1FFFE000
07FF8000
00FC0000
ENDCHAR
STARTCHAR 0034
ENCODING 52
SWIDTH 522 0
DWIDTH 29 0
BBX 27 39 1 0
BITMAP
00007E00
0007FE00
001FFE00
007FFE00
00FF1E00
01F81E00
03F01E00
07C01E00
0F801E00
1F001E00
1F001E00
3E001E00
3C001E00
7C001E00
78001E00
78001E00
78001E00
F0001E00
F0001E00
F0001E00
F0001E00
F0001E00
F0001E00
FFFFFFE0
FFFFFFE0
FFFFFFE0
FFFFFFE0
00001E00
00001E00
00001E00
00001E00
00001E00
00001E00
00001E00
00001E00
00001E00
00001E00
00001E00
00001E00
ENDCHAR
STARTCHAR 0035
ENCODING 53
SWIDTH 522 0
DWIDTH 29 0
BBX 25 40 3 -1
BITMAP
7FFFFE00
7FFFFE00
7FFFFE00
7FFFFE00
78000000
78000000
70000000
70000000
70000000
F0000000
F0000000
F0000000
F07E0000
F3FFC000
FFFFF000
FFFFF800
FF01FC00
FC007E00
F8003E00
60001F00
00000F00
00000F80
00000780
00000780
00000780
00000780
00000780
00000780
00000780
00000F80
00000F00
00001F00
60001E00
F0003E00
FC00FC00
7F03F800
3FFFF000
1FFFE000
07FF8000
00FC0000
ENDCHAR
STARTCHAR 0036
ENCODING 54
SWIDTH 594 0
DWIDTH 33 0
BBX 30 40 2 -1
BITMAP
0003E000
0003C000
00078000
000F8000
001F0000
001E0000
003E0000
007C0000
00780000
00F80000
01F00000
01EFF000
03FFFC00
07FFFF00
0FFFFF80
0FC01FC0
1F8007E0
1F0003F0
3E0001F0
3C0000F8
78000078
78000078
78000078
F000007C
F000003C
F000003C
F000003C
F8000078
78000078
78000078
7C0000F8
3C0000F0
3E0001F0
1F0003E0
1F8007C0
0FE01FC0
07FFFF00
01FFFE00
00FFF800
000FC000
ENDCHAR
STARTCHAR 0037
ENCODING 55
SWIDTH 414 0
DWIDTH 23 0
BBX 22 39 2 0
BITMAP
FFFFFC
FFFFFC
FFFFFC
FFFFF8
000078
0000F8
0000F0
0000F0
0001E0
0001E0
0003E0
0003C0
0003C0
000780
000780
7FFFF0
7FFFF0
7FFFF0
7FFFF0
001E00
003E00
003C00
003C00
007800
007800
00F800
00F000
00F000
01E000
01E000
03E000
03C000
03C000
078000
078000
0F8000
0F0000
0F0000
1E0000
ENDCHAR
STARTCHAR 0038
ENCODING 56
SWIDTH 558 0
DWIDTH 31 0
BBX 29 41 1 -1
BITMAP
00078000
003FE000
00FFF800
00FFFC00
01F03C00
03E01E00
03C01E00
03C00E00
03C00F00
03C00E00
03C01E00
03E01E00
01E03E00
01FDFC00
00FFF800
01FFFC00
03FFFF00
0FE03F80
1F800FC0
1F0003E0
3E0001E0
3C0001F0
780000F0
780000F0
78000078
78000078
F8000078
F8000078
78000078
780000F8
780000F0
7C0000F0
3C0001F0
3E0003E0
1F0007E0
1F800FC0
0FE03F80
07FFFF00
01FFFE00
00FFF800
001FC000
ENDCHAR
STARTCHAR 0039
ENCODING 57
SWIDTH 576 0
DWIDTH 32 0
BBX 29 40 2 0
BITMAP
000F8000
00FFF800
03FFFC00
07FFFF00
0FE03F80
1F800FC0
3F0007E0
3C0003E0
7C0001F0
780000F0
F80000F0
F0000078
F0000078
F0000078
F0000078
F0000078
F0000078
F0000078
F00000F8
F80000F0
780001F0
7C0001E0
3E0003E0
3F0007C0
1FC01FC0
0FF8FF80
07FFFF00
01FFFF00
007FBE00
00003C00
00007C00
0000F800
0000F000
0001E000
0003E000
0007C000
00078000
000F8000
001F0000
001E0000
ENDCHAR
STARTCHAR 003A
ENCODING 58
SWIDTH 234 0
DWIDTH 13 0
BBX 8 27 3 -1
BITMAP
7C
FE
FF
FF
FE
FE
7C
00
00
00
00
00
00
00
00
00
00
00
00
3C
7E
FE
FF
FF
FE
7C
10
ENDCHAR
STARTCHAR 003B
ENCODING 59
SWIDTH 270 0
DWIDTH 15 0
BBX 10 33 3 -7
BITMAP
1F00
3F80
3F80
3FC0
3F80
3F80
1F00
0000
0000
0000
0000
0000
0000
0000
0000
0000
0000
0000
0000
0000
0000
0000
0F00
1F00
1E00
1C00
3C00
3800
7800
7000
7000
E000
E000
ENDCHAR
STARTCHAR 003C
ENCODING 60
SWIDTH 540 0
DWIDTH 30 0
BBX 25 22 3 7
BITMAP
00000380
00001F80
00007F80
0003FE00
001FF000
007FC000
03FE0000
1FF00000
7F800000
FE000000
F0000000
FC000000
FF800000
3FE00000
07FC0000
00FF8000
003FE000
0007FC00
0000FF80
00003F80
00000780
00000080
ENDCHAR
STARTCHAR 003D
ENCODING 61
SWIDTH 540 0
DWIDTH 30 0
BBX 25 14 3 11
BITMAP
FFFFFF80
FFFFFF80
FFFFFF80
00000000
00000000
00000000
00000000
00000000
00000000
00000000
00000000
FFFFFF80
FFFFFF80
FFFFFF80
ENDCHAR
STARTCHAR 003E
ENCODING 62
SWIDTH 540 0
DWIDTH 30 0
BBX 25 22 3 7
BITMAP
E0000000
F8000000
FF000000
3FE00000
0FF80000
01FF0000
003FC000
000FF800
0001FF00
00003F80
00000F80
00001F80
0000FF80
0007FC00
001FE000
00FF8000
07FC0000
3FE00000
FF800000
FC000000
E0000000
80000000
ENDCHAR
STARTCHAR 003F
ENCODING 63
SWIDTH 414 0
DWIDTH 23 0
BBX 17 40 3 -1
BITMAP
07F800
1FFE00
3FFE00
7E3F00
780F80
F00780
F00780
600780
000780
000780
000F80
000F00
001F00
001E00
003C00
007800
00F800
00F000
01E000
01E000
03C000
03C000
03C000
03C000
038000
038000
038000
000000
000000
000000
000000
000000
038000
07E000
0FE000
0FF000
0FE000
0FE000
07C000
010000
ENDCHAR
STARTCHAR 0040
ENCODING 64
SWIDTH 774 0
DWIDTH 43 0
BBX 38 41 3 -1
BITMAP
0000080000
0003FFE000
001FFFF800
007FC1FE00
00FC001F00
01F00007C0
03C00003C0
07800001E0
0F000000F0
1E00000070
3C00380038
3800FE7038
3803FF7038
7007E7F01C
700F81E01C
F00F01E01C
E01E00E01C
E01E00E01C
E01E00E01C
E01C00E03C
E01C00E038
E01C01E038
E01C01C038
E01E01C070
E01E03E0F0
F01F07E0E0
700FDEF3C0
7007FEFF80
7803FC7F00
3800400C00
3C00000000
1E00000000
0F00000000
07800000C0
07C00001E0
03E00007C0
00FC001F80
007F81FE00
001FFFFC00
0003FFE000
00001C0000
ENDCHAR
STARTCHAR 0041
ENCODING 65
SWIDTH 540 0
DWIDTH 30 0
BBX 27 40 3 0
BITMAP
007C0000
03FF8000
0FFFC000
1FFFE000
3F83F000
3E00F800
7C007800
78007C00
F8003C00
F0003C00
F0003C00
F0003E00
F0001E00
F0001E00
F0001E00
F0001E00
F0001E00
F0001E00
F0001E00
F0001E00
F0001E00
F0001E00
F0001E00
F0001E00
F0001E00
F0001E00
F0001E00
F0001E00
F0001E00
F0001E00
F0001E00
F0001E00
F0001E00
F0001E00
F0001E00
F0001E00
FFFFFFE0
FFFFFFE0
FFFFFFE0
FFFFFFE0
ENDCHAR
STARTCHAR 0042
ENCODING 66
SWIDTH 576 0
DWIDTH 32 0
BBX 29 39 2 0
BITMAP
0FFFF000
0FFFFE00
0FFFFF00
0FFFFFC0
0F000FC0
0F0003E0
0F0001F0
0F0001F0
0F0000F0
0F0000F0
0F0000F0
0F0000F0
0F0000F0
0F0001F0
0F0001E0
0F0003E0
0F000FC0
FFFFFFC0
FFFFFF00
FFFFFF80
FFFFFFC0
0F000FE0
0F0003F0
0F0001F0
0F0000F8
0F000078
0F000078
0F000078
0F000078
0F000078
0F000078
0F0000F8
0F0000F8
0F0003F0
0F000FE0
0FFFFFE0
0FFFFF80
0FFFFF00
0FFFF800
ENDCHAR
STARTCHAR 0043
ENCODING 67
SWIDTH 666 0
DWIDTH 37 0
BBX 35 41 2 -1
BITMAP
00003E0000
0007FFE000
001FFFFC00
007FFFFE00
01FF80FF80
03FC001FC0
07F0000FE0
0FC00003E0
0F800001C0
1F00000080
3E00000000
3C00000000
7C00000000
7800000000
7800000000
F800000000
F000000000
F000000000
F000000000
F000000000
F000000000
F000000000
F000000000
F000000000
F000000000
F800000000
7800000000
7800000000
7C00000000
3C00000000
3E00000000
1F00000080
0F800001C0
0FC00003E0
07E0000FE0
03F8001FC0
01FF00FF80
007FFFFE00
003FFFFC00
0007FFE000
00007E0000
ENDCHAR
STARTCHAR 0044
ENCODING 68
SWIDTH 630 0
DWIDTH 35 0
BBX 31 39 3 0
BITMAP
FFFC0000
FFFFC000
FFFFF800
FFFFFC00
F001FF00
F0003F80
F0000FC0
F00007E0
F00003E0
F00001F0
F00000F8
F00000F8
F0000078
F000007C
F000003C
F000003C
F000003C
F000003C
F000003C
F000003E
F000003C
F000003C
F000003C
F000003C
F000003C
F000007C
F0000078
F0000078
F00000F8
F00001F0
F00003F0
F00007E0
F0000FC0
F0003F80
F001FF00
FFFFFE00
FFFFF800
FFFFE000
FFFE0000
ENDCHAR
STARTCHAR 0045
ENCODING 69
SWIDTH 486 0
DWIDTH 27 0
BBX 26 39 1 0
BITMAP
0FFFF000
0FFFF000
0FFFF000
0FFFF000
0F000000
0F000000
0F000000
0F000000
0F000000
0F000000
0F000000
0F000000
0F000000
0F000000
0F000000
0F000000
0F000000
FFFFFC00
FFFFFC00
FFFFFC00
FFFFFC00
0F000000
0F000000
0F000000
0F000000
0F000000
0F000000
0F000000
0F000000
0F000000
0F000000
0F000000
0F000000
0F000000
0F000000
0FFFFFC0
0FFFFFC0
0FFFFFC0
0FFFFFC0
ENDCHAR
STARTCHAR 0046
ENCODING 70
SWIDTH 432 0
DWIDTH 24 0
BBX 24 39 1 0
BITMAP
07FFFF
07FFFF
07FFFF
07FFFF
078000
078000
078000
078000
078000
078000
078000
078000
078000
078000
078000
078000
078000
078000
FFFFFE
FFFFFE
FFFFFE
FFFFFE
078000
078000
078000
078000
078000
078000
078000
078000
078000
078000
078000
078000
078000
078000
078000
078000
078000
ENDCHAR
STARTCHAR 0047
ENCODING 71
SWIDTH 828 0
DWIDTH 46 0
BBX 44 41 2 -1
BITMAP
00003F000000
0007FFF00000
001FFFFC0000
007FFFFE0000
00FF80FF8000
03FC001FC000
07F00007E000
0FC00003F000
0F800001C000
1F0000008000
3E0000000000
3E0000000000
7C0000000000
780000000000
780000000000
F80000000000
F00000000000
F00000000000
F0001FFFFFF0
F0001FFFFFF0
F0001FFFFFF0
F0001FFFFFF0
F00000000F00
F00000000F00
F00000000F00
F80000000F00
780000001F00
780000001E00
7C0000003E00
3C0000003E00
3E0000007C00
1F000000FC00
0F800001F800
0FC00003F000
07F00007E000
03F8001FC000
01FF80FF8000
007FFFFF0000
001FFFFC0000
0007FFF00000
00007F000000
ENDCHAR
STARTCHAR 0048
ENCODING 72
SWIDTH 540 0
DWIDTH 30 0
BBX 27 39 1 0
BITMAP
0F0003E0
0F0003E0
0F0003E0
0F0003E0
0F0003E0
0F0003E0
0F0003E0
0F0003E0
0F0003E0
0F0003E0
0F0003E0
0F0003E0
0F0003E0
0F0003E0
0F0003E0
FFFFFFE0
FFFFFFE0
FFFFFFE0
FFFFFFE0
0F0003E0
0F0003E0
0F0003E0
0F0003E0
0F0003E0
0F0003E0
0F0003E0
0F0003E0
0F0003E0
0F0003E0
0F0003E0
0F0003E0
0F0003E0
0F0003E0
0F0003E0
0F0003E0
0F0003E0
0F0003E0
0F0003E0
0F0003E0
ENDCHAR
STARTCHAR 0049
ENCODING 73
SWIDTH 162 0
DWIDTH 9 0
BBX 13 43 -2 1
BITMAP
0200
0200
0300
0700
FFF8
3FE0
1FC0
0F80
0FC0
1DC0
1840
2020
0000
0000
0000
0000
0000
0000
0000
0780
0780
0780
0780
0780
0780
0780
0780
0780
0780
0780
0780
0780
0780
0780
0780
0780
0780
0780
0780
0780
0780
0780
0780
ENDCHAR
STARTCHAR 004A
ENCODING 74
SWIDTH 450 0
DWIDTH 25 0
BBX 22 40 1 -1
BITMAP
0007FC
0007FC
0007FC
0007FC
00007C
00007C
00007C
00007C
00007C
00007C
00007C
00007C
00007C
00007C
00007C
00007C
00007C
00007C
00007C
00007C
00007C
00007C
00007C
00007C
00007C
00007C
00007C
00007C
000078
000078
000078
700078
F000F8
F801F0
7C03F0
7F07E0
3FFFC0
1FFF80
0FFF00
00F800
ENDCHAR
STARTCHAR 004B
ENCODING 75
SWIDTH 504 0
DWIDTH 28 0
BBX 25 39 1 0
BITMAP
0F001E00
0F001E00
0F001E00
0F001E00
0F001E00
0F001E00
0F001E00
0F001E00
0F001E00
0F001E00
0F001E00
0F003E00
0F003C00
0F003C00
0F007C00
0F00F800
0F01F800
FFFFF000
FFFFF000
FFFFF800
FFFFFC00
0F00FE00
0F003F00
0F001F00
0F000F00
0F000F80
0F000780
0F000780
0F000780
0F000780
0F000780
0F000780
0F000780
0F000780
0F000780
0F000780
0F000780
0F000780
0F000780
ENDCHAR
STARTCHAR 004C
ENCODING 76
SWIDTH 414 0
DWIDTH 23 0
BBX 19 39 3 0
BITMAP
F00000
F00000
F00000
F00000
F00000
F00000
F00000
F00000
F00000
F00000
F00000
F00000
F00000
F00000
F00000
F00000
F00000
F00000
F00000
F00000
F00000
F00000
F00000
F00000
F00000
F00000
F00000
F00000
F00000
F00000
F00000
F00000
F00000
F00000
F00000
FFFFE0
FFFFE0
FFFFE0
FFFFE0
ENDCHAR
STARTCHAR 004D
ENCODING 77
SWIDTH 846 0
DWIDTH 47 0
BBX 44 40 1 0
BITMAP
200000000000
7000060000F0
F800070000F0
FE0007C000F0
7F0007E000F0
1F8007F000F0
1FC007FC00F0
1FF007FE00F0
1FF807BF00F0
1EFC079F80F0
1E7F078FE0F0
1E1F8783F0F0
1E0FC781F8F0
1E07E780FEF0
1E03FF803FF0
1E00FF801FF0
1E007F800FF0
1E003F8007F0
1E000F8001F0
1E00078000F0
1E00078000F0
1E00078000F0
1E00078000F0
1E00078000F0
1E00078000F0
1E00078000F0
1E00078000F0
1E00078000F0
1E00078000F0
1E00078000F0
1E00078000F0
1E00078000F0
1E00078000F0
1E00078000F0
1E00078000F0
1E00078000F0
1E00078000F0
1E00078000F0
1E00078000F0
1E00078000F0
ENDCHAR
STARTCHAR 004E
ENCODING 78
SWIDTH 486 0
DWIDTH 27 0
BBX 24 40 1 0
BITMAP
200000
70000F
F8000F
FE000F
7F000F
3F800F
3FC00F
3FF00F
3DF80F
3CFC0F
3C7F0F
3C3F8F
3C0FCF
3C07EF
3C03FF
3C00FF
3C007F
3C003F
3C001F
3C000F
3C000F
3C000F
3C000F
3C000F
3C000F
3C000F
3C000F
3C000F
3C000F
3C000F
3C000F
3C000F
3C000F
3C000F
3C000F
3C000F
3C000F
3C000F
3C000F
3C000F
ENDCHAR
STARTCHAR 004F
ENCODING 79
SWIDTH 810 0
DWIDTH 45 0
BBX 41 41 2 -1
BITMAP
00003E000000
0007FFF00000
001FFFFC0000
007FFFFF0000
00FF80FFC000
03FC001FE000
07F00007F000
0FC00001F800
0F800000F800
1F0000007C00
3E0000003E00
3E0000001E00
7C0000001F00
780000000F00
780000000F00
F80000000F80
F00000000780
F00000000780
F00000000780
F00000000780
F00000000780
F00000000780
F00000000780
F00000000780
F00000000780
F80000000F80
780000000F00
780000000F00
7C0000001F00
3C0000001E00
3E0000003E00
1F0000007C00
0F800000FC00
0FC00001F800
07F00007F000
03F8000FE000
01FF80FFC000
007FFFFF0000
001FFFFC0000
0007FFF00000
00007F000000
ENDCHAR
STARTCHAR 0050
ENCODING 80
SWIDTH 540 0
DWIDTH 30 0
BBX 29 39 1 0
BITMAP
1FFFC000
1FFFFC00
1FFFFF00
1FFFFF80
1E001FC0
1E0007E0
1E0003E0
1E0001F0
1E0000F0
1E0000F0
1E0000F8
1E0000F8
1E0000F8
1E0000F0
1E0000F0
1E0000F0
1E0001F0
1E0003E0
1E0007E0
1E003FC0
FFFFFF80
FFFFFE00
FFFFF800
FFFFC000
1E000000
1E000000
1E000000
1E000000
1E000000
1E000000
1E000000
1E000000
1E000000
1E000000
1E000000
1E000000
1E000000
1E000000
1E000000
ENDCHAR
STARTCHAR 0051
ENCODING 81
SWIDTH 810 0
DWIDTH 45 0
BBX 41 41 2 -1
BITMAP
00003E000000
0007FFF00000
001FFFFC0000
007FFFFF0000
00FF80FFC000
03FC001FE000
07F00007F000
0FC00001F800
0F800000F800
1F0000007C00
3E0000003E00
3E0000001E00
7C0000001F00
780000000F00
780000000F00
F80000000F80
F00000000780
F00000000780
F00000000780
F00000000780
F00000000780
F00000000780
F00000000780
F00000000780
F00000000780
F80000000F80
780000000F00
780000000F00
7C0000181F00
3C00003C1E00
3E00003E3E00
1F00001F7C00
0F80000FFC00
0FC00007F800
07F00007F000
03F8000FF000
01FF80FFF800
007FFFFFFC00
001FFFFE7E00
0007FFF03C00
00007F801800
ENDCHAR
STARTCHAR 0052
ENCODING 82
SWIDTH 558 0
DWIDTH 31 0
BBX 29 39 1 0
BITMAP
0FFFE000
0FFFFC00
0FFFFF00
0FFFFFC0
0F001FE0
0F0007E0
0F0001F0
0F0000F0
0F0000F8
0F000078
0F000078
0F000078
0F000078
0F000078
0F0000F8
0F0000F0
0F0001F0
0F0003E0
0F000FE0
FFFFFFC0
FFFFFF80
FFFFFE00
FFFFFE00
0F00FF00
0F001F00
0F000F80
0F0007C0
0F0003C0
0F0003C0
0F0003E0
0F0001E0
0F0001E0
0F0001E0
0F0001E0
0F0001E0
0F0001E0
0F0001E0
0F0001E0
0F0001E0
ENDCHAR
STARTCHAR 0053
ENCODING 83
SWIDTH 468 0
DWIDTH 26 0
BBX 23 41 2 -1
BITMAP
007C00
03FF80
0FFFC0
1FFFE0
1F83F0
3E00F8
3C0078
3C007C
7C003C
7C003C
7C0030
3C0000
3C0000
3E0000
1F0000
0FC000
07E000
03F800
01FE00
007F00
003FC0
000FE0
0003F0
0001F8
0000FC
00007C
00003E
00001E
00001E
30001E
F0001E
F0001E
F8001E
F8003E
7C003C
3E007C
3F81F8
1FFFF8
0FFFE0
03FFC0
007E00
ENDCHAR
STARTCHAR 0054
ENCODING 84
SWIDTH 486 0
DWIDTH 27 0
BBX 25 39 1 0
BITMAP
FFFFFF80
FFFFFF80
FFFFFF80
FFFFFF80
001E0000
001E0000
001E0000
001E0000
001E0000
001E0000
001E0000
001E0000
001E0000
001E0000
001E0000
001E0000
001E0000
001E0000
001E0000
001E0000
001E0000
001E0000
001E0000
001E0000
001E0000
001E0000
001E0000
001E0000
001E0000
001E0000
001E0000
001E0000
001E0000
001E0000
001E0000
001E0000
001E0000
001E0000
001E0000
ENDCHAR
STARTCHAR 0055
ENCODING 85
SWIDTH 486 0
DWIDTH 27 0
BBX 23 40 2 -1
BITMAP
F8001E
F8001E
F8001E
F8001E
F8001E
F8001E
F8001E
F8001E
F8001E
F8001E
F8001E
F8001E
F8001E
F8001E
F8001E
F8001E
F8001E
F8001E
F8001E
F8001E
F8001E
F8001E
F8001E
F8001E
F8001E
F8001E
F8001E
F8001E
F8001E
78001E
78001E
78003E
7C003C
3C007C
3E00F8
1F83F8
0FFFF0
07FFE0
03FF80
007E00
ENDCHAR
STARTCHAR 0056
ENCODING 86
SWIDTH 450 0
DWIDTH 25 0
BBX 23 39 0 0
BITMAP
F8003E
F8003E
F8003E
F8003E
F8003E
F8003E
F8003E
F8003E
F8003E
F8003E
F8003E
F8003E
F8003E
F8003E
F8003E
F8003E
F8003E
F8003E
78003C
78003C
78003C
78003C
78003C
78003C
78003C
78003C
7C007C
3C0078
3C0078
3E00F8
1E00F0
1F01F0
0F01E0
0F83E0
07C7C0
03CFC0
03EF80
01FF00
00FE00
ENDCHAR
STARTCHAR 0057
ENCODING 87
SWIDTH 774 0
DWIDTH 43 0
BBX 40 39 0 0
BITMAP
F8003E000F
F8003E000F
F8003E000F
F8003E000F
F8003E000F
F8003E000F
F8003E000F
F8003E000F
F8003E000F
F8003E000F
F8003E000F
F8003E000F
F8003E000F
F8003E000F
F8003E000F
F8003E000F
F8003E000F
F8003E000F
78003E000F
78003E000F
78003E000F
78003E000F
78003E000F
78003E000F
78003E000F
78003E001F
7C007F001E
3C007F001E
3C007F001E
3E00FF803E
1E00F7803C
1F01F7C07C
0F01E7C078
0F83E3E0F8
07C7C1F1F0
03CFC1F3E0
03EF80FBE0
01FF007FC0
00FE003F80
ENDCHAR
STARTCHAR 0058
ENCODING 88
SWIDTH 504 0
DWIDTH 28 0
BBX 23 39 3 0
BITMAP
F0003E
F0003E
F0003E
F0003E
F0003E
F0003E
F0003E
F0003C
F0003C
F0003C
F0003C
F8007C
7C0078
7C00F8
3F03F0
1FFFE0
0FFFC0
0FFFC0
1FFFE0
3F03F0
7E01F8
7C00F8
78007C
F8003C
F0003C
F0003C
F0003C
F0003E
F0003E
F0003E
F0003E
F0003E
F0003E
F0003E
F0003E
F0003E
F0003E
F0003E
F0003E
ENDCHAR
STARTCHAR 0059
ENCODING 89
SWIDTH 486 0
DWIDTH 27 0
BBX 23 39 2 0
BITMAP
F0001E
F0001E
F0001E
F0001E
F0001E
F0001E
F0001E
F0001E
F0001E
F0001E
F0001E
F0001E
F0001E
F0001E
F0001E
F0001E
F0001E
F0001E
F0001E
F0001E
F8003E
78003C
7C003C
7C007C
3E00F8
1F83F0
0FFFF0
07FFC0
03FF80
007C00
007C00
007C00
007C00
007C00
007C00
007C00
007C00
007C00
007C00
ENDCHAR
STARTCHAR 005A
ENCODING 90
SWIDTH 486 0
DWIDTH 27 0
BBX 25 39 1 0
BITMAP
FFFFFF80
FFFFFF80
FFFFFF80
FFFFFF80
00001F00
00001E00
00003E00
00007C00
00007C00
0000F800
0000F000
0001F000
0003E000
0003E000
0007C000
00078000
000F8000
001F0000
001F0000
003E0000
003C0000
007C0000
00F80000
00F80000
01F00000
01E00000
03E00000
07C00000
07C00000
0F800000
0F000000
1F000000
3E000000
3E000000
7C000000
7FFFFF00
FFFFFF00
FFFFFF00
FFFFFF00
ENDCHAR
STARTCHAR 005B
ENCODING 91
SWIDTH 216 0
DWIDTH 12 0
BBX 6 52 3 -7
BITMAP
FC
FC
FC
E0
E0
E0
E0
E0
E0
E0
E0
E0
E0
E0
E0
E0
E0
E0
E0
E0
E0
E0
E0
E0
E0
E0
E0
E0
E0
E0
E0
E0
E0
E0
E0
E0
E0
E0
E0
E0
E0
E0
E0
E0
E0
E0
E0
E0
E0
E0
FC
FC
ENDCHAR
STARTCHAR 005C
ENCODING 92
SWIDTH 360 0
DWIDTH 20 0
BBX 15 41 3 -1
BITMAP
F000
F000
7000
7000
7800
7800
3800
3C00
3C00
1C00
1C00
1E00
1E00
0E00
0F00
0F00
0700
0700
0780
0780
0380
03C0
03C0
01C0
01C0
01E0
01E0
00E0
00F0
00F0
0070
0070
0078
0078
0038
003C
003C
001C
001C
001E
001E
ENDCHAR
STARTCHAR 005D
ENCODING 93
SWIDTH 216 0
DWIDTH 12 0
BBX 6 52 3 -7
BITMAP
FC
FC
FC
1C
1C
1C
1C
1C
1C
1C
1C
1C
1C
1C
1C
1C
1C
1C
1C
1C
1C
1C
1C
1C
1C
1C
1C
1C
1C
1C
1C
1C
1C
1C
1C
1C
1C
1C
1C
1C
1C
1C
1C
1C
1C
1C
1C
1C
1C
1C
FC
FC
ENDCHAR
STARTCHAR 005E
ENCODING 94
SWIDTH 450 0
DWIDTH 25 0
BBX 19 13 3 20
BITMAP
01F800
03F800
03FC00
07BC00
071E00
0F0E00
0E0F00
1E0780
1C0780
3C03C0
7801C0
7001E0
F000E0
ENDCHAR
STARTCHAR 005F
ENCODING 95
SWIDTH 504 0
DWIDTH 28 0
BBX 23 2 3 -5
BITMAP
FFFFFE
FFFFFE
ENDCHAR
STARTCHAR 0060
ENCODING 96
SWIDTH 144 0
DWIDTH 8 0
BBX 8 7 0 42
BITMAP
F0
78
3C
1C
0E
0F
07
ENDCHAR
STARTCHAR 0061
ENCODING 97
SWIDTH 540 0
DWIDTH 30 0
BBX 27 40 3 0
BITMAP
007C0000
03FF8000
0FFFC000
1FFFE000
3F83F000
3E00F800
7C007800
78007C00
F8003C00
F0003C00
F0003C00
F0003E00
F0001E00
F0001E00
F0001E00
F0001E00
F0001E00
F0001E00
F0001E00
F0001E00
F0001E00
F0001E00
F0001E00
F0001E00
F0001E00
F0001E00
F0001E00
F0001E00
F0001E00
F0001E00
F0001E00
F0001E00
F0001E00
F0001E00
F0001E00
F0001E00
FFFFFFE0
FFFFFFE0
FFFFFFE0
FFFFFFE0
ENDCHAR
STARTCHAR 0062
ENCODING 98
SWIDTH 576 0
DWIDTH 32 0
BBX 29 39 2 0
BITMAP
0FFFF000
0FFFFE00
0FFFFF00
0FFFFFC0
0F000FC0
0F0003E0
0F0001F0
0F0001F0
0F0000F0
0F0000F0
0F0000F0
0F0000F0
0F0000F0
0F0001F0
0F0001E0
0F0003E0
0F000FC0
FFFFFFC0
FFFFFF00
FFFFFF80
FFFFFFC0
0F000FE0
0F0003F0
0F0001F0
0F0000F8
0F000078
0F000078
0F000078
0F000078
0F000078
0F000078
0F0000F8
0F0000F8
0F0003F0
0F000FE0
0FFFFFE0
0FFFFF80
0FFFFF00
0FFFF800
ENDCHAR
STARTCHAR 0063
ENCODING 99
SWIDTH 666 0
DWIDTH 37 0
BBX 35 41 2 -1
BITMAP
00003E0000
0007FFE000
001FFFFC00
007FFFFE00
01FF80FF80
03FC001FC0
07F0000FE0
0FC00003E0
0F800001C0
1F00000080
3E00000000
3C00000000
7C00000000
7800000000
7800000000
F800000000
F000000000
F000000000
F000000000
F000000000
F000000000
F000000000
F000000000
F000000000
F000000000
F800000000
7800000000
7800000000
7C00000000
3C00000000
3E00000000
1F00000080
0F800001C0
0FC00003E0
07E0000FE0
03F8001FC0
01FF00FF80
007FFFFE00
003FFFFC00
0007FFE000
00007E0000
ENDCHAR
STARTCHAR 0064
ENCODING 100
SWIDTH 630 0
DWIDTH 35 0
BBX 31 39 3 0
BITMAP
FFFC0000
FFFFC000
FFFFF800
FFFFFC00
F001FF00
F0003F80
F0000FC0
F00007E0
F00003E0
F00001F0
F00000F8
F00000F8
F0000078
F000007C
F000003C
F000003C
F000003C
F000003C
F000003C
F000003E
F000003C
F000003C
F000003C
F000003C
F000003C
F000007C
F0000078
F0000078
F00000F8
F00001F0
F00003F0
F00007E0
F0000FC0
F0003F80
F001FF00
FFFFFE00
FFFFF800
FFFFE000
FFFE0000
ENDCHAR
STARTCHAR 0065
ENCODING 101
SWIDTH 486 0
DWIDTH 27 0
BBX 26 39 1 0
BITMAP
0FFFF000
0FFFF000
0FFFF000
0FFFF000
0F000000
0F000000
0F000000
0F000000
0F000000
0F000000
0F000000
0F000000
0F000000
0F000000
0F000000
0F000000
0F000000
FFFFFC00
FFFFFC00
FFFFFC00
FFFFFC00
0F000000
0F000000
0F000000
0F000000
0F000000
0F000000
0F000000
0F000000
0F000000
0F000000
0F000000
0F000000
0F000000
0F000000
0FFFFFC0
0FFFFFC0
0FFFFFC0
0FFFFFC0
ENDCHAR
STARTCHAR 0066
ENCODING 102
SWIDTH 432 0
DWIDTH 24 0
BBX 24 39 1 0
BITMAP
07FFFF
07FFFF
07FFFF
07FFFF
078000
078000
078000
078000
078000
078000
078000
078000
078000
078000
078000
078000
078000
078000
FFFFFE
FFFFFE
FFFFFE
FFFFFE
078000
078000
078000
078000
078000
078000
078000
078000
078000
078000
078000
078000
078000
078000
078000
078000
078000
ENDCHAR
STARTCHAR 0067
ENCODING 103
SWIDTH 828 0
DWIDTH 46 0
BBX 44 41 2 -1
BITMAP
00003F000000
0007FFF00000
001FFFFC0000
007FFFFE0000
00FF80FF8000
03FC001FC000
07F00007E000
0FC00003F000
0F800001C000
1F0000008000
3E0000000000
3E0000000000
7C0000000000
780000000000
780000000000
F80000000000
F00000000000
F00000000000
F0001FFFFFF0
F0001FFFFFF0
F0001FFFFFF0
F0001FFFFFF0
F00000000F00
F00000000F00
F00000000F00
F80000000F00
780000001F00
780000001E00
7C0000003E00
3C0000003E00
3E0000007C00
1F000000FC00
0F800001F800
0FC00003F000
07F00007E000
03F8001FC000
01FF80FF8000
007FFFFF0000
001FFFFC0000
0007FFF00000
00007F000000
ENDCHAR
STARTCHAR 0068
ENCODING 104
SWIDTH 540 0
DWIDTH 30 0
BBX 27 39 1 0
BITMAP
0F0003E0
0F0003E0
0F0003E0
0F0003E0
0F0003E0
0F0003E0
0F0003E0
0F0003E0
0F0003E0
0F0003E0
0F0003E0
0F0003E0
0F0003E0
0F0003E0
0F0003E0
FFFFFFE0
FFFFFFE0
FFFFFFE0
FFFFFFE0
0F0003E0
0F0003E0
0F0003E0
0F0003E0
0F0003E0
0F0003E0
0F0003E0
0F0003E0
0F0003E0
0F0003E0
0F0003E0
0F0003E0
0F0003E0
0F0003E0
0F0003E0
0F0003E0
0F0003E0
0F0003E0
0F0003E0
0F0003E0
ENDCHAR
STARTCHAR 0069
ENCODING 105
SWIDTH 162 0
DWIDTH 9 0
BBX 13 43 -2 1
BITMAP
0200
0200
0300
0700
FFF8
3FE0
1FC0
0F80
0FC0
1DC0
1840
2020
0000
0000
0000
0000
0000
0000
0000
0780
0780
0780
0780
0780
0780
0780
0780
0780
0780
0780
0780
0780
0780
0780
0780
0780
0780
0780
0780
0780
0780
0780
0780
ENDCHAR
STARTCHAR 006A
ENCODING 106
SWIDTH 450 0
DWIDTH 25 0
BBX 22 40 1 -1
BITMAP
0007FC
0007FC
0007FC
0007FC
00007C
00007C
00007C
00007C
00007C
00007C
00007C
00007C
00007C
00007C
00007C
00007C
00007C
00007C
00007C
00007C
00007C
00007C
00007C
00007C
00007C
00007C
00007C
00007C
000078
000078
000078
700078
F000F8
F801F0
7C03F0
7F07E0
3FFFC0
1FFF80
0FFF00
00F800
ENDCHAR
STARTCHAR 006B
ENCODING 107
SWIDTH 504 0
DWIDTH 28 0
BBX 25 39 1 0
BITMAP
0F001E00
0F001E00
0F001E00
0F001E00
0F001E00
0F001E00
0F001E00
0F001E00
0F001E00
0F001E00
0F001E00
0F003E00
0F003C00
0F003C00
0F007C00
0F00F800
0F01F800
FFFFF000
FFFFF000
FFFFF800
FFFFFC00
0F00FE00
0F003F00
0F001F00
0F000F00
0F000F80
0F000780
0F000780
0F000780
0F000780
0F000780
0F000780
0F000780
0F000780
0F000780
0F000780
0F000780
0F000780
0F000780
ENDCHAR
STARTCHAR 006C
ENCODING 108
SWIDTH 414 0
DWIDTH 23 0
BBX 19 39 3 0
BITMAP
F00000
F00000
F00000
F00000
F00000
F00000
F00000
F00000
F00000
F00000
F00000
F00000
F00000
F00000
F00000
F00000
F00000
F00000
F00000
F00000
F00000
F00000
F00000
F00000
F00000
F00000
F00000
F00000
F00000
F00000
F00000
F00000
F00000
F00000
F00000
FFFFE0
FFFFE0
FFFFE0
FFFFE0
ENDCHAR
STARTCHAR 006D
ENCODING 109
SWIDTH 846 0
DWIDTH 47 0
BBX 44 40 1 0
BITMAP
200000000000
7000060000F0
F800070000F0
FE0007C000F0
7F0007E000F0
1F8007F000F0
1FC007FC00F0
1FF007FE00F0
1FF807BF00F0
1EFC079F80F0
1E7F078FE0F0
1E1F8783F0F0
1E0FC781F8F0
1E07E780FEF0
1E03FF803FF0
1E00FF801FF0
1E007F800FF0
1E003F8007F0
1E000F8001F0
1E00078000F0
1E00078000F0
1E00078000F0
1E00078000F0
1E00078000F0
1E00078000F0
1E00078000F0
1E00078000F0
1E00078000F0
1E00078000F0
1E00078000F0
1E00078000F0
1E00078000F0
1E00078000F0
1E00078000F0
1E00078000F0
1E00078000F0
1E00078000F0
1E00078000F0
1E00078000F0
1E00078000F0
ENDCHAR
STARTCHAR 006E
ENCODING 110
SWIDTH 486 0
DWIDTH 27 0
BBX 24 40 1 0
BITMAP
200000
70000F
F8000F
FE000F
7F000F
3F800F
3FC00F
3FF00F
3DF80F
3CFC0F
3C7F0F
3C3F8F
3C0FCF
3C07EF
3C03FF
3C00FF
3C007F
3C003F
3C001F
3C000F
3C000F
3C000F
3C000F
3C000F
3C000F
3C000F
3C000F
3C000F
3C000F
3C000F
3C000F
3C000F
3C000F
3C000F
3C000F
3C000F
3C000F
3C000F
3C000F
3C000F
ENDCHAR
STARTCHAR 006F
ENCODING 111
SWIDTH 810 0
DWIDTH 45 0
BBX 41 41 2 -1
BITMAP
00003E000000
0007FFF00000
001FFFFC0000
007FFFFF0000
00FF80FFC000
03FC001FE000
07F00007F000
0FC00001F800
0F800000F800
1F0000007C00
3E0000003E00
3E0000001E00
7C0000001F00
780000000F00
780000000F00
F80000000F80
F00000000780
F00000000780
F00000000780
F00000000780
F00000000780
F00000000780
F00000000780
F00000000780
F00000000780
F80000000F80
780000000F00
780000000F00
7C0000001F00
3C0000001E00
3E0000003E00
1F0000007C00
0F800000FC00
0FC00001F800
07F00007F000
03F8000FE000
01FF80FFC000
007FFFFF0000
001FFFFC0000
0007FFF00000
00007F000000
ENDCHAR
STARTCHAR 0070
ENCODING 112
SWIDTH 540 0
DWIDTH 30 0
BBX 29 39 1 0
BITMAP
1FFFC000
1FFFFC00
1FFFFF00
1FFFFF80
1E001FC0
1E0007E0
1E0003E0
1E0001F0
1E0000F0
1E0000F0
1E0000F8
1E0000F8
1E0000F8
1E0000F0
1E0000F0
1E0000F0
1E0001F0
1E0003E0
1E0007E0
1E003FC0
FFFFFF80
FFFFFE00
FFFFF800
FFFFC000
1E000000
1E000000
1E000000
1E000000
1E000000
1E000000
1E000000
1E000000
1E000000
1E000000
1E000000
1E000000
1E000000
1E000000
1E000000
ENDCHAR
STARTCHAR 0071
ENCODING 113
SWIDTH 810 0
DWIDTH 45 0
BBX 41 41 2 -1
BITMAP
00003E000000
0007FFF00000
001FFFFC0000
007FFFFF0000
00FF80FFC000
03FC001FE000
07F00007F000
0FC00001F800
0F800000F800
1F0000007C00
3E0000003E00
3E0000001E00
7C0000001F00
780000000F00
780000000F00
F80000000F80
F00000000780
F00000000780
F00000000780
F00000000780
F00000000780
F00000000780
F00000000780
F00000000780
F00000000780
F80000000F80
780000000F00
780000000F00
7C0000181F00
3C00003C1E00
3E00003E3E00
1F00001F7C00
0F80000FFC00
0FC00007F800
07F00007F000
03F8000FF000
01FF80FFF800
007FFFFFFC00
001FFFFE7E00
0007FFF03C00
00007F801800
ENDCHAR
STARTCHAR 0072
ENCODING 114
SWIDTH 558 0
DWIDTH 31 0
BBX 29 39 1 0
BITMAP
0FFFE000
0FFFFC00
0FFFFF00
0FFFFFC0
0F001FE0
0F0007E0
0F0001F0
0F0000F0
0F0000F8
0F000078
0F000078
0F000078
0F000078
0F000078
0F0000F8
0F0000F0
0F0001F0
0F0003E0
0F000FE0
FFFFFFC0
FFFFFF80
FFFFFE00
FFFFFE00
0F00FF00
0F001F00
0F000F80
0F0007C0
0F0003C0
0F0003C0
0F0003E0
0F0001E0
0F0001E0
0F0001E0
0F0001E0
0F0001E0
0F0001E0
0F0001E0
0F0001E0
0F0001E0
ENDCHAR
STARTCHAR 0073
ENCODING 115
SWIDTH 468 0
DWIDTH 26 0
BBX 23 41 2 -1
BITMAP
007C00
03FF80
0FFFC0
1FFFE0
1F83F0
3E00F8
3C0078
3C007C
7C003C
7C003C
7C0030
3C0000
3C0000
3E0000
1F0000
0FC000
07E000
03F800
01FE00
007F00
003FC0
000FE0
0003F0
0001F8
0000FC
00007C
00003E
00001E
00001E
30001E
F0001E
F0001E
F8001E
F8003E
7C003C
3E007C
3F81F8
1FFFF8
0FFFE0
03FFC0
007E00
ENDCHAR
STARTCHAR 0074
ENCODING 116
SWIDTH 486 0
DWIDTH 27 0
BBX 25 39 1 0
BITMAP
FFFFFF80
FFFFFF80
FFFFFF80
FFFFFF80
001E0000
001E0000
001E0000
001E0000
001E0000
001E0000
001E0000
001E0000
001E0000
001E0000
001E0000
001E0000
001E0000
001E0000
001E0000
001E0000
001E0000
001E0000
001E0000
001E0000
001E0000
001E0000
001E0000
001E0000
001E0000
001E0000
001E0000
001E0000
001E0000
001E0000
001E0000
001E0000
001E0000
001E0000
001E0000
ENDCHAR
STARTCHAR 0075
ENCODING 117
SWIDTH 486 0
DWIDTH 27 0
BBX 23 40 2 -1
BITMAP
F8001E
F8001E
F8001E
F8001E
F8001E
F8001E
F8001E
F8001E
F8001E
F8001E
F8001E
F8001E
F8001E
F8001E
F8001E
F8001E
F8001E
F8001E
F8001E
F8001E
F8001E
F8001E
F8001E
F8001E
F8001E
F8001E
F8001E
F8001E
F8001E
78001E
78001E
78003E
7C003C
3C007C
3E00F8
1F83F8
0FFFF0
07FFE0
03FF80
007E00
ENDCHAR
STARTCHAR 0076
ENCODING 118
SWIDTH 450 0
DWIDTH 25 0
BBX 23 39 0 0
BITMAP
F8003E
F8003E
F8003E
F8003E
F8003E
F8003E
F8003E
F8003E
F8003E
F8003E
F8003E
F8003E
F8003E
F8003E
F8003E
F8003E
F8003E
F8003E
78003C
78003C
78003C
78003C
78003C
78003C
78003C
78003C
7C007C
3C0078
3C0078
3E00F8
1E00F0
1F01F0
0F01E0
0F83E0
07C7C0
03CFC0
03EF80
01FF00
00FE00
ENDCHAR
STARTCHAR 0077
ENCODING 119
SWIDTH 774 0
DWIDTH 43 0
BBX 40 39 0 0
BITMAP
F8003E000F
F8003E000F
F8003E000F
F8003E000F
F8003E000F
F8003E000F
F8003E000F
F8003E000F
F8003E000F
F8003E000F
F8003E000F
F8003E000F
F8003E000F
F8003E000F
F8003E000F
F8003E000F
F8003E000F
F8003E000F
78003E000F
78003E000F
78003E000F
78003E000F
78003E000F
78003E000F
78003E000F
78003E001F
7C007F001E
3C007F001E
3C007F001E
3E00FF803E
1E00F7803C
1F01F7C07C
0F01E7C078
0F83E3E0F8
07C7C1F1F0
03CFC1F3E0
03EF80FBE0
01FF007FC0
00FE003F80
ENDCHAR
STARTCHAR 0078
ENCODING 120
SWIDTH 504 0
DWIDTH 28 0
BBX 23 39 3 0
BITMAP
F0003E
F0003E
F0003E
F0003E
F0003E
F0003E
F0003E
F0003C
F0003C
F0003C
F0003C
F8007C
7C0078
7C00F8
3F03F0
1FFFE0
0FFFC0
0FFFC0
1FFFE0
3F03F0
7E01F8
7C00F8
78007C
F8003C
F0003C
F0003C
F0003C
F0003E
F0003E
F0003E
F0003E
F0003E
F0003E
F0003E
F0003E
F0003E
F0003E
F0003E
F0003E
ENDCHAR
STARTCHAR 0079
ENCODING 121
SWIDTH 486 0
DWIDTH 27 0
BBX 23 39 2 0
BITMAP
F0001E
F0001E
F0001E
F0001E
F0001E
F0001E
F0001E
F0001E
F0001E
F0001E
F0001E
F0001E
F0001E
F0001E
F0001E
F0001E
F0001E
F0001E
F0001E
F0001E
F8003E
78003C
7C003C
7C007C
3E00F8
1F83F0
0FFFF0
07FFC0
03FF80
007C00
007C00
007C00
007C00
007C00
007C00
007C00
007C00
007C00
007C00
ENDCHAR
STARTCHAR 007A
ENCODING 122
SWIDTH 486 0
DWIDTH 27 0
BBX 25 39 1 0
BITMAP
FFFFFF80
FFFFFF80
FFFFFF80
FFFFFF80
00001F00
00001E00
00003E00
00007C00
00007C00
0000F800
0000F000
0001F000
0003E000
0003E000
0007C000
00078000
000F8000
001F0000
001F0000
003E0000
003C0000
007C0000
00F80000
00F80000
01F00000
01E00000
03E00000
07C00000
07C00000
0F800000
0F000000
1F000000
3E000000
3E000000
7C000000
7FFFFF00
FFFFFF00
FFFFFF00
FFFFFF00
ENDCHAR
STARTCHAR 007B
ENCODING 123
SWIDTH 324 0
DWIDTH 18 0
BBX 13 53 3 -8
BITMAP
00F8
03F8
07F8
0780
0700
0F00
0F00
0F00
0F00
0F00
0F00
0F00
0F00
0F00
0F00
0F00
0F00
0F00
0F00
0F00
0F00
0E00
1E00
3E00
FC00
F800
F800
FC00
7C00
1E00
0E00
0F00
0F00
0F00
0F00
0F00
0F00
0F00
0F00
0F00
0F00
0F00
0F00
0F00
0F00
0F00
0F00
0F00
0700
07F8
03F8
01F8
0038
ENDCHAR
STARTCHAR 007C
ENCODING 124
SWIDTH 144 0
DWIDTH 8 0
BBX 3 45 3 -6
BITMAP
E0
E0
E0
E0
E0
E0
E0
E0
E0
E0
E0
E0
E0
E0
E0
E0
E0
E0
E0
E0
E0
E0
E0
E0
E0
E0
E0
E0
E0
E0
E0
E0
E0
E0
E0
E0
E0
E0
E0
E0
E0
E0
E0
E0
E0
ENDCHAR
STARTCHAR 007D
ENCODING 125
SWIDTH 324 0
DWIDTH 18 0
BBX 13 53 3 -8
BITMAP
F800
FC00
FE00
1F00
0700
0700
0700
0700
0700
0700
0700
0700
0700
0700
0700
0700
0700
0700
0700
0700
0780
0780
0380
03C0
01F8
01F8
00F8
01F8
03F0
03C0
0780
0780
0780
0700
0700
0700
0700
0700
0700
0700
0700
0700
0700
0700
0700
0700
0700
0700
0F00
FF00
FE00
FC00
E000
ENDCHAR
STARTCHAR 007E
ENCODING 126
SWIDTH 522 0
DWIDTH 29 0
BBX 24 6 3 15
BITMAP
1E0000
FFF000
FFFFFF
FFFFFF
807FFF
0003FC
ENDCHAR
STARTCHAR 00A1
ENCODING 161
SWIDTH 234 0
DWIDTH 13 0
BBX 8 39 3 -6
BITMAP
7C
FE
FE
FF
FE
FE
7C
00
00
00
00
00
00
00
3C
3C
3C
3C
3C
3C
3C
3C
3C
3C
3C
3C
3C
3C
3C
3C
3C
3C
3C
3C
3C
3C
3C
3C
3C
ENDCHAR
STARTCHAR 00A2
ENCODING 162
SWIDTH 504 0
DWIDTH 28 0
BBX 23 33 3 3
BITMAP
001C00
001C00
001C00
003E00
01FFE0
03FFF0
0FFFFC
1F9C7C
3E1C1C
3C1C08
781C00
781C00
F01C00
F01C00
F01C00
E01C00
E01C00
E01C00
F01C00
F01C00
F01C00
781C00
781C00
3C1C08
3E1C1C
1F9C7E
0FFFFC
07FFF0
01FFE0
003F00
001C00
001C00
001C00
ENDCHAR
STARTCHAR 00A3
ENCODING 163
SWIDTH 522 0
DWIDTH 29 0
BBX 23 39 3 0
BITMAP
001FFE
007FFE
01FFFE
03FFFE
07F002
0FC000
0F8000
0F0000
1F0000
1F0000
1E0000
1E0000
1E0000
1F0000
1F0000
0F0000
0F0000
0F8000
FFFFF8
FFFFF8
FFFFF8
03C000
03E000
01E000
01F000
01F000
00F000
00F000
00F000
00F000
01F000
01F000
03E000
07E000
1FC000
FFFFFE
FFFFFE
FFFFFE
FFFFFE
ENDCHAR
STARTCHAR 00A4
ENCODING 164
SWIDTH 540 0
DWIDTH 30 0
BBX 25 25 3 6
BITMAP
60000300
F03C0780
F9FFCF00
7FFFFE00
3FF7FC00
1F007800
1E003C00
3C001C00
3C001E00
38000E00
38000E00
78000E00
78000E00
78000E00
38000E00
38000E00
3C001E00
1E003C00
1F007C00
1FC1FC00
3FFFFE00
79FFDF00
F07F0F80
60000700
00000200
ENDCHAR
STARTCHAR 00A5
ENCODING 165
SWIDTH 612 0
DWIDTH 34 0
BBX 29 39 3 0
BITMAP
F80000F8
780001F0
7C0001F0
3C0003E0
3E0003C0
1F0007C0
1F000780
0F800F80
0F800F00
07C01F00
07C01E00
03E03E00
03E03C00
01F07C00
01F07800
00F8F800
00F8F000
007DF000
003DE000
003FE000
0FFFFF80
0FFFFF80
0FFFFF80
0FFFFF80
000F8000
000F8000
000F8000
0FFFFF80
0FFFFF80
0FFFFF80
0FFFFF80
000F8000
000F8000
000F8000
000F8000
000F8000
000F8000
000F8000
000F8000
ENDCHAR
STARTCHAR 00A6
ENCODING 166
SWIDTH 144 0
DWIDTH 8 0
BBX 3 45 3 -6
BITMAP
E0
E0
E0
E0
E0
E0
E0
E0
E0
E0
E0
E0
E0
E0
E0
E0
E0
00
00
00
00
00
00
00
00
00
00
00
E0
E0
E0
E0
E0
E0
E0
E0
E0
E0
E0
E0
E0
E0
E0
E0
E0
ENDCHAR
STARTCHAR 00A7
ENCODING 167
SWIDTH 450 0
DWIDTH 25 0
BBX 20 45 3 -6
BITMAP
03FC00
0FFF00
1FFF80
1F9FC0
3E07C0
3C03E0
3C01E0
3C01E0
3C0180
3E0000
1F0000
1F8000
0FE000
03F800
01FC00
07FF00
1FFF80
3FFFC0
7C07E0
7801E0
F001F0
F000F0
F000F0
F000F0
F801F0
7C01E0
7E07E0
3FFFC0
0FFF00
07FC00
01F800
00FE00
003F00
000F80
000780
0003C0
3803C0
7803C0
7803C0
7C03C0
3E07C0
3FFF80
1FFF80
0FFE00
03FC00
ENDCHAR
STARTCHAR 00A8
ENCODING 168
SWIDTH 342 0
DWIDTH 19 0
BBX 20 7 0 42
BITMAP
3C03C0
7E07E0
FF0FF0
FF0FF0
FF0FF0
7E07E0
3E07C0
ENDCHAR
STARTCHAR 00A9
ENCODING 169
SWIDTH 828 0
DWIDTH 46 0
BBX 41 41 3 -1
BITMAP
00003E000000
0007FFF00000
001FFFFC0000
007E007F0000
00F8000F8000
03E00003E000
07800000F000
0F0000007000
0E0000003800
1C0000001C00
3C00FF801C00
3801FFE00E00
7007FFF00E00
700F80F80700
700F00700700
E01E00000700
E01C00000380
E03C00000380
E03800000380
E03800000380
E03800000380
E03800000380
E03800000380
E03C00000380
E01C00000380
E01E00000700
700E00700700
700F80F80700
7007FFF00F00
3803FFE00E00
3C00FF801E00
1C0000001C00
0E0000003800
0F0000007800
07800000F000
03E00003E000
01F0000FC000
007E003F0000
001FFFFE0000
0007FFF00000
00007F800000
ENDCHAR
STARTCHAR 00AB
ENCODING 171
SWIDTH 504 0
DWIDTH 28 0
BBX 23 24 3 5
BITMAP
00783E
00F03C
01F078
01E0F0
03C1E0
0783E0
0F03C0
0F0780
1E0F00
3C1F00
781E00
783C00
F83C00
7C1E00
3C1F00
1E0F80
0F0780
0F83C0
0783E0
03C1F0
01E0F0
01F078
00F03C
00783E
ENDCHAR
STARTCHAR 00AC
ENCODING 172
SWIDTH 540 0
DWIDTH 30 0
BBX 25 14 3 6
BITMAP
FFFFFF80
FFFFFF80
FFFFFF80
00000780
00000780
00000780
00000780
00000780
00000780
00000780
00000780
00000780
00000780
00000780
ENDCHAR
STARTCHAR 00AE
ENCODING 174
SWIDTH 486 0
DWIDTH 27 0
BBX 22 21 3 19
BITMAP
01FC00
07FF00
0F03C0
1C00E0
300070
61FC30
61FE38
C18618
C18618
C18618
C3FC1C
C3FC1C
C18C18
C18618
618618
618630
300070
3800E0
1E01C0
07FF80
03FE00
ENDCHAR
STARTCHAR 00AF
ENCODING 175
SWIDTH 270 0
DWIDTH 15 0
BBX 16 4 0 44
BITMAP
FFFF
FFFF
FFFF
FFFF
ENDCHAR
STARTCHAR 00B0
ENCODING 176
SWIDTH 324 0
DWIDTH 18 0
BBX 12 12 3 27
BITMAP
1F80
3FE0
70E0
E070
E030
C030
C030
E070
7070
7FE0
3FC0
0F00
ENDCHAR
STARTCHAR 00B1
ENCODING 177
SWIDTH 540 0
DWIDTH 30 0
BBX 25 23 3 6
BITMAP
003C0000
003C0000
003C0000
003C0000
003C0000
003C0000
003C0000
FFFFFF80
FFFFFF80
FFFFFF80
003C0000
003C0000
003C0000
003C0000
003C0000
003C0000
003C0000
00000000
00000000
00000000
FFFFFF80
FFFFFF80
FFFFFF80
ENDCHAR
STARTCHAR 00B4
ENCODING 180
SWIDTH 144 0
DWIDTH 8 0
BBX 8 7 0 42
BITMAP
0F
1E
1C
38
78
70
E0
ENDCHAR
STARTCHAR 00B6
ENCODING 182
SWIDTH 450 0
DWIDTH 25 0
BBX 20 45 3 -6
BITMAP
01F870
07F870
1FF870
3FF870
3FF870
7FF870
7FF870
FFF870
FFF870
FFF870
FFF870
FFF870
FFF870
FFF870
7FF870
7FF870
3FF870
3FF870
1FF870
07F870
01F870
001870
001870
001870
001870
001870
001870
001870
001870
001870
001870
001870
001870
001870
001870
001870
001870
001870
001870
001870
001870
001870
001870
001870
001870
ENDCHAR
STARTCHAR 00B7
ENCODING 183
SWIDTH 234 0
DWIDTH 13 0
BBX 8 8 3 10
BITMAP
3C
7E
FE
FF
FF
FE
7C
10
ENDCHAR
STARTCHAR 00B8
ENCODING 184
SWIDTH 198 0
DWIDTH 11 0
BBX 12 12 0 -12
BITMAP
0300
0700
0780
07C0
00E0
0070
0070
6070
F060
7FE0
3FC0
0700
ENDCHAR
STARTCHAR 00BB
ENCODING 187
SWIDTH 504 0
DWIDTH 28 0
BBX 23 24 3 5
BITMAP
F83C00
781E00
3C1F00
1E0F00
1F0780
0F03C0
0783E0
03C1E0
03E0F0
01E078
00F07C
00783C
00783E
00F07C
01E078
01E0F0
03C1E0
0783E0
0F03C0
1F0780
1E0F00
3C1F00
781E00
F83C00
ENDCHAR
STARTCHAR 00BF
ENCODING 191
SWIDTH 414 0
DWIDTH 23 0
BBX 17 40 3 -6
BITMAP
00E000
01F800
03F800
03F800
03F800
03F800
01F000
004000
000000
000000
000000
000000
000000
00F000
00E000
00E000
00E000
01E000
01E000
01E000
03C000
03C000
078000
0F8000
1F0000
1E0000
3C0000
7C0000
780000
F00000
F00000
F00000
F00780
F00780
F00780
F80F00
7FFF00
3FFE00
1FFC00
07F000
ENDCHAR
STARTCHAR 00C0
ENCODING 192
SWIDTH 540 0
DWIDTH 30 0
BBX 27 49 3 0
BITMAP
03C00000
01E00000
00E00000
00F00000
00700000
00380000
001C0000
00000000
00000000
007C0000
03FF8000
0FFFC000
1FFFE000
3F83F000
3E00F800
7C007800
78007C00
F8003C00
F0003C00
F0003C00
F0003E00
F0001E00
F0001E00
F0001E00
F0001E00
F0001E00
F0001E00
F0001E00
F0001E00
F0001E00
F0001E00
F0001E00
F0001E00
F0001E00
F0001E00
F0001E00
F0001E00
F0001E00
F0001E00
F0001E00
F0001E00
F0001E00
F0001E00
F0001E00
F0001E00
FFFFFFE0
FFFFFFE0
FFFFFFE0
FFFFFFE0
ENDCHAR
STARTCHAR 00C1
ENCODING 193
SWIDTH 540 0
DWIDTH 30 0
BBX 27 49 3 0
BITMAP
00078000
000F0000
001E0000
001C0000
00380000
00780000
00700000
00000000
00000000
007C0000
03FF8000
0FFFC000
1FFFE000
3F83F000
3E00F800
7C007800
78007C00
F8003C00
F0003C00
F0003C00
F0003E00
F0001E00
F0001E00
F0001E00
F0001E00
F0001E00
F0001E00
F0001E00
F0001E00
F0001E00
F0001E00
F0001E00
F0001E00
F0001E00
F0001E00
F0001E00
F0001E00
F0001E00
F0001E00
F0001E00
F0001E00
F0001E00
F0001E00
F0001E00
F0001E00
FFFFFFE0
FFFFFFE0
FFFFFFE0
FFFFFFE0
ENDCHAR
STARTCHAR 00C2
ENCODING 194
SWIDTH 540 0
DWIDTH 30 0
BBX 27 50 3 0
BITMAP
007C0000
00FC0000
01FE0000
01CF0000
03C78000
0783C000
0F01C000
1E00E000
00000000
00000000
007C0000
03FF8000
0FFFC000
1FFFE000
3F83F000
3E00F800
7C007800
78007C00
F8003C00
F0003C00
F0003C00
F0003E00
F0001E00
F0001E00
F0001E00
F0001E00
F0001E00
F0001E00
F0001E00
F0001E00
F0001E00
F0001E00
F0001E00
F0001E00
F0001E00
F0001E00
F0001E00
F0001E00
F0001E00
F0001E00
F0001E00
F0001E00
F0001E00
F0001E00
F0001E00
F0001E00
FFFFFFE0
FFFFFFE0
FFFFFFE0
FFFFFFE0
ENDCHAR
STARTCHAR 00C3
ENCODING 195
SWIDTH 540 0
DWIDTH 30 0
BBX 27 49 3 0
BITMAP
07800000
0FFF8000
0FFF8000
083F8000
00000000
00000000
00000000
00000000
00000000
007C0000
03FF8000
0FFFC000
1FFFE000
3F83F000
3E00F800
7C007800
78007C00
F8003C00
F0003C00
F0003C00
F0003E00
F0001E00
F0001E00
F0001E00
F0001E00
F0001E00
F0001E00
F0001E00
F0001E00
F0001E00
F0001E00
F0001E00
F0001E00
F0001E00
F0001E00
F0001E00
F0001E00
F0001E00
F0001E00
F0001E00
F0001E00
F0001E00
F0001E00
F0001E00
F0001E00
FFFFFFE0
FFFFFFE0
FFFFFFE0
FFFFFFE0
ENDCHAR
STARTCHAR 00C4
ENCODING 196
SWIDTH 540 0
DWIDTH 30 0
BBX 27 49 3 0
BITMAP
1F01F000
3F83F800
3F83F800
3FC3F800
3F83F800
3F83F800
1F01F000
00000000
00000000
007C0000
03FF8000
0FFFC000
1FFFE000
3F83F000
3E00F800
7C007800
78007C00
F8003C00
F0003C00
F0003C00
F0003E00
F0001E00
F0001E00
F0001E00
F0001E00
F0001E00
F0001E00
F0001E00
F0001E00
F0001E00
F0001E00
F0001E00
F0001E00
F0001E00
F0001E00
F0001E00
F0001E00
F0001E00
F0001E00
F0001E00
F0001E00
F0001E00
F0001E00
F0001E00
F0001E00
FFFFFFE0
FFFFFFE0
FFFFFFE0
FFFFFFE0
ENDCHAR
STARTCHAR 00C5
ENCODING 197
SWIDTH 540 0
DWIDTH 30 0
BBX 27 53 3 0
BITMAP
00FC0000
01FE0000
03CF0000
03830000
03038000
03038000
03038000
03870000
01FF0000
00FE0000
00380000
00000000
00000000
007C0000
03FF8000
0FFFC000
1FFFE000
3F83F000
3E00F800
7C007800
78007C00
F8003C00
F0003C00
F0003C00
F0003E00
F0001E00
F0001E00
F0001E00
F0001E00
F0001E00
F0001E00
F0001E00
F0001E00
F0001E00
F0001E00
F0001E00
F0001E00
F0001E00
F0001E00
F0001E00
F0001E00
F0001E00
F0001E00
F0001E00
F0001E00
F0001E00
F0001E00
F0001E00
F0001E00
FFFFFFE0
FFFFFFE0
FFFFFFE0
FFFFFFE0
ENDCHAR
STARTCHAR 00C7
ENCODING 199
SWIDTH 666 0
DWIDTH 37 0
BBX 35 52 2 -12
BITMAP
00003E0000
0007FFE000
001FFFFC00
007FFFFE00
01FF80FF80
03FC001FC0
07F0000FE0
0FC00003E0
0F800001C0
1F00000080
3E00000000
3C00000000
7C00000000
7800000000
7800000000
F800000000
F000000000
F000000000
F000000000
F000000000
F000000000
F000000000
F000000000
F000000000
F000000000
F800000000
7800000000
7800000000
7C00000000
3C00000000
3E00000000
1F00000080
0F800001C0
0FC00003E0
07E0000FE0
03F8001FC0
01FF00FF80
007FFFFE00
003FFFFC00
0007FFE000
00007E0000
0000700000
0000780000
00007E0000
00000E0000
0000070000
0000070000
0006070000
000F060000
0007FE0000
0003FC0000
0000F00000
ENDCHAR
STARTCHAR 00C8
ENCODING 200
SWIDTH 486 0
DWIDTH 27 0
BBX 26 49 1 0
BITMAP
03C00000
01E00000
00F00000
00700000
00380000
003C0000
001C0000
00000000
00000000
00000000
0FFFF000
0FFFF000
0FFFF000
0FFFF000
0F000000
0F000000
0F000000
0F000000
0F000000
0F000000
0F000000
0F000000
0F000000
0F000000
0F000000
0F000000
0F000000
FFFFFC00
FFFFFC00
FFFFFC00
FFFFFC00
0F000000
0F000000
0F000000
0F000000
0F000000
0F000000
0F000000
0F000000
0F000000
0F000000
0F000000
0F000000
0F000000
0F000000
0FFFFFC0
0FFFFFC0
0FFFFFC0
0FFFFFC0
ENDCHAR
STARTCHAR 00C9
ENCODING 201
SWIDTH 486 0
DWIDTH 27 0
BBX 26 49 1 0
BITMAP
00078000
00070000
000E0000
001E0000
001C0000
00380000
00700000
00000000
00000000
00000000
0FFFF000
0FFFF000
0FFFF000
0FFFF000
0F000000
0F000000
0F000000
0F000000
0F000000
0F000000
0F000000
0F000000
0F000000
0F000000
0F000000
0F000000
0F000000
FFFFFC00
FFFFFC00
FFFFFC00
FFFFFC00
0F000000
0F000000
0F000000
0F000000
0F000000
0F000000
0F000000
0F000000
0F000000
0F000000
0F000000
0F000000
0F000000
0F000000
0FFFFFC0
0FFFFFC0
0FFFFFC0
0FFFFFC0
ENDCHAR
STARTCHAR 00CA
ENCODING 202
SWIDTH 486 0
DWIDTH 27 0
BBX 26 50 1 0
BITMAP
003C0000
007E0000
00FF0000
01E78000
03C78000
0383C000
0701E000
0F00F000
00000000
00000000
00000000
0FFFF000
0FFFF000
0FFFF000
0FFFF000
0F000000
0F000000
0F000000
0F000000
0F000000
0F000000
0F000000
0F000000
0F000000
0F000000
0F000000
0F000000
0F000000
FFFFFC00
FFFFFC00
FFFFFC00
FFFFFC00
0F000000
0F000000
0F000000
0F000000
0F000000
0F000000
0F000000
0F000000
0F000000
0F000000
0F000000
0F000000
0F000000
0F000000
0FFFFFC0
0FFFFFC0
0FFFFFC0
0FFFFFC0
ENDCHAR
STARTCHAR 00CB
ENCODING 203
SWIDTH 486 0
DWIDTH 27 0
BBX 26 49 1 0
BITMAP
0F00F000
1F81F800
1FC3FC00
3FC3FC00
3FC3FC00
1FC1F800
0F80F000
00000000
00000000
00000000
0FFFF000
0FFFF000
0FFFF000
0FFFF000
0F000000
0F000000
0F000000
0F000000
0F000000
0F000000
0F000000
0F000000
0F000000
0F000000
0F000000
0F000000
0F000000
FFFFFC00
FFFFFC00
FFFFFC00
FFFFFC00
0F000000
0F000000
0F000000
0F000000
0F000000
0F000000
0F000000
0F000000
0F000000
0F000000
0F000000
0F000000
0F000000
0F000000
0FFFFFC0
0FFFFFC0
0FFFFFC0
0FFFFFC0
ENDCHAR
STARTCHAR 00CC
ENCODING 204
SWIDTH 162 0
DWIDTH 9 0
BBX 7 34 0 0
BITMAP
F0
70
78
38
1C
0E
0E
00
00
00
1E
1E
1E
1E
1E
1E
1E
1E
1E
1E
1E
1E
1E
1E
1E
1E
1E
1E
1E
1E
1E
1E
1E
1E
ENDCHAR
STARTCHAR 00CD
ENCODING 205
SWIDTH 162 0
DWIDTH 9 0
BBX 8 34 2 0
BITMAP
0F
0E
1C
3C
38
70
E0
00
00
00
78
78
78
78
78
78
78
78
78
78
78
78
78
78
78
78
78
78
78
78
78
78
78
78
ENDCHAR
STARTCHAR 00CE
ENCODING 206
SWIDTH 162 0
DWIDTH 9 0
BBX 16 35 -3 0
BITMAP
03C0
07E0
0FF0
1E78
3C38
383C
781E
F00F
0000
0000
0000
03C0
03C0
03C0
03C0
03C0
03C0
03C0
03C0
03C0
03C0
03C0
03C0
03C0
03C0
03C0
03C0
03C0
03C0
03C0
03C0
03C0
03C0
03C0
03C0
ENDCHAR
STARTCHAR 00CF
ENCODING 207
SWIDTH 162 0
DWIDTH 9 0
BBX 20 34 -5 0
BITMAP
3E03C0
7F07E0
7F0FF0
FF0FF0
7F0FF0
7F07E0
3E03E0
000000
000000
000000
00F000
00F000
00F000
00F000
00F000
00F000
00F000
00F000
00F000
00F000
00F000
00F000
00F000
00F000
00F000
00F000
00F000
00F000
00F000
00F000
00F000
00F000
00F000
00F000
ENDCHAR
STARTCHAR 00D1
ENCODING 209
SWIDTH 486 0
DWIDTH 27 0
BBX 24 49 1 0
BITMAP
01E000
07FFE0
07FFE0
040FE0
000000
000000
000000
000000
000000
200000
70000F
F8000F
FE000F
7F000F
3F800F
3FC00F
3FF00F
3DF80F
3CFC0F
3C7F0F
3C3F8F
3C0FCF
3C07EF
3C03FF
3C00FF
3C007F
3C003F
3C001F
3C000F
3C000F
3C000F
3C000F
3C000F
3C000F
3C000F
3C000F
3C000F
3C000F
3C000F
3C000F
3C000F
3C000F
3C000F
3C000F
3C000F
3C000F
3C000F
3C000F
3C000F
ENDCHAR
STARTCHAR 00D2
ENCODING 210
SWIDTH 810 0
DWIDTH 45 0
BBX 41 50 2 -1
BITMAP
0001E0000000
0000F0000000
000070000000
000038000000
00003C000000
00001C000000
00000E000000
000000000000
000000000000
00003E000000
0007FFF00000
001FFFFC0000
007FFFFF0000
00FF80FFC000
03FC001FE000
07F00007F000
0FC00001F800
0F800000F800
1F0000007C00
3E0000003E00
3E0000001E00
7C0000001F00
780000000F00
780000000F00
F80000000F80
F00000000780
F00000000780
F00000000780
F00000000780
F00000000780
F00000000780
F00000000780
F00000000780
F00000000780
F80000000F80
780000000F00
780000000F00
7C0000001F00
3C0000001E00
3E0000003E00
1F0000007C00
0F800000FC00
0FC00001F800
07F00007F000
03F8000FE000
01FF80FFC000
007FFFFF0000
001FFFFC0000
0007FFF00000
00007F000000
ENDCHAR
STARTCHAR 00D3
ENCODING 211
SWIDTH 810 0
DWIDTH 45 0
BBX 41 50 2 -1
BITMAP
000003C00000
000007800000
000007000000
00000E000000
00001E000000
00001C000000
000038000000
000000000000
000000000000
00003E000000
0007FFF00000
001FFFFC0000
007FFFFF0000
00FF80FFC000
03FC001FE000
07F00007F000
0FC00001F800
0F800000F800
1F0000007C00
3E0000003E00
3E0000001E00
7C0000001F00
780000000F00
780000000F00
F80000000F80
F00000000780
F00000000780
F00000000780
F00000000780
F00000000780
F00000000780
F00000000780
F00000000780
F00000000780
F80000000F80
780000000F00
780000000F00
7C0000001F00
3C0000001E00
3E0000003E00
1F0000007C00
0F800000FC00
0FC00001F800
07F00007F000
03F8000FE000
01FF80FFC000
007FFFFF0000
001FFFFC0000
0007FFF00000
00007F000000
ENDCHAR
STARTCHAR 00D4
ENCODING 212
SWIDTH 810 0
DWIDTH 45 0
BBX 41 51 2 -1
BITMAP
00003E000000
00007F000000
00007F000000
0000F7800000
0001E3C00000
0003C1E00000
000780F00000
000700700000
000000000000
000000000000
00003E000000
0007FFF00000
001FFFFC0000
007FFFFF0000
00FF80FFC000
03FC001FE000
07F00007F000
0FC00001F800
0F800000F800
1F0000007C00
3E0000003E00
3E0000001E00
7C0000001F00
780000000F00
780000000F00
F80000000F80
F00000000780
F00000000780
F00000000780
F00000000780
F00000000780
F00000000780
F00000000780
F00000000780
F00000000780
F80000000F80
780000000F00
780000000F00
7C0000001F00
3C0000001E00
3E0000003E00
1F0000007C00
0F800000FC00
0FC00001F800
07F00007F000
03F8000FE000
01FF80FFC000
007FFFFF0000
001FFFFC0000
0007FFF00000
00007F000000
ENDCHAR
STARTCHAR 00D5
ENCODING 213
SWIDTH 810 0
DWIDTH 45 0
BBX 41 50 2 -1
BITMAP
0001E0000000
0007FFC00000
0007FFC00000
00041FC00000
000000000000
000000000000
000000000000
000000000000
000000000000
00003E000000
0007FFF00000
001FFFFC0000
007FFFFF0000
00FF80FFC000
03FC001FE000
07F00007F000
0FC00001F800
0F800000F800
1F0000007C00
3E0000003E00
3E0000001E00
7C0000001F00
780000000F00
780000000F00
F80000000F80
F00000000780
F00000000780
F00000000780
F00000000780
F00000000780
F00000000780
F00000000780
F00000000780
F00000000780
F80000000F80
780000000F00
780000000F00
7C0000001F00
3C0000001E00
3E0000003E00
1F0000007C00
0F800000FC00
0FC00001F800
07F00007F000
03F8000FE000
01FF80FFC000
007FFFFF0000
001FFFFC0000
0007FFF00000
00007F000000
ENDCHAR
STARTCHAR 00D6
ENCODING 214
SWIDTH 810 0
DWIDTH 45 0
BBX 41 50 2 -1
BITMAP
000780F80000
000FC1FC0000
001FE1FC0000
001FE1FE0000
001FE1FC0000
000FC1FC0000
000FC0F80000
000000000000
000000000000
00003E000000
0007FFF00000
001FFFFC0000
007FFFFF0000
00FF80FFC000
03FC001FE000
07F00007F000
0FC00001F800
0F800000F800
1F0000007C00
3E0000003E00
3E0000001E00
7C0000001F00
780000000F00
780000000F00
F80000000F80
F00000000780
F00000000780
F00000000780
F00000000780
F00000000780
F00000000780
F00000000780
F00000000780
F00000000780
F80000000F80
780000000F00
780000000F00
7C0000001F00
3C0000001E00
3E0000003E00
1F0000007C00
0F800000FC00
0FC00001F800
07F00007F000
03F8000FE000
01FF80FFC000
007FFFFF0000
001FFFFC0000
0007FFF00000
00007F000000
ENDCHAR
STARTCHAR 00D7
ENCODING 215
SWIDTH 504 0
DWIDTH 28 0
BBX 22 22 3 7
BITMAP
200010
700038
F8007C
7C0078
3E00F0
1F01E0
0F83C0
07C780
03EF00
01FE00
00FC00
007C00
00FE00
01FF00
03CF80
0787C0
0F03E0
1E01F0
3C00F8
78007C
F0003C
600018
ENDCHAR
STARTCHAR 00D8
ENCODING 216
SWIDTH 774 0
DWIDTH 43 0
BBX 42 42 1 -1
BITMAP
00003F000C00
0003FFF01E00
001FFFFE3C00
007FFFFFFC00
00FFC07FF800
01FC000FF000
03F00003F000
07E00003F800
0F800007FC00
1F80000F7E00
1F00001F3E00
3E00003E1F00
3C00007C0F00
7C0000780F80
780000F00F80
780001E00780
780003C00780
F800078007C0
F0000F8007C0
F0001F0003C0
F0001E0003C0
F0003C0003C0
F000780007C0
F800F00007C0
7801E0000780
7803E0000780
7807C0000780
7C0F80000F80
3C0F00000F00
3E1E00001F00
1F3C00003E00
1F7800007E00
0FF00000FC00
07F00001F800
03F00003F000
07FC000FE000
07FF807FC000
0F7FFFFF8000
1E1FFFFE0000
3C07FFF00000
18007F800000
080000000000
ENDCHAR
STARTCHAR 00D9
ENCODING 217
SWIDTH 486 0
DWIDTH 27 0
BBX 23 50 2 -1
BITMAP
03C000
01E000
00F000
007000
003800
003C00
001C00
000000
000000
000000
F8001E
F8001E
F8001E
F8001E
F8001E
F8001E
F8001E
F8001E
F8001E
F8001E
F8001E
F8001E
F8001E
F8001E
F8001E
F8001E
F8001E
F8001E
F8001E
F8001E
F8001E
F8001E
F8001E
F8001E
F8001E
F8001E
F8001E
F8001E
F8001E
78001E
78001E
78003E
7C003C
3C007C
3E00F8
1F83F8
0FFFF0
07FFE0
03FF80
007E00
ENDCHAR
STARTCHAR 00DA
ENCODING 218
SWIDTH 486 0
DWIDTH 27 0
BBX 23 50 2 -1
BITMAP
000780
000F00
000E00
001E00
001C00
003800
007000
000000
000000
000000
F8001E
F8001E
F8001E
F8001E
F8001E
F8001E
F8001E
F8001E
F8001E
F8001E
F8001E
F8001E
F8001E
F8001E
F8001E
F8001E
F8001E
F8001E
F8001E
F8001E
F8001E
F8001E
F8001E
F8001E
F8001E
F8001E
F8001E
F8001E
F8001E
78001E
78001E
78003E
7C003C
3C007C
3E00F8
1F83F8
0FFFF0
07FFE0
03FF80
007E00
ENDCHAR
STARTCHAR 00DB
ENCODING 219
SWIDTH 486 0
DWIDTH 27 0
BBX 23 51 2 -1
BITMAP
007C00
007E00
00FF00
01E780
03C780
0383C0
0701E0
0F00F0
000000
000000
000000
F8001E
F8001E
F8001E
F8001E
F8001E
F8001E
F8001E
F8001E
F8001E
F8001E
F8001E
F8001E
F8001E
F8001E
F8001E
F8001E
F8001E
F8001E
F8001E
F8001E
F8001E
F8001E
F8001E
F8001E
F8001E
F8001E
F8001E
F8001E
F8001E
78001E
78001E
78003E
7C003C
3C007C
3E00F8
1F83F8
0FFFF0
07FFE0
03FF80
007E00
ENDCHAR
STARTCHAR 00DC
ENCODING 220
SWIDTH 486 0
DWIDTH 27 0
BBX 23 50 2 -1
BITMAP
0F00F0
1F81F8
3FC3FC
3FC3FC
3FC3FC
1FC1F8
0F81F0
000000
000000
000000
F8001E
F8001E
F8001E
F8001E
F8001E
F8001E
F8001E
F8001E
F8001E
F8001E
F8001E
F8001E
F8001E
F8001E
F8001E
F8001E
F8001E
F8001E
F8001E
F8001E
F8001E
F8001E
F8001E
F8001E
F8001E
F8001E
F8001E
F8001E
F8001E
78001E
78001E
78003E
7C003C
3C007C
3E00F8
1F83F8
0FFFF0
07FFE0
03FF80
007E00
ENDCHAR
STARTCHAR 00DD
ENCODING 221
SWIDTH 486 0
DWIDTH 27 0
BBX 23 49 2 0
BITMAP
000780
000F00
001E00
001C00
003800
003800
007000
000000
000000
000000
F0001E
F0001E
F0001E
F0001E
F0001E
F0001E
F0001E
F0001E
F0001E
F0001E
F0001E
F0001E
F0001E
F0001E
F0001E
F0001E
F0001E
F0001E
F0001E
F0001E
F8003E
78003C
7C003C
7C007C
3E00F8
1F83F0
0FFFF0
07FFC0
03FF80
007C00
007C00
007C00
007C00
007C00
007C00
007C00
007C00
007C00
007C00
ENDCHAR
STARTCHAR 00E0
ENCODING 224
SWIDTH 540 0
DWIDTH 30 0
BBX 27 49 3 0
BITMAP
03C00000
01E00000
00E00000
00F00000
00700000
00380000
001C0000
00000000
00000000
007C0000
03FF8000
0FFFC000
1FFFE000
3F83F000
3E00F800
7C007800
78007C00
F8003C00
F0003C00
F0003C00
F0003E00
F0001E00
F0001E00
F0001E00
F0001E00
F0001E00
F0001E00
F0001E00
F0001E00
F0001E00
F0001E00
F0001E00
F0001E00
F0001E00
F0001E00
F0001E00
F0001E00
F0001E00
F0001E00
F0001E00
F0001E00
F0001E00
F0001E00
F0001E00
F0001E00
FFFFFFE0
FFFFFFE0
FFFFFFE0
FFFFFFE0
ENDCHAR
STARTCHAR 00E1
ENCODING 225
SWIDTH 540 0
DWIDTH 30 0
BBX 27 49 3 0
BITMAP
00078000
000F0000
001E0000
001C0000
00380000
00780000
00700000
00000000
00000000
007C0000
03FF8000
0FFFC000
1FFFE000
3F83F000
3E00F800
7C007800
78007C00
F8003C00
F0003C00
F0003C00
F0003E00
F0001E00
F0001E00
F0001E00
F0001E00
F0001E00
F0001E00
F0001E00
F0001E00
F0001E00
F0001E00
F0001E00
F0001E00
F0001E00
F0001E00
F0001E00
F0001E00
F0001E00
F0001E00
F0001E00
F0001E00
F0001E00
F0001E00
F0001E00
F0001E00
FFFFFFE0
FFFFFFE0
FFFFFFE0
FFFFFFE0
ENDCHAR
STARTCHAR 00E2
ENCODING 226
SWIDTH 540 0
DWIDTH 30 0
BBX 27 50 3 0
BITMAP
007C0000
00FC0000
01FE0000
01CF0000
03C78000
0783C000
0F01C000
1E00E000
00000000
00000000
007C0000
03FF8000
0FFFC000
1FFFE000
3F83F000
3E00F800
7C007800
78007C00
F8003C00
F0003C00
F0003C00
F0003E00
F0001E00
F0001E00
F0001E00
F0001E00
F0001E00
F0001E00
F0001E00
F0001E00
F0001E00
F0001E00
F0001E00
F0001E00
F0001E00
F0001E00
F0001E00
F0001E00
F0001E00
F0001E00
F0001E00
F0001E00
F0001E00
F0001E00
F0001E00
F0001E00
FFFFFFE0
FFFFFFE0
FFFFFFE0
FFFFFFE0
ENDCHAR
STARTCHAR 00E3
ENCODING 227
SWIDTH 540 0
DWIDTH 30 0
BBX 27 49 3 0
BITMAP
07800000
0FFF8000
0FFF8000
083F8000
00000000
00000000
00000000
00000000
00000000
007C0000
03FF8000
0FFFC000
1FFFE000
3F83F000
3E00F800
7C007800
78007C00
F8003C00
F0003C00
F0003C00
F0003E00
F0001E00
F0001E00
F0001E00
F0001E00
F0001E00
F0001E00
F0001E00
F0001E00
F0001E00
F0001E00
F0001E00
F0001E00
F0001E00
F0001E00
F0001E00
F0001E00
F0001E00
F0001E00
F0001E00
F0001E00
F0001E00
F0001E00
F0001E00
F0001E00
FFFFFFE0
FFFFFFE0
FFFFFFE0
FFFFFFE0
ENDCHAR
STARTCHAR 00E4
ENCODING 228
SWIDTH 540 0
DWIDTH 30 0
BBX 27 49 3 0
BITMAP
1F01F000
3F83F800
3F83F800
3FC3F800
3F83F800
3F83F800
1F01F000
00000000
00000000
007C0000
03FF8000
0FFFC000
1FFFE000
3F83F000
3E00F800
7C007800
78007C00
F8003C00
F0003C00
F0003C00
F0003E00
F0001E00
F0001E00
F0001E00
F0001E00
F0001E00
F0001E00
F0001E00
F0001E00
F0001E00
F0001E00
F0001E00
F0001E00
F0001E00
F0001E00
F0001E00
F0001E00
F0001E00
F0001E00
F0001E00
F0001E00
F0001E00
F0001E00
F0001E00
F0001E00
FFFFFFE0
FFFFFFE0
FFFFFFE0
FFFFFFE0
ENDCHAR
STARTCHAR 00E5
ENCODING 229
SWIDTH 540 0
DWIDTH 30 0
BBX 27 53 3 0
BITMAP
00FC0000
01FE0000
03CF0000
03830000
03038000
03038000
03038000
03870000
01FF0000
00FE0000
00380000
00000000
00000000
007C0000
03FF8000
0FFFC000
1FFFE000
3F83F000
3E00F800
7C007800
78007C00
F8003C00
F0003C00
F0003C00
F0003E00
F0001E00
F0001E00
F0001E00
F0001E00
F0001E00
F0001E00
F0001E00
F0001E00
F0001E00
F0001E00
F0001E00
F0001E00
F0001E00
F0001E00
F0001E00
F0001E00
F0001E00
F0001E00
F0001E00
F0001E00
F0001E00
F0001E00
F0001E00
F0001E00
FFFFFFE0
FFFFFFE0
FFFFFFE0
FFFFFFE0
ENDCHAR
STARTCHAR 00E7
ENCODING 231
SWIDTH 666 0
DWIDTH 37 0
BBX 35 52 2 -12
BITMAP
00003E0000
0007FFE000
001FFFFC00
007FFFFE00
01FF80FF80
03FC001FC0
07F0000FE0
0FC00003E0
0F800001C0
1F00000080
3E00000000
3C00000000
7C00000000
7800000000
7800000000
F800000000
F000000000
F000000000
F000000000
F000000000
F000000000
F000000000
F000000000
F000000000
F000000000
F800000000
7800000000
7800000000
7C00000000
3C00000000
3E00000000
1F00000080
0F800001C0
0FC00003E0
07E0000FE0
03F8001FC0
01FF00FF80
007FFFFE00
003FFFFC00
0007FFE000
00007E0000
0000700000
0000780000
00007E0000
00000E0000
0000070000
0000070000
0006070000
000F060000
0007FE0000
0003FC0000
0000F00000
ENDCHAR
STARTCHAR 00E8
ENCODING 232
SWIDTH 486 0
DWIDTH 27 0
BBX 26 49 1 0
BITMAP
03C00000
01E00000
00F00000
00700000
00380000
003C0000
001C0000
00000000
00000000
00000000
0FFFF000
0FFFF000
0FFFF000
0FFFF000
0F000000
0F000000
0F000000
0F000000
0F000000
0F000000
0F000000
0F000000
0F000000
0F000000
0F000000
0F000000
0F000000
FFFFFC00
FFFFFC00
FFFFFC00
FFFFFC00
0F000000
0F000000
0F000000
0F000000
0F000000
0F000000
0F000000
0F000000
0F000000
0F000000
0F000000
0F000000
0F000000
0F000000
0FFFFFC0
0FFFFFC0
0FFFFFC0
0FFFFFC0
ENDCHAR
STARTCHAR 00E9
ENCODING 233
SWIDTH 486 0
DWIDTH 27 0
BBX 26 49 1 0
BITMAP
00078000
00070000
000E0000
001E0000
001C0000
00380000
00700000
00000000
00000000
00000000
0FFFF000
0FFFF000
0FFFF000
0FFFF000
0F000000
0F000000
0F000000
0F000000
0F000000
0F000000
0F000000
0F000000
0F000000
0F000000
0F000000
0F000000
0F000000
FFFFFC00
FFFFFC00
FFFFFC00
FFFFFC00
0F000000
0F000000
0F000000
0F000000
0F000000
0F000000
0F000000
0F000000
0F000000
0F000000
0F000000
0F000000
0F000000
0F000000
0FFFFFC0
0FFFFFC0
0FFFFFC0
0FFFFFC0
ENDCHAR
STARTCHAR 00EA
ENCODING 234
SWIDTH 486 0
DWIDTH 27 0
BBX 26 50 1 0
BITMAP
003C0000
007E0000
00FF0000
01E78000
03C78000
0383C000
0701E000
0F00F000
00000000
00000000
00000000
0FFFF000
0FFFF000
0FFFF000
0FFFF000
0F000000
0F000000
0F000000
0F000000
0F000000
0F000000
0F000000
0F000000
0F000000
0F000000
0F000000
0F000000
0F000000
FFFFFC00
FFFFFC00
FFFFFC00
FFFFFC00
0F000000
0F000000
0F000000
0F000000
0F000000
0F000000
0F000000
0F000000
0F000000
0F000000
0F000000
0F000000
0F000000
0F000000
0FFFFFC0
0FFFFFC0
0FFFFFC0
0FFFFFC0
ENDCHAR
STARTCHAR 00EB
ENCODING 235
SWIDTH 486 0
DWIDTH 27 0
BBX 26 49 1 0
BITMAP
0F00F000
1F81F800
1FC3FC00
3FC3FC00
3FC3FC00
1FC1F800
0F80F000
00000000
00000000
00000000
0FFFF000
0FFFF000
0FFFF000
0FFFF000
0F000000
0F000000
0F000000
0F000000
0F000000
0F000000
0F000000
0F000000
0F000000
0F000000
0F000000
0F000000
0F000000
FFFFFC00
FFFFFC00
FFFFFC00
FFFFFC00
0F000000
0F000000
0F000000
0F000000
0F000000
0F000000
0F000000
0F000000
0F000000
0F000000
0F000000
0F000000
0F000000
0F000000
0FFFFFC0
0FFFFFC0
0FFFFFC0
0FFFFFC0
ENDCHAR
STARTCHAR 00EC
ENCODING 236
SWIDTH 162 0
DWIDTH 9 0
BBX 7 34 0 0
BITMAP
F0
70
78
38
1C
0E
0E
00
00
00
1E
1E
1E
1E
1E
1E
1E
1E
1E
1E
1E
1E
1E
1E
1E
1E
1E
1E
1E
1E
1E
1E
1E
1E
ENDCHAR
STARTCHAR 00ED
ENCODING 237
SWIDTH 162 0
DWIDTH 9 0
BBX 8 34 2 0
BITMAP
0F
0E
1C
3C
38
70
E0
00
00
00
78
78
78
78
78
78
78
78
78
78
78
78
78
78
78
78
78
78
78
78
78
78
78
78
ENDCHAR
STARTCHAR 00EE
ENCODING 238
SWIDTH 162 0
DWIDTH 9 0
BBX 16 35 -3 0
BITMAP
03C0
07E0
0FF0
1E78
3C38
383C
781E
F00F
0000
0000
0000
03C0
03C0
03C0
03C0
03C0
03C0
03C0
03C0
03C0
03C0
03C0
03C0
03C0
03C0
03C0
03C0
03C0
03C0
03C0
03C0
03C0
03C0
03C0
03C0
ENDCHAR
STARTCHAR 00EF
ENCODING 239
SWIDTH 162 0
DWIDTH 9 0
BBX 20 34 -5 0
BITMAP
3E03C0
7F07E0
7F0FF0
FF0FF0
7F0FF0
7F07E0
3E03E0
000000
000000
000000
00F000
00F000
00F000
00F000
00F000
00F000
00F000
00F000
00F000
00F000
00F000
00F000
00F000
00F000
00F000
00F000
00F000
00F000
00F000
00F000
00F000
00F000
00F000
00F000
ENDCHAR
STARTCHAR 00F1
ENCODING 241
SWIDTH 486 0
DWIDTH 27 0
BBX 24 49 1 0
BITMAP
01E000
07FFE0
07FFE0
040FE0
000000
000000
000000
000000
000000
200000
70000F
F8000F
FE000F
7F000F
3F800F
3FC00F
3FF00F
3DF80F
3CFC0F
3C7F0F
3C3F8F
3C0FCF
3C07EF
3C03FF
3C00FF
3C007F
3C003F
3C001F
3C000F
3C000F
3C000F
3C000F
3C000F
3C000F
3C000F
3C000F
3C000F
3C000F
3C000F
3C000F
3C000F
3C000F
3C000F
3C000F
3C000F
3C000F
3C000F
3C000F
3C000F
ENDCHAR
STARTCHAR 00F2
ENCODING 242
SWIDTH 810 0
DWIDTH 45 0
BBX 41 50 2 -1
BITMAP
0001E0000000
0000F0000000
000070000000
000038000000
00003C000000
00001C000000
00000E000000
000000000000
000000000000
00003E000000
0007FFF00000
001FFFFC0000
007FFFFF0000
00FF80FFC000
03FC001FE000
07F00007F000
0FC00001F800
0F800000F800
1F0000007C00
3E0000003E00
3E0000001E00
7C0000001F00
780000000F00
780000000F00
F80000000F80
F00000000780
F00000000780
F00000000780
F00000000780
F00000000780
F00000000780
F00000000780
F00000000780
F00000000780
F80000000F80
780000000F00
780000000F00
7C0000001F00
3C0000001E00
3E0000003E00
1F0000007C00
0F800000FC00
0FC00001F800
07F00007F000
03F8000FE000
01FF80FFC000
007FFFFF0000
001FFFFC0000
0007FFF00000
00007F000000
ENDCHAR
STARTCHAR 00F3
ENCODING 243
SWIDTH 810 0
DWIDTH 45 0
BBX 41 50 2 -1
BITMAP
000003C00000
000007800000
000007000000
00000E000000
00001E000000
00001C000000
000038000000
000000000000
000000000000
00003E000000
0007FFF00000
001FFFFC0000
007FFFFF0000
00FF80FFC000
03FC001FE000
07F00007F000
0FC00001F800
0F800000F800
1F0000007C00
3E0000003E00
3E0000001E00
7C0000001F00
780000000F00
780000000F00
F80000000F80
F00000000780
F00000000780
F00000000780
F00000000780
F00000000780
F00000000780
F00000000780
F00000000780
F00000000780
F80000000F80
780000000F00
780000000F00
7C0000001F00
3C0000001E00
3E0000003E00
1F0000007C00
0F800000FC00
0FC00001F800
07F00007F000
03F8000FE000
01FF80FFC000
007FFFFF0000
001FFFFC0000
0007FFF00000
00007F000000
ENDCHAR
STARTCHAR 00F4
ENCODING 244
SWIDTH 810 0
DWIDTH 45 0
BBX 41 51 2 -1
BITMAP
00003E000000
00007F000000
00007F000000
0000F7800000
0001E3C00000
0003C1E00000
000780F00000
000700700000
000000000000
000000000000
00003E000000
0007FFF00000
001FFFFC0000
007FFFFF0000
00FF80FFC000
03FC001FE000
07F00007F000
0FC00001F800
0F800000F800
1F0000007C00
3E0000003E00
3E0000001E00
7C0000001F00
780000000F00
780000000F00
F80000000F80
F00000000780
F00000000780
F00000000780
F00000000780
F00000000780
F00000000780
F00000000780
F00000000780
F00000000780
F80000000F80
780000000F00
780000000F00
7C0000001F00
3C0000001E00
3E0000003E00
1F0000007C00
0F800000FC00
0FC00001F800
07F00007F000
03F8000FE000
01FF80FFC000
007FFFFF0000
001FFFFC0000
0007FFF00000
00007F000000
ENDCHAR
STARTCHAR 00F5
ENCODING 245
SWIDTH 810 0
DWIDTH 45 0
BBX 41 50 2 -1
BITMAP
0001E0000000
0007FFC00000
0007FFC00000
00041FC00000
000000000000
000000000000
000000000000
000000000000
000000000000
00003E000000
0007FFF00000
001FFFFC0000
007FFFFF0000
00FF80FFC000
03FC001FE000
07F00007F000
0FC00001F800
0F800000F800
1F0000007C00
3E0000003E00
3E0000001E00
7C0000001F00
780000000F00
780000000F00
F80000000F80
F00000000780
F00000000780
F00000000780
F00000000780
F00000000780
F00000000780
F00000000780
F00000000780
F00000000780
F80000000F80
780000000F00
780000000F00
7C0000001F00
3C0000001E00
3E0000003E00
1F0000007C00
0F800000FC00
0FC00001F800
07F00007F000
03F8000FE000
01FF80FFC000
007FFFFF0000
001FFFFC0000
0007FFF00000
00007F000000
ENDCHAR
STARTCHAR 00F6
ENCODING 246
SWIDTH 810 0
DWIDTH 45 0
BBX 41 50 2 -1
BITMAP
000780F80000
000FC1FC0000
001FE1FC0000
001FE1FE0000
001FE1FC0000
000FC1FC0000
000FC0F80000
000000000000
000000000000
00003E000000
0007FFF00000
001FFFFC0000
007FFFFF0000
00FF80FFC000
03FC001FE000
07F00007F000
0FC00001F800
0F800000F800
1F0000007C00
3E0000003E00
3E0000001E00
7C0000001F00
780000000F00
780000000F00
F80000000F80
F00000000780
F00000000780
F00000000780
F00000000780
F00000000780
F00000000780
F00000000780
F00000000780
F00000000780
F80000000F80
780000000F00
780000000F00
7C0000001F00
3C0000001E00
3E0000003E00
1F0000007C00
0F800000FC00
0FC00001F800
07F00007F000
03F8000FE000
01FF80FFC000
007FFFFF0000
001FFFFC0000
0007FFF00000
00007F000000
ENDCHAR
STARTCHAR 00F7
ENCODING 247
SWIDTH 540 0
DWIDTH 30 0
BBX 25 24 3 6
BITMAP
00080000
003E0000
007E0000
007F0000
007F0000
007E0000
003C0000
00000000
00000000
00000000
FFFFFF80
FFFFFF80
FFFFFF80
FFFFFF80
00000000
00000000
00000000
001C0000
003E0000
007E0000
007F0000
007F0000
003E0000
001C0000
ENDCHAR
STARTCHAR 00F8
ENCODING 248
SWIDTH 774 0
DWIDTH 43 0
BBX 42 42 1 -1
BITMAP
00003F000C00
0003FFF01E00
001FFFFE3C00
007FFFFFFC00
00FFC07FF800
01FC000FF000
03F00003F000
07E00003F800
0F800007FC00
1F80000F7E00
1F00001F3E00
3E00003E1F00
3C00007C0F00
7C0000780F80
780000F00F80
780001E00780
780003C00780
F800078007C0
F0000F8007C0
F0001F0003C0
F0001E0003C0
F0003C0003C0
F000780007C0
F800F00007C0
7801E0000780
7803E0000780
7807C0000780
7C0F80000F80
3C0F00000F00
3E1E00001F00
1F3C00003E00
1F7800007E00
0FF00000FC00
07F00001F800
03F00003F000
07FC000FE000
07FF807FC000
0F7FFFFF8000
1E1FFFFE0000
3C07FFF00000
18007F800000
080000000000
ENDCHAR
STARTCHAR 00F9
ENCODING 249
SWIDTH 486 0
DWIDTH 27 0
BBX 23 50 2 -1
BITMAP
03C000
01E000
00F000
007000
003800
003C00
001C00
000000
000000
000000
F8001E
F8001E
F8001E
F8001E
F8001E
F8001E
F8001E
F8001E
F8001E
F8001E
F8001E
F8001E
F8001E
F8001E
F8001E
F8001E
F8001E
F8001E
F8001E
F8001E
F8001E
F8001E
F8001E
F8001E
F8001E
F8001E
F8001E
F8001E
F8001E
78001E
78001E
78003E
7C003C
3C007C
3E00F8
1F83F8
0FFFF0
07FFE0
03FF80
007E00
ENDCHAR
STARTCHAR 00FA
ENCODING 250
SWIDTH 486 0
DWIDTH 27 0
BBX 23 50 2 -1
BITMAP
000780
000F00
000E00
001E00
001C00
003800
007000
000000
000000
000000
F8001E
F8001E
F8001E
F8001E
F8001E
F8001E
F8001E
F8001E
F8001E
F8001E
F8001E
F8001E
F8001E
F8001E
F8001E
F8001E
F8001E
F8001E
F8001E
F8001E
F8001E
F8001E
F8001E
F8001E
F8001E
F8001E
F8001E
F8001E
F8001E
78001E
78001E
78003E
7C003C
3C007C
3E00F8
1F83F8
0FFFF0
07FFE0
03FF80
007E00
ENDCHAR
STARTCHAR 00FB
ENCODING 251
SWIDTH 486 0
DWIDTH 27 0
BBX 23 51 2 -1
BITMAP
007C00
007E00
00FF00
01E780
03C780
0383C0
0701E0
0F00F0
000000
000000
000000
F8001E
F8001E
F8001E
F8001E
F8001E
F8001E
F8001E
F8001E
F8001E
F8001E
F8001E
F8001E
F8001E
F8001E
F8001E
F8001E
F8001E
F8001E
F8001E
F8001E
F8001E
F8001E
F8001E
F8001E
F8001E
F8001E
F8001E
F8001E
F8001E
78001E
78001E
78003E
7C003C
3C007C
3E00F8
1F83F8
0FFFF0
07FFE0
03FF80
007E00
ENDCHAR
STARTCHAR 00FC
ENCODING 252
SWIDTH 486 0
DWIDTH 27 0
BBX 23 50 2 -1
BITMAP
0F00F0
1F81F8
3FC3FC
3FC3FC
3FC3FC
1FC1F8
0F81F0
000000
000000
000000
F8001E
F8001E
F8001E
F8001E
F8001E
F8001E
F8001E
F8001E
F8001E
F8001E
F8001E
F8001E
F8001E
F8001E
F8001E
F8001E
F8001E
F8001E
F8001E
F8001E
F8001E
F8001E
F8001E
F8001E
F8001E
F8001E
F8001E
F8001E
F8001E
78001E
78001E
78003E
7C003C
3C007C
3E00F8
1F83F8
0FFFF0
07FFE0
03FF80
007E00
ENDCHAR
STARTCHAR 00FD
ENCODING 253
SWIDTH 486 0
DWIDTH 27 0
BBX 23 49 2 0
BITMAP
000780
000F00
001E00
001C00
003800
003800
007000
000000
000000
000000
F0001E
F0001E
F0001E
F0001E
F0001E
F0001E
F0001E
F0001E
F0001E
F0001E
F0001E
F0001E
F0001E
F0001E
F0001E
F0001E
F0001E
F0001E
F0001E
F0001E
F8003E
78003C
7C003C
7C007C
3E00F8
1F83F0
0FFFF0
07FFC0
03FF80
007C00
007C00
007C00
007C00
007C00
007C00
007C00
007C00
007C00
007C00
ENDCHAR
STARTCHAR 00FF
ENCODING 255
SWIDTH 486 0
DWIDTH 27 0
BBX 23 49 2 0
BITMAP
0F01F0
1F83F8
3FC3F8
3FC3FC
3FC3F8
1F83F8
1F01F0
000000
000000
000000
F0001E
F0001E
F0001E
F0001E
F0001E
F0001E
F0001E
F0001E
F0001E
F0001E
F0001E
F0001E
F0001E
F0001E
F0001E
F0001E
F0001E
F0001E
F0001E
F0001E
F8003E
78003C
7C003C
7C007C
3E00F8
1F83F0
0FFFF0
07FFC0
03FF80
007C00
007C00
007C00
007C00
007C00
007C00
007C00
007C00
007C00
007C00
ENDCHAR
STARTCHAR 0100
ENCODING 256
SWIDTH 540 0
DWIDTH 30 0
BBX 27 48 3 0
BITMAP
1FFFE000
1FFFE000
1FFFE000
1FFFE000
00000000
00000000
00000000
00000000
007C0000
03FF8000
0FFFC000
1FFFE000
3F83F000
3E00F800
7C007800
78007C00
F8003C00
F0003C00
F0003C00
F0003E00
F0001E00
F0001E00
F0001E00
F0001E00
F0001E00
F0001E00
F0001E00
F0001E00
F0001E00
F0001E00
F0001E00
F0001E00
F0001E00
F0001E00
F0001E00
F0001E00
F0001E00
F0001E00
F0001E00
F0001E00
F0001E00
F0001E00
F0001E00
F0001E00
FFFFFFE0
FFFFFFE0
FFFFFFE0
FFFFFFE0
ENDCHAR
STARTCHAR 0101
ENCODING 257
SWIDTH 540 0
DWIDTH 30 0
BBX 27 48 3 0
BITMAP
1FFFE000
1FFFE000
1FFFE000
1FFFE000
00000000
00000000
00000000
00000000
007C0000
03FF8000
0FFFC000
1FFFE000
3F83F000
3E00F800
7C007800
78007C00
F8003C00
F0003C00
F0003C00
F0003E00
F0001E00
F0001E00
F0001E00
F0001E00
F0001E00
F0001E00
F0001E00
F0001E00
F0001E00
F0001E00
F0001E00
F0001E00
F0001E00
F0001E00
F0001E00
F0001E00
F0001E00
F0001E00
F0001E00
F0001E00
F0001E00
F0001E00
F0001E00
F0001E00
FFFFFFE0
FFFFFFE0
FFFFFFE0
FFFFFFE0
ENDCHAR
STARTCHAR 0102
ENCODING 258
SWIDTH 540 0
DWIDTH 30 0
BBX 27 50 3 0
BITMAP
0E00E000
0E00E000
0E01C000
0F01C000
07878000
03FF8000
01FE0000
00780000
00000000
00000000
007C0000
03FF8000
0FFFC000
1FFFE000
3F83F000
3E00F800
7C007800
78007C00
F8003C00
F0003C00
F0003C00
F0003E00
F0001E00
F0001E00
F0001E00
F0001E00
F0001E00
F0001E00
F0001E00
F0001E00
F0001E00
F0001E00
F0001E00
F0001E00
F0001E00
F0001E00
F0001E00
F0001E00
F0001E00
F0001E00
F0001E00
F0001E00
F0001E00
F0001E00
F0001E00
F0001E00
FFFFFFE0
FFFFFFE0
FFFFFFE0
FFFFFFE0
ENDCHAR
STARTCHAR 0103
ENCODING 259
SWIDTH 540 0
DWIDTH 30 0
BBX 27 50 3 0
BITMAP
0E00E000
0E00E000
0E01C000
0F01C000
07878000
03FF8000
01FE0000
00780000
00000000
00000000
007C0000
03FF8000
0FFFC000
1FFFE000
3F83F000
3E00F800
7C007800
78007C00
F8003C00
F0003C00
F0003C00
F0003E00
F0001E00
F0001E00
F0001E00
F0001E00
F0001E00
F0001E00
F0001E00
F0001E00
F0001E00
F0001E00
F0001E00
F0001E00
F0001E00
F0001E00
F0001E00
F0001E00
F0001E00
F0001E00
F0001E00
F0001E00
F0001E00
F0001E00
F0001E00
F0001E00
FFFFFFE0
FFFFFFE0
FFFFFFE0
FFFFFFE0
ENDCHAR
STARTCHAR 0104
ENCODING 260
SWIDTH 540 0
DWIDTH 30 0
BBX 29 50 3 -10
BITMAP
007C0000
03FF8000
0FFFC000
1FFFE000
3F83F000
3E00F800
7C007800
78007C00
F8003C00
F0003C00
F0003C00
F0003E00
F0001E00
F0001E00
F0001E00
F0001E00
F0001E00
F0001E00
F0001E00
F0001E00
F0001E00
F0001E00
F0001E00
F0001E00
F0001E00
F0001E00
F0001E00
F0001E00
F0001E00
F0001E00
F0001E00
F0001E00
F0001E00
F0001E00
F0001E00
F0001E00
FFFFFFE0
FFFFFFE0
FFFFFFE0
FFFFFFE0
00000780
00000E00
00001C00
00001800
00001800
00001800
00001C30
00001EF8
00000FF0
000003C0
ENDCHAR
STARTCHAR 0105
ENCODING 261
SWIDTH 540 0
DWIDTH 30 0
BBX 29 50 3 -10
BITMAP
007C0000
03FF8000
0FFFC000
1FFFE000
3F83F000
3E00F800
7C007800
78007C00
F8003C00
F0003C00
F0003C00
F0003E00
F0001E00
F0001E00
F0001E00
F0001E00
F0001E00
F0001E00
F0001E00
F0001E00
F0001E00
F0001E00
F0001E00
F0001E00
F0001E00
F0001E00
F0001E00
F0001E00
F0001E00
F0001E00
F0001E00
F0001E00
F0001E00
F0001E00
F0001E00
F0001E00
FFFFFFE0
FFFFFFE0
FFFFFFE0
FFFFFFE0
00000780
00000E00
00001C00
00001800
00001800
00001800
00001C30
00001EF8
00000FF0
000003C0
ENDCHAR
STARTCHAR 0106
ENCODING 262
SWIDTH 666 0
DWIDTH 37 0
BBX 35 50 2 -1
BITMAP
0000078000
0000070000
00000F0000
00000E0000
00001C0000
0000380000
0000380000
0000000000
0000000000
00003E0000
0007FFE000
001FFFFC00
007FFFFE00
01FF80FF80
03FC001FC0
07F0000FE0
0FC00003E0
0F800001C0
1F00000080
3E00000000
3C00000000
7C00000000
7800000000
7800000000
F800000000
F000000000
F000000000
F000000000
F000000000
F000000000
F000000000
F000000000
F000000000
F000000000
F800000000
7800000000
7800000000
7C00000000
3C00000000
3E00000000
1F00000080
0F800001C0
0FC00003E0
07E0000FE0
03F8001FC0
01FF00FF80
007FFFFE00
003FFFFC00
0007FFE000
00007E0000
ENDCHAR
STARTCHAR 0107
ENCODING 263
SWIDTH 666 0
DWIDTH 37 0
BBX 35 50 2 -1
BITMAP
0000078000
0000070000
00000F0000
00000E0000
00001C0000
0000380000
0000380000
0000000000
0000000000
00003E0000
0007FFE000
001FFFFC00
007FFFFE00
01FF80FF80
03FC001FC0
07F0000FE0
0FC00003E0
0F800001C0
1F00000080
3E00000000
3C00000000
7C00000000
7800000000
7800000000
F800000000
F000000000
F000000000
F000000000
F000000000
F000000000
F000000000
F000000000
F000000000
F000000000
F800000000
7800000000
7800000000
7C00000000
3C00000000
3E00000000
1F00000080
0F800001C0
0FC00003E0
07E0000FE0
03F8001FC0
01FF00FF80
007FFFFE00
003FFFFC00
0007FFE000
00007E0000
ENDCHAR
STARTCHAR 010A
ENCODING 266
SWIDTH 666 0
DWIDTH 37 0
BBX 35 52 2 -1
BITMAP
0000080000
00003E0000
00007F0000
00007F0000
00007F0000
00007F0000
00007E0000
00001C0000
0000000000
0000000000
0000000000
00003E0000
0007FFE000
001FFFFC00
007FFFFE00
01FF80FF80
03FC001FC0
07F0000FE0
0FC00003E0
0F800001C0
1F00000080
3E00000000
3C00000000
7C00000000
7800000000
7800000000
F800000000
F000000000
F000000000
F000000000
F000000000
F000000000
F000000000
F000000000
F000000000
F000000000
F800000000
7800000000
7800000000
7C00000000
3C00000000
3E00000000
1F00000080
0F800001C0
0FC00003E0
07E0000FE0
03F8001FC0
01FF00FF80
007FFFFE00
003FFFFC00
0007FFE000
00007E0000
ENDCHAR
STARTCHAR 010B
ENCODING 267
SWIDTH 666 0
DWIDTH 37 0
BBX 35 52 2 -1
BITMAP
0000080000
00003E0000
00007F0000
00007F0000
00007F0000
00007F0000
00007E0000
00001C0000
0000000000
0000000000
0000000000
00003E0000
0007FFE000
001FFFFC00
007FFFFE00
01FF80FF80
03FC001FC0
07F0000FE0
0FC00003E0
0F800001C0
1F00000080
3E00000000
3C00000000
7C00000000
7800000000
7800000000
F800000000
F000000000
F000000000
F000000000
F000000000
F000000000
F000000000
F000000000
F000000000
F000000000
F800000000
7800000000
7800000000
7C00000000
3C00000000
3E00000000
1F00000080
0F800001C0
0FC00003E0
07E0000FE0
03F8001FC0
01FF00FF80
007FFFFE00
003FFFFC00
0007FFE000
00007E0000
ENDCHAR
STARTCHAR 010C
ENCODING 268
SWIDTH 666 0
DWIDTH 37 0
BBX 35 51 2 -1
BITMAP
000700F000
000781E000
0003C3C000
0001E38000
0000F78000
00007F0000
00007E0000
0000000000
0000000000
0000000000
00003E0000
0007FFE000
001FFFFC00
007FFFFE00
01FF80FF80
03FC001FC0
07F0000FE0
0FC00003E0
0F800001C0
1F00000080
3E00000000
3C00000000
7C00000000
7800000000
7800000000
F800000000
F000000000
F000000000
F000000000
F000000000
F000000000
F000000000
F000000000
F000000000
F000000000
F800000000
7800000000
7800000000
7C00000000
3C00000000
3E00000000
1F00000080
0F800001C0
0FC00003E0
07E0000FE0
03F8001FC0
01FF00FF80
007FFFFE00
003FFFFC00
0007FFE000
00007E0000
ENDCHAR
STARTCHAR 010D
ENCODING 269
SWIDTH 666 0
DWIDTH 37 0
BBX 35 51 2 -1
BITMAP
000700F000
000781E000
0003C3C000
0001E38000
0000F78000
00007F0000
00007E0000
0000000000
0000000000
0000000000
00003E0000
0007FFE000
001FFFFC00
007FFFFE00
01FF80FF80
03FC001FC0
07F0000FE0
0FC00003E0
0F800001C0
1F00000080
3E00000000
3C00000000
7C00000000
7800000000
7800000000
F800000000
F000000000
F000000000
F000000000
F000000000
F000000000
F000000000
F000000000
F000000000
F000000000
F800000000
7800000000
7800000000
7C00000000
3C00000000
3E00000000
1F00000080
0F800001C0
0FC00003E0
07E0000FE0
03F8001FC0
01FF00FF80
007FFFFE00
003FFFFC00
0007FFE000
00007E0000
ENDCHAR
STARTCHAR 010E
ENCODING 270
SWIDTH 630 0
DWIDTH 35 0
BBX 31 50 3 0
BITMAP
0F00E000
0781E000
03C3C000
01E78000
01EF0000
00FE0000
007E0000
00000000
00000000
00000000
00000000
FFFC0000
FFFFC000
FFFFF800
FFFFFC00
F001FF00
F0003F80
F0000FC0
F00007E0
F00003E0
F00001F0
F00000F8
F00000F8
F0000078
F000007C
F000003C
F000003C
F000003C
F000003C
F000003C
F000003E
F000003C
F000003C
F000003C
F000003C
F000003C
F000007C
F0000078
F0000078
F00000F8
F00001F0
F00003F0
F00007E0
F0000FC0
F0003F80
F001FF00
FFFFFE00
FFFFF800
FFFFE000
FFFE0000
ENDCHAR
STARTCHAR 010F
ENCODING 271
SWIDTH 630 0
DWIDTH 35 0
BBX 31 50 3 0
BITMAP
0F00E000
0781E000
03C3C000
01E78000
01EF0000
00FE0000
007E0000
00000000
00000000
00000000
00000000
FFFC0000
FFFFC000
FFFFF800
FFFFFC00
F001FF00
F0003F80
F0000FC0
F00007E0
F00003E0
F00001F0
F00000F8
F00000F8
F0000078
F000007C
F000003C
F000003C
F000003C
F000003C
F000003C
F000003E
F000003C
F000003C
F000003C
F000003C
F000003C
F000007C
F0000078
F0000078
F00000F8
F00001F0
F00003F0
F00007E0
F0000FC0
F0003F80
F001FF00
FFFFFE00
FFFFF800
FFFFE000
FFFE0000
ENDCHAR
STARTCHAR 0110
ENCODING 272
SWIDTH 666 0
DWIDTH 37 0
BBX 35 39 1 0
BITMAP
0FFFC00000
0FFFFC0000
0FFFFF8000
0FFFFFE000
0F001FF000
0F0003F800
0F0000FC00
0F00007E00
0F00003F00
0F00001F00
0F00000F80
0F00000780
0F000007C0
0F000003C0
0F000003C0
0F000003C0
0F000003E0
FFFFE003E0
FFFFE001E0
FFFFE001E0
FFFFE001E0
0F000003E0
0F000003E0
0F000003C0
0F000003C0
0F000003C0
0F000007C0
0F00000780
0F00000F80
0F00001F00
0F00001F00
0F00007E00
0F0000FC00
0F0003F800
0F001FF000
0FFFFFE000
0FFFFF8000
0FFFFE0000
0FFFE00000
ENDCHAR
STARTCHAR 0111
ENCODING 273
SWIDTH 666 0
DWIDTH 37 0
BBX 35 39 1 0
BITMAP
0FFFC00000
0FFFFC0000
0FFFFF8000
0FFFFFE000
0F001FF000
0F0003F800
0F0000FC00
0F00007E00
0F00003F00
0F00001F00
0F00000F80
0F00000780
0F000007C0
0F000003C0
0F000003C0
0F000003C0
0F000003E0
FFFFE003E0
FFFFE001E0
FFFFE001E0
FFFFE001E0
0F000003E0
0F000003E0
0F000003C0
0F000003C0
0F000003C0
0F000007C0
0F00000780
0F00000F80
0F00001F00
0F00001F00
0F00007E00
0F0000FC00
0F0003F800
0F001FF000
0FFFFFE000
0FFFFF8000
0FFFFE0000
0FFFE00000
ENDCHAR
STARTCHAR 0112
ENCODING 274
SWIDTH 486 0
DWIDTH 27 0
BBX 26 48 1 0
BITMAP
0FFFF000
0FFFF000
0FFFF000
0FFFF000
00000000
00000000
00000000
00000000
00000000
0FFFF000
0FFFF000
0FFFF000
0FFFF000
0F000000
0F000000
0F000000
0F000000
0F000000
0F000000
0F000000
0F000000
0F000000
0F000000
0F000000
0F000000
0F000000
FFFFFC00
FFFFFC00
FFFFFC00
FFFFFC00
0F000000
0F000000
0F000000
0F000000
0F000000
0F000000
0F000000
0F000000
0F000000
0F000000
0F000000
0F000000
0F000000
0F000000
0FFFFFC0
0FFFFFC0
0FFFFFC0
0FFFFFC0
ENDCHAR
STARTCHAR 0113
ENCODING 275
SWIDTH 486 0
DWIDTH 27 0
BBX 26 48 1 0
BITMAP
0FFFF000
0FFFF000
0FFFF000
0FFFF000
00000000
00000000
00000000
00000000
00000000
0FFFF000
0FFFF000
0FFFF000
0FFFF000
0F000000
0F000000
0F000000
0F000000
0F000000
0F000000
0F000000
0F000000
0F000000
0F000000
0F000000
0F000000
0F000000
FFFFFC00
FFFFFC00
FFFFFC00
FFFFFC00
0F000000
0F000000
0F000000
0F000000
0F000000
0F000000
0F000000
0F000000
0F000000
0F000000
0F000000
0F000000
0F000000
0F000000
0FFFFFC0
0FFFFFC0
0FFFFFC0
0FFFFFC0
ENDCHAR
STARTCHAR 0116
ENCODING 278
SWIDTH 486 0
DWIDTH 27 0
BBX 26 51 1 0
BITMAP
00180000
007E0000
007F0000
00FF0000
00FF0000
007F0000
007E0000
003C0000
00000000
00000000
00000000
00000000
0FFFF000
0FFFF000
0FFFF000
0FFFF000
0F000000
0F000000
0F000000
0F000000
0F000000
0F000000
0F000000
0F000000
0F000000
0F000000
0F000000
0F000000
0F000000
FFFFFC00
FFFFFC00
FFFFFC00
FFFFFC00
0F000000
0F000000
0F000000
0F000000
0F000000
0F000000
0F000000
0F000000
0F000000
0F000000
0F000000
0F000000
0F000000
0F000000
0FFFFFC0
0FFFFFC0
0FFFFFC0
0FFFFFC0
ENDCHAR
STARTCHAR 0117
ENCODING 279
SWIDTH 486 0
DWIDTH 27 0
BBX 26 51 1 0
BITMAP
00180000
007E0000
007F0000
00FF0000
00FF0000
007F0000
007E0000
003C0000
00000000
00000000
00000000
00000000
0FFFF000
0FFFF000
0FFFF000
0FFFF000
0F000000
0F000000
0F000000
0F000000
0F000000
0F000000
0F000000
0F000000
0F000000
0F000000
0F000000
0F000000
0F000000
FFFFFC00
FFFFFC00
FFFFFC00
FFFFFC00
0F000000
0F000000
0F000000
0F000000
0F000000
0F000000
0F000000
0F000000
0F000000
0F000000
0F000000
0F000000
0F000000
0F000000
0FFFFFC0
0FFFFFC0
0FFFFFC0
0FFFFFC0
ENDCHAR
STARTCHAR 0118
ENCODING 280
SWIDTH 486 0
DWIDTH 27 0
BBX 28 49 1 -10
BITMAP
0FFFF000
0FFFF000
0FFFF000
0FFFF000
0F000000
0F000000
0F000000
0F000000
0F000000
0F000000
0F000000
0F000000
0F000000
0F000000
0F000000
0F000000
0F000000
FFFFFC00
FFFFFC00
FFFFFC00
FFFFFC00
0F000000
0F000000
0F000000
0F000000
0F000000
0F000000
0F000000
0F000000
0F000000
0F000000
0F000000
0F000000
0F000000
0F000000
0FFFFFC0
0FFFFFC0
0FFFFFC0
0FFFFFC0
00000700
00001C00
00001800
00003800
00003000
00003000
00003820
00003CF0
00001FE0
00000780
ENDCHAR
STARTCHAR 0119
ENCODING 281
SWIDTH 486 0
DWIDTH 27 0
BBX 28 49 1 -10
BITMAP
0FFFF000
0FFFF000
0FFFF000
0FFFF000
0F000000
0F000000
0F000000
0F000000
0F000000
0F000000
0F000000
0F000000
0F000000
0F000000
0F000000
0F000000
0F000000
FFFFFC00
FFFFFC00
FFFFFC00
FFFFFC00
0F000000
0F000000
0F000000
0F000000
0F000000
0F000000
0F000000
0F000000
0F000000
0F000000
0F000000
0F000000
0F000000
0F000000
0FFFFFC0
0FFFFFC0
0FFFFFC0
0FFFFFC0
00000700
00001C00
00001800
00003800
00003000
00003000
00003820
00003CF0
00001FE0
00000780
ENDCHAR
STARTCHAR 011A
ENCODING 282
SWIDTH 486 0
DWIDTH 27 0
BBX 26 50 1 0
BITMAP
0F00F000
0781E000
03C3C000
01E78000
01EF0000
00FE0000
007E0000
00000000
00000000
00000000
00000000
0FFFF000
0FFFF000
0FFFF000
0FFFF000
0F000000
0F000000
0F000000
0F000000
0F000000
0F000000
0F000000
0F000000
0F000000
0F000000
0F000000
0F000000
0F000000
FFFFFC00
FFFFFC00
FFFFFC00
FFFFFC00
0F000000
0F000000
0F000000
0F000000
0F000000
0F000000
0F000000
0F000000
0F000000
0F000000
0F000000
0F000000
0F000000
0F000000
0FFFFFC0
0FFFFFC0
0FFFFFC0
0FFFFFC0
ENDCHAR
STARTCHAR 011B
ENCODING 283
SWIDTH 486 0
DWIDTH 27 0
BBX 26 50 1 0
BITMAP
0F00F000
0781E000
03C3C000
01E78000
01EF0000
00FE0000
007E0000
00000000
00000000
00000000
00000000
0FFFF000
0FFFF000
0FFFF000
0FFFF000
0F000000
0F000000
0F000000
0F000000
0F000000
0F000000
0F000000
0F000000
0F000000
0F000000
0F000000
0F000000
0F000000
FFFFFC00
FFFFFC00
FFFFFC00
FFFFFC00
0F000000
0F000000
0F000000
0F000000
0F000000
0F000000
0F000000
0F000000
0F000000
0F000000
0F000000
0F000000
0F000000
0F000000
0FFFFFC0
0FFFFFC0
0FFFFFC0
0FFFFFC0
ENDCHAR
STARTCHAR 011E
ENCODING 286
SWIDTH 828 0
DWIDTH 46 0
BBX 44 51 2 -1
BITMAP
000700700000
000700700000
000700E00000
000780E00000
0003C3C00000
0001FFC00000
0000FF000000
00003C000000
000000000000
000000000000
00003F000000
0007FFF00000
001FFFFC0000
007FFFFE0000
00FF80FF8000
03FC001FC000
07F00007E000
0FC00003F000
0F800001C000
1F0000008000
3E0000000000
3E0000000000
7C0000000000
780000000000
780000000000
F80000000000
F00000000000
F00000000000
F0001FFFFFF0
F0001FFFFFF0
F0001FFFFFF0
F0001FFFFFF0
F00000000F00
F00000000F00
F00000000F00
F80000000F00
780000001F00
780000001E00
7C0000003E00
3C0000003E00
3E0000007C00
1F000000FC00
0F800001F800
0FC00003F000
07F00007E000
03F8001FC000
01FF80FF8000
007FFFFF0000
001FFFFC0000
0007FFF00000
00007F000000
ENDCHAR
STARTCHAR 011F
ENCODING 287
SWIDTH 828 0
DWIDTH 46 0
BBX 44 51 2 -1
BITMAP
000700700000
000700700000
000700E00000
000780E00000
0003C3C00000
0001FFC00000
0000FF000000
00003C000000
000000000000
000000000000
00003F000000
0007FFF00000
001FFFFC0000
007FFFFE0000
00FF80FF8000
03FC001FC000
07F00007E000
0FC00003F000
0F800001C000
1F0000008000
3E0000000000
3E0000000000
7C0000000000
780000000000
780000000000
F80000000000
F00000000000
F00000000000
F0001FFFFFF0
F0001FFFFFF0
F0001FFFFFF0
F0001FFFFFF0
F00000000F00
F00000000F00
F00000000F00
F80000000F00
780000001F00
780000001E00
7C0000003E00
3C0000003E00
3E0000007C00
1F000000FC00
0F800001F800
0FC00003F000
07F00007E000
03F8001FC000
01FF80FF8000
007FFFFF0000
001FFFFC0000
0007FFF00000
00007F000000
ENDCHAR
STARTCHAR 0120
ENCODING 288
SWIDTH 828 0
DWIDTH 46 0
BBX 44 52 2 -1
BITMAP
000008000000
00003E000000
00007F000000
00007F000000
00007F000000
00007F000000
00003F000000
00001C000000
000000000000
000000000000
000000000000
00003F000000
0007FFF00000
001FFFFC0000
007FFFFE0000
00FF80FF8000
03FC001FC000
07F00007E000
0FC00003F000
0F800001C000
1F0000008000
3E0000000000
3E0000000000
7C0000000000
780000000000
780000000000
F80000000000
F00000000000
F00000000000
F0001FFFFFF0
F0001FFFFFF0
F0001FFFFFF0
F0001FFFFFF0
F00000000F00
F00000000F00
F00000000F00
F80000000F00
780000001F00
780000001E00
7C0000003E00
3C0000003E00
3E0000007C00
1F000000FC00
0F800001F800
0FC00003F000
07F00007E000
03F8001FC000
01FF80FF8000
007FFFFF0000
001FFFFC0000
0007FFF00000
00007F000000
ENDCHAR
STARTCHAR 0121
ENCODING 289
SWIDTH 828 0
DWIDTH 46 0
BBX 44 52 2 -1
BITMAP
000008000000
00003E000000
00007F000000
00007F000000
00007F000000
00007F000000
00003F000000
00001C000000
000000000000
000000000000
000000000000
00003F000000
0007FFF00000
001FFFFC0000
007FFFFE0000
00FF80FF8000
03FC001FC000
07F00007E000
0FC00003F000
0F800001C000
1F0000008000
3E0000000000
3E0000000000
7C0000000000
780000000000
780000000000
F80000000000
F00000000000
F00000000000
F0001FFFFFF0
F0001FFFFFF0
F0001FFFFFF0
F0001FFFFFF0
F00000000F00
F00000000F00
F00000000F00
F80000000F00
780000001F00
780000001E00
7C0000003E00
3C0000003E00
3E0000007C00
1F000000FC00
0F800001F800
0FC00003F000
07F00007E000
03F8001FC000
01FF80FF8000
007FFFFF0000
001FFFFC0000
0007FFF00000
00007F000000
ENDCHAR
STARTCHAR 0124
ENCODING 292
SWIDTH 540 0
DWIDTH 30 0
BBX 27 50 1 0
BITMAP
0007C000
000FC000
001FE000
001EF000
003C7800
00783C00
00F01C00
01E00E00
00000000
00000000
00000000
0F0003E0
0F0003E0
0F0003E0
0F0003E0
0F0003E0
0F0003E0
0F0003E0
0F0003E0
0F0003E0
0F0003E0
0F0003E0
0F0003E0
0F0003E0
0F0003E0
0F0003E0
FFFFFFE0
FFFFFFE0
FFFFFFE0
FFFFFFE0
0F0003E0
0F0003E0
0F0003E0
0F0003E0
0F0003E0
0F0003E0
0F0003E0
0F0003E0
0F0003E0
0F0003E0
0F0003E0
0F0003E0
0F0003E0
0F0003E0
0F0003E0
0F0003E0
0F0003E0
0F0003E0
0F0003E0
0F0003E0
ENDCHAR
STARTCHAR 0125
ENCODING 293
SWIDTH 540 0
DWIDTH 30 0
BBX 27 50 1 0
BITMAP
0007C000
000FC000
001FE000
001EF000
003C7800
00783C00
00F01C00
01E00E00
00000000
00000000
00000000
0F0003E0
0F0003E0
0F0003E0
0F0003E0
0F0003E0
0F0003E0
0F0003E0
0F0003E0
0F0003E0
0F0003E0
0F0003E0
0F0003E0
0F0003E0
0F0003E0
0F0003E0
FFFFFFE0
FFFFFFE0
FFFFFFE0
FFFFFFE0
0F0003E0
0F0003E0
0F0003E0
0F0003E0
0F0003E0
0F0003E0
0F0003E0
0F0003E0
0F0003E0
0F0003E0
0F0003E0
0F0003E0
0F0003E0
0F0003E0
0F0003E0
0F0003E0
0F0003E0
0F0003E0
0F0003E0
0F0003E0
ENDCHAR
STARTCHAR 0128
ENCODING 296
SWIDTH 162 0
DWIDTH 9 0
BBX 14 34 -3 0
BITMAP
3C00
FFFC
FFFC
81FC
0000
0000
0000
0000
0000
0000
03C0
03C0
03C0
03C0
03C0
03C0
03C0
03C0
03C0
03C0
03C0
03C0
03C0
03C0
03C0
03C0
03C0
03C0
03C0
03C0
03C0
03C0
03C0
03C0
ENDCHAR
STARTCHAR 0129
ENCODING 297
SWIDTH 162 0
DWIDTH 9 0
BBX 14 34 -3 0
BITMAP
3C00
FFFC
FFFC
81FC
0000
0000
0000
0000
0000
0000
03C0
03C0
03C0
03C0
03C0
03C0
03C0
03C0
03C0
03C0
03C0
03C0
03C0
03C0
03C0
03C0
03C0
03C0
03C0
03C0
03C0
03C0
03C0
03C0
ENDCHAR
STARTCHAR 012A
ENCODING 298
SWIDTH 162 0
DWIDTH 9 0
BBX 16 33 -3 0
BITMAP
FFFF
FFFF
FFFF
FFFF
0000
0000
0000
0000
0000
03C0
03C0
03C0
03C0
03C0
03C0
03C0
03C0
03C0
03C0
03C0
03C0
03C0
03C0
03C0
03C0
03C0
03C0
03C0
03C0
03C0
03C0
03C0
03C0
ENDCHAR
STARTCHAR 012B
ENCODING 299
SWIDTH 162 0
DWIDTH 9 0
BBX 16 33 -3 0
BITMAP
FFFF
FFFF
FFFF
FFFF
0000
0000
0000
0000
0000
03C0
03C0
03C0
03C0
03C0
03C0
03C0
03C0
03C0
03C0
03C0
03C0
03C0
03C0
03C0
03C0
03C0
03C0
03C0
03C0
03C0
03C0
03C0
03C0
ENDCHAR
STARTCHAR 012E
ENCODING 302
SWIDTH 162 0
DWIDTH 9 0
BBX 13 53 -2 -9
BITMAP
0200
0200
0300
0700
FFF8
3FE0
1FC0
0F80
0FC0
1DC0
1840
2020
0000
0000
0000
0000
0000
0000
0000
0780
0780
0780
0780
0780
0780
0780
0780
0780
0780
0780
0780
0780
0780
0780
0780
0780
0780
0780
0780
0780
0780
0780
0780
1E00
3800
7000
6000
6000
6000
70C0
7BE0
3FC0
0F00
ENDCHAR
STARTCHAR 012F
ENCODING 303
SWIDTH 162 0
DWIDTH 9 0
BBX 13 53 -2 -9
BITMAP
0200
0200
0300
0700
FFF8
3FE0
1FC0
0F80
0FC0
1DC0
1840
2020
0000
0000
0000
0000
0000
0000
0000
0780
0780
0780
0780
0780
0780
0780
0780
0780
0780
0780
0780
0780
0780
0780
0780
0780
0780
0780
0780
0780
0780
0780
0780
1E00
3800
7000
6000
6000
6000
70C0
7BE0
3FC0
0F00
ENDCHAR
STARTCHAR 0130
ENCODING 304
SWIDTH 162 0
DWIDTH 9 0
BBX 8 36 1 0
BITMAP
18
7E
7F
FF
FF
7F
7E
1C
00
00
00
00
3C
3C
3C
3C
3C
3C
3C
3C
3C
3C
3C
3C
3C
3C
3C
3C
3C
3C
3C
3C
3C
3C
3C
3C
ENDCHAR
STARTCHAR 0139
ENCODING 313
SWIDTH 414 0
DWIDTH 23 0
BBX 20 49 2 0
BITMAP
0F0000
0E0000
1C0000
3C0000
380000
700000
E00000
000000
000000
000000
780000
780000
780000
780000
780000
780000
780000
780000
780000
780000
780000
780000
780000
780000
780000
780000
780000
780000
780000
780000
780000
780000
780000
780000
780000
780000
780000
780000
780000
780000
780000
780000
780000
780000
780000
7FFFF0
7FFFF0
7FFFF0
7FFFF0
ENDCHAR
STARTCHAR 013A
ENCODING 314
SWIDTH 414 0
DWIDTH 23 0
BBX 20 49 2 0
BITMAP
0F0000
0E0000
1C0000
3C0000
380000
700000
E00000
000000
000000
000000
780000
780000
780000
780000
780000
780000
780000
780000
780000
780000
780000
780000
780000
780000
780000
780000
780000
780000
780000
780000
780000
780000
780000
780000
780000
780000
780000
780000
780000
780000
780000
780000
780000
780000
780000
7FFFF0
7FFFF0
7FFFF0
7FFFF0
ENDCHAR
STARTCHAR 013D
ENCODING 317
SWIDTH 414 0
DWIDTH 23 0
BBX 25 50 -3 0
BITMAP
F00F0000
781E0000
3C3C0000
1E780000
0FF00000
0FF00000
07E00000
00000000
00000000
00000000
00000000
03C00000
03C00000
03C00000
03C00000
03C00000
03C00000
03C00000
03C00000
03C00000
03C00000
03C00000
03C00000
03C00000
03C00000
03C00000
03C00000
03C00000
03C00000
03C00000
03C00000
03C00000
03C00000
03C00000
03C00000
03C00000
03C00000
03C00000
03C00000
03C00000
03C00000
03C00000
03C00000
03C00000
03C00000
03C00000
03FFFF80
03FFFF80
03FFFF80
03FFFF80
ENDCHAR
STARTCHAR 013E
ENCODING 318
SWIDTH 414 0
DWIDTH 23 0
BBX 25 50 -3 0
BITMAP
F00F0000
781E0000
3C3C0000
1E780000
0FF00000
0FF00000
07E00000
00000000
00000000
00000000
00000000
03C00000
03C00000
03C00000
03C00000
03C00000
03C00000
03C00000
03C00000
03C00000
03C00000
03C00000
03C00000
03C00000
03C00000
03C00000
03C00000
03C00000
03C00000
03C00000
03C00000
03C00000
03C00000
03C00000
03C00000
03C00000
03C00000
03C00000
03C00000
03C00000
03C00000
03C00000
03C00000
03C00000
03C00000
03C00000
03FFFF80
03FFFF80
03FFFF80
03FFFF80
ENDCHAR
STARTCHAR 0141
ENCODING 321
SWIDTH 468 0
DWIDTH 26 0
BBX 24 39 1 0
BITMAP
0F8000
0F8000
0F8000
0F8000
0F8000
0F8000
0F8000
0F8000
0F8000
0F8000
0F8000
0F8000
0F8000
0F8000
0F8600
0F9E00
0FFF00
0FFC00
0FF000
0FC000
3F8000
FF8000
FF8000
EF8000
0F8000
0F8000
0F8000
0F8000
0F8000
0F8000
0F8000
0F8000
0F8000
0F8000
0F8000
0FFFFF
0FFFFF
0FFFFF
0FFFFF
ENDCHAR
STARTCHAR 0142
ENCODING 322
SWIDTH 468 0
DWIDTH 26 0
BBX 24 39 1 0
BITMAP
0F8000
0F8000
0F8000
0F8000
0F8000
0F8000
0F8000
0F8000
0F8000
0F8000
0F8000
0F8000
0F8000
0F8000
0F8600
0F9E00
0FFF00
0FFC00
0FF000
0FC000
3F8000
FF8000
FF8000
EF8000
0F8000
0F8000
0F8000
0F8000
0F8000
0F8000
0F8000
0F8000
0F8000
0F8000
0F8000
0FFFFF
0FFFFF
0FFFFF
0FFFFF
ENDCHAR
STARTCHAR 0143
ENCODING 323
SWIDTH 486 0
DWIDTH 27 0
BBX 24 49 1 0
BITMAP
0003C0
000380
000700
000F00
000E00
001C00
003800
000000
000000
200000
70000F
F8000F
FE000F
7F000F
3F800F
3FC00F
3FF00F
3DF80F
3CFC0F
3C7F0F
3C3F8F
3C0FCF
3C07EF
3C03FF
3C00FF
3C007F
3C003F
3C001F
3C000F
3C000F
3C000F
3C000F
3C000F
3C000F
3C000F
3C000F
3C000F
3C000F
3C000F
3C000F
3C000F
3C000F
3C000F
3C000F
3C000F
3C000F
3C000F
3C000F
3C000F
ENDCHAR
STARTCHAR 0144
ENCODING 324
SWIDTH 486 0
DWIDTH 27 0
BBX 24 49 1 0
BITMAP
0003C0
000380
000700
000F00
000E00
001C00
003800
000000
000000
200000
70000F
F8000F
FE000F
7F000F
3F800F
3FC00F
3FF00F
3DF80F
3CFC0F
3C7F0F
3C3F8F
3C0FCF
3C07EF
3C03FF
3C00FF
3C007F
3C003F
3C001F
3C000F
3C000F
3C000F
3C000F
3C000F
3C000F
3C000F
3C000F
3C000F
3C000F
3C000F
3C000F
3C000F
3C000F
3C000F
3C000F
3C000F
3C000F
3C000F
3C000F
3C000F
ENDCHAR
STARTCHAR 0147
ENCODING 327
SWIDTH 486 0
DWIDTH 27 0
BBX 24 50 1 0
BITMAP
078078
03C0F0
01E1E0
00F3C0
00F780
007F00
003F00
000000
000000
000000
200000
70000F
F8000F
FE000F
7F000F
3F800F
3FC00F
3FF00F
3DF80F
3CFC0F
3C7F0F
3C3F8F
3C0FCF
3C07EF
3C03FF
3C00FF
3C007F
3C003F
3C001F
3C000F
3C000F
3C000F
3C000F
3C000F
3C000F
3C000F
3C000F
3C000F
3C000F
3C000F
3C000F
3C000F
3C000F
3C000F
3C000F
3C000F
3C000F
3C000F
3C000F
3C000F
ENDCHAR
STARTCHAR 0148
ENCODING 328
SWIDTH 486 0
DWIDTH 27 0
BBX 24 50 1 0
BITMAP
078078
03C0F0
01E1E0
00F3C0
00F780
007F00
003F00
000000
000000
000000
200000
70000F
F8000F
FE000F
7F000F
3F800F
3FC00F
3FF00F
3DF80F
3CFC0F
3C7F0F
3C3F8F
3C0FCF
3C07EF
3C03FF
3C00FF
3C007F
3C003F
3C001F
3C000F
3C000F
3C000F
3C000F
3C000F
3C000F
3C000F
3C000F
3C000F
3C000F
3C000F
3C000F
3C000F
3C000F
3C000F
3C000F
3C000F
3C000F
3C000F
3C000F
3C000F
ENDCHAR
STARTCHAR 014C
ENCODING 332
SWIDTH 810 0
DWIDTH 45 0
BBX 41 49 2 -1
BITMAP
0007FFF00000
0007FFF00000
0007FFF00000
0007FFF00000
000000000000
000000000000
000000000000
000000000000
00003E000000
0007FFF00000
001FFFFC0000
007FFFFF0000
00FF80FFC000
03FC001FE000
07F00007F000
0FC00001F800
0F800000F800
1F0000007C00
3E0000003E00
3E0000001E00
7C0000001F00
780000000F00
780000000F00
F80000000F80
F00000000780
F00000000780
F00000000780
F00000000780
F00000000780
F00000000780
F00000000780
F00000000780
F00000000780
F80000000F80
780000000F00
780000000F00
7C0000001F00
3C0000001E00
3E0000003E00
1F0000007C00
0F800000FC00
0FC00001F800
07F00007F000
03F8000FE000
01FF80FFC000
007FFFFF0000
001FFFFC0000
0007FFF00000
00007F000000
ENDCHAR
STARTCHAR 014D
ENCODING 333
SWIDTH 810 0
DWIDTH 45 0
BBX 41 49 2 -1
BITMAP
0007FFF00000
0007FFF00000
0007FFF00000
0007FFF00000
000000000000
000000000000
000000000000
000000000000
00003E000000
0007FFF00000
001FFFFC0000
007FFFFF0000
00FF80FFC000
03FC001FE000
07F00007F000
0FC00001F800
0F800000F800
1F0000007C00
3E0000003E00
3E0000001E00
7C0000001F00
780000000F00
780000000F00
F80000000F80
F00000000780
F00000000780
F00000000780
F00000000780
F00000000780
F00000000780
F00000000780
F00000000780
F00000000780
F80000000F80
780000000F00
780000000F00
7C0000001F00
3C0000001E00
3E0000003E00
1F0000007C00
0F800000FC00
0FC00001F800
07F00007F000
03F8000FE000
01FF80FFC000
007FFFFF0000
001FFFFC0000
0007FFF00000
00007F000000
ENDCHAR
STARTCHAR 0150
ENCODING 336
SWIDTH 810 0
DWIDTH 45 0
BBX 41 50 2 -1
BITMAP
00003C1E0000
0000783C0000
0000F0380000
0000E0700000
0001C0F00000
0003C0E00000
000381C00000
000000000000
000000000000
00003E000000
0007FFF00000
001FFFFC0000
007FFFFF0000
00FF80FFC000
03FC001FE000
07F00007F000
0FC00001F800
0F800000F800
1F0000007C00
3E0000003E00
3E0000001E00
7C0000001F00
780000000F00
780000000F00
F80000000F80
F00000000780
F00000000780
F00000000780
F00000000780
F00000000780
F00000000780
F00000000780
F00000000780
F00000000780
F80000000F80
780000000F00
780000000F00
7C0000001F00
3C0000001E00
3E0000003E00
1F0000007C00
0F800000FC00
0FC00001F800
07F00007F000
03F8000FE000
01FF80FFC000
007FFFFF0000
001FFFFC0000
0007FFF00000
00007F000000
ENDCHAR
STARTCHAR 0151
ENCODING 337
SWIDTH 810 0
DWIDTH 45 0
BBX 41 50 2 -1
BITMAP
00003C1E0000
0000783C0000
0000F0380000
0000E0700000
0001C0F00000
0003C0E00000
000381C00000
000000000000
000000000000
00003E000000
0007FFF00000
001FFFFC0000
007FFFFF0000
00FF80FFC000
03FC001FE000
07F00007F000
0FC00001F800
0F800000F800
1F0000007C00
3E0000003E00
3E0000001E00
7C0000001F00
780000000F00
780000000F00
F80000000F80
F00000000780
F00000000780
F00000000780
F00000000780
F00000000780
F00000000780
F00000000780
F00000000780
F00000000780
F80000000F80
780000000F00
780000000F00
7C0000001F00
3C0000001E00
3E0000003E00
1F0000007C00
0F800000FC00
0FC00001F800
07F00007F000
03F8000FE000
01FF80FFC000
007FFFFF0000
001FFFFC0000
0007FFF00000
00007F000000
ENDCHAR
STARTCHAR 0154
ENCODING 340
SWIDTH 558 0
DWIDTH 31 0
BBX 29 49 1 0
BITMAP
0000F000
0001E000
0003C000
00038000
00070000
00070000
000E0000
00000000
00000000
00000000
0FFFE000
0FFFFC00
0FFFFF00
0FFFFFC0
0F001FE0
0F0007E0
0F0001F0
0F0000F0
0F0000F8
0F000078
0F000078
0F000078
0F000078
0F000078
0F0000F8
0F0000F0
0F0001F0
0F0003E0
0F000FE0
FFFFFFC0
FFFFFF80
FFFFFE00
FFFFFE00
0F00FF00
0F001F00
0F000F80
0F0007C0
0F0003C0
0F0003C0
0F0003E0
0F0001E0
0F0001E0
0F0001E0
0F0001E0
0F0001E0
0F0001E0
0F0001E0
0F0001E0
0F0001E0
ENDCHAR
STARTCHAR 0155
ENCODING 341
SWIDTH 558 0
DWIDTH 31 0
BBX 29 49 1 0
BITMAP
0000F000
0001E000
0003C000
00038000
00070000
00070000
000E0000
00000000
00000000
00000000
0FFFE000
0FFFFC00
0FFFFF00
0FFFFFC0
0F001FE0
0F0007E0
0F0001F0
0F0000F0
0F0000F8
0F000078
0F000078
0F000078
0F000078
0F000078
0F0000F8
0F0000F0
0F0001F0
0F0003E0
0F000FE0
FFFFFFC0
FFFFFF80
FFFFFE00
FFFFFE00
0F00FF00
0F001F00
0F000F80
0F0007C0
0F0003C0
0F0003C0
0F0003E0
0F0001E0
0F0001E0
0F0001E0
0F0001E0
0F0001E0
0F0001E0
0F0001E0
0F0001E0
0F0001E0
ENDCHAR
STARTCHAR 0158
ENCODING 344
SWIDTH 558 0
DWIDTH 31 0
BBX 29 50 1 0
BITMAP
01E03C00
00E03800
00F07000
0078F000
003DE000
001FC000
000F8000
00000000
00000000
00000000
00000000
0FFFE000
0FFFFC00
0FFFFF00
0FFFFFC0
0F001FE0
0F0007E0
0F0001F0
0F0000F0
0F0000F8
0F000078
0F000078
0F000078
0F000078
0F000078
0F0000F8
0F0000F0
0F0001F0
0F0003E0
0F000FE0
FFFFFFC0
FFFFFF80
FFFFFE00
FFFFFE00
0F00FF00
0F001F00
0F000F80
0F0007C0
0F0003C0
0F0003C0
0F0003E0
0F0001E0
0F0001E0
0F0001E0
0F0001E0
0F0001E0
0F0001E0
0F0001E0
0F0001E0
0F0001E0
ENDCHAR
STARTCHAR 0159
ENCODING 345
SWIDTH 558 0
DWIDTH 31 0
BBX 29 50 1 0
BITMAP
01E03C00
00E03800
00F07000
0078F000
003DE000
001FC000
000F8000
00000000
00000000
00000000
00000000
0FFFE000
0FFFFC00
0FFFFF00
0FFFFFC0
0F001FE0
0F0007E0
0F0001F0
0F0000F0
0F0000F8
0F000078
0F000078
0F000078
0F000078
0F000078
0F0000F8
0F0000F0
0F0001F0
0F0003E0
0F000FE0
FFFFFFC0
FFFFFF80
FFFFFE00
FFFFFE00
0F00FF00
0F001F00
0F000F80
0F0007C0
0F0003C0
0F0003C0
0F0003E0
0F0001E0
0F0001E0
0F0001E0
0F0001E0
0F0001E0
0F0001E0
0F0001E0
0F0001E0
0F0001E0
ENDCHAR
STARTCHAR 015A
ENCODING 346
SWIDTH 468 0
DWIDTH 26 0
BBX 23 50 2 -1
BITMAP
000780
000F00
001E00
001C00
003800
007800
007000
000000
000000
007C00
03FF80
0FFFC0
1FFFE0
1F83F0
3E00F8
3C0078
3C007C
7C003C
7C003C
7C0030
3C0000
3C0000
3E0000
1F0000
0FC000
07E000
03F800
01FE00
007F00
003FC0
000FE0
0003F0
0001F8
0000FC
00007C
00003E
00001E
00001E
30001E
F0001E
F0001E
F8001E
F8003E
7C003C
3E007C
3F81F8
1FFFF8
0FFFE0
03FFC0
007E00
ENDCHAR
STARTCHAR 015B
ENCODING 347
SWIDTH 468 0
DWIDTH 26 0
BBX 23 50 2 -1
BITMAP
000780
000F00
001E00
001C00
003800
007800
007000
000000
000000
007C00
03FF80
0FFFC0
1FFFE0
1F83F0
3E00F8
3C0078
3C007C
7C003C
7C003C
7C0030
3C0000
3C0000
3E0000
1F0000
0FC000
07E000
03F800
01FE00
007F00
003FC0
000FE0
0003F0
0001F8
0000FC
00007C
00003E
00001E
00001E
30001E
F0001E
F0001E
F8001E
F8003E
7C003C
3E007C
3F81F8
1FFFF8
0FFFE0
03FFC0
007E00
ENDCHAR
STARTCHAR 015E
ENCODING 350
SWIDTH 468 0
DWIDTH 26 0
BBX 23 52 2 -12
BITMAP
007C00
03FF80
0FFFC0
1FFFE0
1F83F0
3E00F8
3C0078
3C007C
7C003C
7C003C
7C0030
3C0000
3C0000
3E0000
1F0000
0FC000
07E000
03F800
01FE00
007F00
003FC0
000FE0
0003F0
0001F8
0000FC
00007C
00003E
00001E
00001E
30001E
F0001E
F0001E
F8001E
F8003E
7C003C
7E007C
3F81F8
1FFFF8
0FFFE0
03FFC0
007E00
003800
003C00
003E00
000700
000300
000380
020380
070700
03FF00
01FE00
003800
ENDCHAR
STARTCHAR 015F
ENCODING 351
SWIDTH 468 0
DWIDTH 26 0
BBX 23 52 2 -12
BITMAP
007C00
03FF80
0FFFC0
1FFFE0
1F83F0
3E00F8
3C0078
3C007C
7C003C
7C003C
7C0030
3C0000
3C0000
3E0000
1F0000
0FC000
07E000
03F800
01FE00
007F00
003FC0
000FE0
0003F0
0001F8
0000FC
00007C
00003E
00001E
00001E
30001E
F0001E
F0001E
F8001E
F8003E
7C003C
7E007C
3F81F8
1FFFF8
0FFFE0
03FFC0
007E00
003800
003C00
003E00
000700
000300
000380
020380
070700
03FF00
01FE00
003800
ENDCHAR
STARTCHAR 0160
ENCODING 352
SWIDTH 468 0
DWIDTH 26 0
BBX 23 51 2 -1
BITMAP
0E01E0
0703C0
078780
03C700
01EF00
00FE00
00FC00
000000
000000
000000
007C00
03FF80
0FFFC0
1FFFE0
1F83F0
3E00F8
3C0078
3C007C
7C003C
7C003C
7C0030
3C0000
3C0000
3E0000
1F0000
0FC000
07E000
03F800
01FE00
007F00
003FC0
000FE0
0003F0
0001F8
0000FC
00007C
00003E
00001E
00001E
30001E
F0001E
F0001E
F8001E
F8003E
7C003C
3E007C
3F81F8
1FFFF8
0FFFE0
03FFC0
007E00
ENDCHAR
STARTCHAR 0161
ENCODING 353
SWIDTH 468 0
DWIDTH 26 0
BBX 23 51 2 -1
BITMAP
0E01E0
0703C0
078780
03C700
01EF00
00FE00
00FC00
000000
000000
000000
007C00
03FF80
0FFFC0
1FFFE0
1F83F0
3E00F8
3C0078
3C007C
7C003C
7C003C
7C0030
3C0000
3C0000
3E0000
1F0000
0FC000
07E000
03F800
01FE00
007F00
003FC0
000FE0
0003F0
0001F8
0000FC
00007C
00003E
00001E
00001E
30001E
F0001E
F0001E
F8001E
F8003E
7C003C
3E007C
3F81F8
1FFFF8
0FFFE0
03FFC0
007E00
ENDCHAR
STARTCHAR 0162
ENCODING 354
SWIDTH 486 0
DWIDTH 27 0
BBX 25 51 1 -12
BITMAP
FFFFFF80
FFFFFF80
FFFFFF80
FFFFFF80
001E0000
001E0000
001E0000
001E0000
001E0000
001E0000
001E0000
001E0000
001E0000
001E0000
001E0000
001E0000
001E0000
001E0000
001E0000
001E0000
001E0000
001E0000
001E0000
001E0000
001E0000
001E0000
001E0000
001E0000
001E0000
001E0000
001E0000
001E0000
001E0000
001E0000
001E0000
001E0000
001E0000
001E0000
001E0000
001C0000
00180000
001E0000
003F0000
00038000
00018000
01018000
03018000
03838000
01FF8000
00FF0000
00380000
ENDCHAR
STARTCHAR 0163
ENCODING 355
SWIDTH 486 0
DWIDTH 27 0
BBX 25 51 1 -12
BITMAP
FFFFFF80
FFFFFF80
FFFFFF80
FFFFFF80
001E0000
001E0000
001E0000
001E0000
001E0000
001E0000
001E0000
001E0000
001E0000
001E0000
001E0000
001E0000
001E0000
001E0000
001E0000
001E0000
001E0000
001E0000
001E0000
001E0000
001E0000
001E0000
001E0000
001E0000
001E0000
001E0000
001E0000
001E0000
001E0000
001E0000
001E0000
001E0000
001E0000
001E0000
001E0000
001C0000
00180000
001E0000
003F0000
00038000
00018000
01018000
03018000
03838000
01FF8000
00FF0000
00380000
ENDCHAR
STARTCHAR 0164
ENCODING 356
SWIDTH 486 0
DWIDTH 27 0
BBX 25 50 1 0
BITMAP
07807000
03C0E000
01E1E000
01E3C000
00F78000
007F0000
003E0000
00000000
00000000
00000000
00000000
FFFFFF80
FFFFFF80
FFFFFF80
FFFFFF80
001E0000
001E0000
001E0000
001E0000
001E0000
001E0000
001E0000
001E0000
001E0000
001E0000
001E0000
001E0000
001E0000
001E0000
001E0000
001E0000
001E0000
001E0000
001E0000
001E0000
001E0000
001E0000
001E0000
001E0000
001E0000
001E0000
001E0000
001E0000
001E0000
001E0000
001E0000
001E0000
001E0000
001E0000
001E0000
ENDCHAR
STARTCHAR 0165
ENCODING 357
SWIDTH 486 0
DWIDTH 27 0
BBX 25 50 1 0
BITMAP
07807000
03C0E000
01E1E000
01E3C000
00F78000
007F0000
003E0000
00000000
00000000
00000000
00000000
FFFFFF80
FFFFFF80
FFFFFF80
FFFFFF80
001E0000
001E0000
001E0000
001E0000
001E0000
001E0000
001E0000
001E0000
001E0000
001E0000
001E0000
001E0000
001E0000
001E0000
001E0000
001E0000
001E0000
001E0000
001E0000
001E0000
001E0000
001E0000
001E0000
001E0000
001E0000
001E0000
001E0000
001E0000
001E0000
001E0000
001E0000
001E0000
001E0000
001E0000
001E0000
ENDCHAR
STARTCHAR 0168
ENCODING 360
SWIDTH 486 0
DWIDTH 27 0
BBX 23 50 2 -1
BITMAP
03C000
0FFFC0
0FFFC0
083FC0
000000
000000
000000
000000
000000
000000
F8001E
F8001E
F8001E
F8001E
F8001E
F8001E
F8001E
F8001E
F8001E
F8001E
F8001E
F8001E
F8001E
F8001E
F8001E
F8001E
F8001E
F8001E
F8001E
F8001E
F8001E
F8001E
F8001E
F8001E
F8001E
F8001E
F8001E
F8001E
F8001E
78001E
78001E
78003E
7C003C
3C007C
3E00F8
1F83F8
0FFFF0
07FFE0
03FF80
007E00
ENDCHAR
STARTCHAR 0169
ENCODING 361
SWIDTH 486 0
DWIDTH 27 0
BBX 23 50 2 -1
BITMAP
03C000
0FFFC0
0FFFC0
083FC0
000000
000000
000000
000000
000000
000000
F8001E
F8001E
F8001E
F8001E
F8001E
F8001E
F8001E
F8001E
F8001E
F8001E
F8001E
F8001E
F8001E
F8001E
F8001E
F8001E
F8001E
F8001E
F8001E
F8001E
F8001E
F8001E
F8001E
F8001E
F8001E
F8001E
F8001E
F8001E
F8001E
78001E
78001E
78003E
7C003C
3C007C
3E00F8
1F83F8
0FFFF0
07FFE0
03FF80
007E00
ENDCHAR
STARTCHAR 016A
ENCODING 362
SWIDTH 486 0
DWIDTH 27 0
BBX 23 49 2 -1
BITMAP
0FFFF0
0FFFF0
0FFFF0
0FFFF0
000000
000000
000000
000000
000000
F8001E
F8001E
F8001E
F8001E
F8001E
F8001E
F8001E
F8001E
F8001E
F8001E
F8001E
F8001E
F8001E
F8001E
F8001E
F8001E
F8001E
F8001E
F8001E
F8001E
F8001E
F8001E
F8001E
F8001E
F8001E
F8001E
F8001E
F8001E
F8001E
78001E
78001E
78003E
7C003C
3C007C
3E00F8
1F83F8
0FFFF0
07FFE0
03FF80
007E00
ENDCHAR
STARTCHAR 016B
ENCODING 363
SWIDTH 486 0
DWIDTH 27 0
BBX 23 49 2 -1
BITMAP
0FFFF0
0FFFF0
0FFFF0
0FFFF0
000000
000000
000000
000000
000000
F8001E
F8001E
F8001E
F8001E
F8001E
F8001E
F8001E
F8001E
F8001E
F8001E
F8001E
F8001E
F8001E
F8001E
F8001E
F8001E
F8001E
F8001E
F8001E
F8001E
F8001E
F8001E
F8001E
F8001E
F8001E
F8001E
F8001E
F8001E
F8001E
78001E
78001E
78003E
7C003C
3C007C
3E00F8
1F83F8
0FFFF0
07FFE0
03FF80
007E00
ENDCHAR
STARTCHAR 016E
ENCODING 366
SWIDTH 486 0
DWIDTH 27 0
BBX 23 54 2 -1
BITMAP
007E00
00FF00
01C780
038380
038180
038180
038180
01C380
01FF00
00FE00
003800
000000
000000
000000
F8001E
F8001E
F8001E
F8001E
F8001E
F8001E
F8001E
F8001E
F8001E
F8001E
F8001E
F8001E
F8001E
F8001E
F8001E
F8001E
F8001E
F8001E
F8001E
F8001E
F8001E
F8001E
F8001E
F8001E
F8001E
F8001E
F8001E
F8001E
F8001E
78001E
78001E
78003E
7C003C
3C007C
3E00F8
1F83F8
0FFFF0
07FFE0
03FF80
007E00
ENDCHAR
STARTCHAR 016F
ENCODING 367
SWIDTH 486 0
DWIDTH 27 0
BBX 23 54 2 -1
BITMAP
007E00
00FF00
01C780
038380
038180
038180
038180
01C380
01FF00
00FE00
003800
000000
000000
000000
F8001E
F8001E
F8001E
F8001E
F8001E
F8001E
F8001E
F8001E
F8001E
F8001E
F8001E
F8001E
F8001E
F8001E
F8001E
F8001E
F8001E
F8001E
F8001E
F8001E
F8001E
F8001E
F8001E
F8001E
F8001E
F8001E
F8001E
F8001E
F8001E
78001E
78001E
78003E
7C003C
3C007C
3E00F8
1F83F8
0FFFF0
07FFE0
03FF80
007E00
ENDCHAR
STARTCHAR 0170
ENCODING 368
SWIDTH 486 0
DWIDTH 27 0
BBX 23 50 2 -1
BITMAP
00783C
00F038
00E070
01C0F0
03C0E0
0381C0
070180
000000
000000
000000
F8001E
F8001E
F8001E
F8001E
F8001E
F8001E
F8001E
F8001E
F8001E
F8001E
F8001E
F8001E
F8001E
F8001E
F8001E
F8001E
F8001E
F8001E
F8001E
F8001E
F8001E
F8001E
F8001E
F8001E
F8001E
F8001E
F8001E
F8001E
F8001E
78001E
78001E
78003E
7C003C
3C007C
3E00F8
1F83F8
0FFFF0
07FFE0
03FF80
007E00
ENDCHAR
STARTCHAR 0171
ENCODING 369
SWIDTH 486 0
DWIDTH 27 0
BBX 23 50 2 -1
BITMAP
00783C
00F038
00E070
01C0F0
03C0E0
0381C0
070180
000000
000000
000000
F8001E
F8001E
F8001E
F8001E
F8001E
F8001E
F8001E
F8001E
F8001E
F8001E
F8001E
F8001E
F8001E
F8001E
F8001E
F8001E
F8001E
F8001E
F8001E
F8001E
F8001E
F8001E
F8001E
F8001E
F8001E
F8001E
F8001E
F8001E
F8001E
78001E
78001E
78003E
7C003C
3C007C
3E00F8
1F83F8
0FFFF0
07FFE0
03FF80
007E00
ENDCHAR
STARTCHAR 0172
ENCODING 370
SWIDTH 486 0
DWIDTH 27 0
BBX 23 49 2 -10
BITMAP
F8001E
F8001E
F8001E
F8001E
F8001E
F8001E
F8001E
F8001E
F8001E
F8001E
F8001E
F8001E
F8001E
F8001E
F8001E
F8001E
F8001E
F8001E
F8001E
F8001E
F8001E
F8001E
F8001E
F8001E
F8001E
F8001E
F8001E
F8001E
F8001E
78001E
78001E
78003E
7C003C
3C007C
3E00F8
1F83F8
0FFFF0
07FFE0
03FF80
007C00
007000
00E000
00C000
01C000
01C000
01C100
00E380
00FF80
007E00
ENDCHAR
STARTCHAR 0173
ENCODING 371
SWIDTH 486 0
DWIDTH 27 0
BBX 23 49 2 -10
BITMAP
F8001E
F8001E
F8001E
F8001E
F8001E
F8001E
F8001E
F8001E
F8001E
F8001E
F8001E
F8001E
F8001E
F8001E
F8001E
F8001E
F8001E
F8001E
F8001E
F8001E
F8001E
F8001E
F8001E
F8001E
F8001E
F8001E
F8001E
F8001E
F8001E
78001E
78001E
78003E
7C003C
3C007C
3E00F8
1F83F8
0FFFF0
07FFE0
03FF80
007C00
007000
00E000
00C000
01C000
01C000
01C100
00E380
00FF80
007E00
ENDCHAR
STARTCHAR 0176
ENCODING 374
SWIDTH 486 0
DWIDTH 27 0
BBX 23 50 2 0
BITMAP
007C00
00FE00
00FE00
01EF00
03C780
0783C0
0F01E0
0E00E0
000000
000000
000000
F0001E
F0001E
F0001E
F0001E
F0001E
F0001E
F0001E
F0001E
F0001E
F0001E
F0001E
F0001E
F0001E
F0001E
F0001E
F0001E
F0001E
F0001E
F0001E
F0001E
F8003E
78003C
7C003C
7C007C
3E00F8
1F83F0
0FFFF0
07FFC0
03FF80
007C00
007C00
007C00
007C00
007C00
007C00
007C00
007C00
007C00
007C00
ENDCHAR
STARTCHAR 0177
ENCODING 375
SWIDTH 486 0
DWIDTH 27 0
BBX 23 50 2 0
BITMAP
007C00
00FE00
00FE00
01EF00
03C780
0783C0
0F01E0
0E00E0
000000
000000
000000
F0001E
F0001E
F0001E
F0001E
F0001E
F0001E
F0001E
F0001E
F0001E
F0001E
F0001E
F0001E
F0001E
F0001E
F0001E
F0001E
F0001E
F0001E
F0001E
F0001E
F8003E
78003C
7C003C
7C007C
3E00F8
1F83F0
0FFFF0
07FFC0
03FF80
007C00
007C00
007C00
007C00
007C00
007C00
007C00
007C00
007C00
007C00
ENDCHAR
STARTCHAR 0178
ENCODING 376
SWIDTH 486 0
DWIDTH 27 0
BBX 23 49 2 0
BITMAP
0F01F0
1F83F8
3FC3F8
3FC3FC
3FC3F8
1F83F8
1F01F0
000000
000000
000000
F0001E
F0001E
F0001E
F0001E
F0001E
F0001E
F0001E
F0001E
F0001E
F0001E
F0001E
F0001E
F0001E
F0001E
F0001E
F0001E
F0001E
F0001E
F0001E
F0001E
F8003E
78003C
7C003C
7C007C
3E00F8
1F83F0
0FFFF0
07FFC0
03FF80
007C00
007C00
007C00
007C00
007C00
007C00
007C00
007C00
007C00
007C00
ENDCHAR
STARTCHAR 0179
ENCODING 377
SWIDTH 486 0
DWIDTH 27 0
BBX 25 49 1 0
BITMAP
0003C000
00038000
00070000
000F0000
000E0000
001C0000
00380000
00000000
00000000
00000000
FFFFFF80
FFFFFF80
FFFFFF80
FFFFFF80
00001F00
00001E00
00003E00
00007C00
00007C00
0000F800
0000F000
0001F000
0003E000
0003E000
0007C000
00078000
000F8000
001F0000
001F0000
003E0000
003C0000
007C0000
00F80000
00F80000
01F00000
01E00000
03E00000
07C00000
07C00000
0F800000
0F000000
1F000000
3E000000
3E000000
7C000000
7FFFFF00
FFFFFF00
FFFFFF00
FFFFFF00
ENDCHAR
STARTCHAR 017A
ENCODING 378
SWIDTH 486 0
DWIDTH 27 0
BBX 25 49 1 0
BITMAP
0003C000
00038000
00070000
000F0000
000E0000
001C0000
00380000
00000000
00000000
00000000
FFFFFF80
FFFFFF80
FFFFFF80
FFFFFF80
00001F00
00001E00
00003E00
00007C00
00007C00
0000F800
0000F000
0001F000
0003E000
0003E000
0007C000
00078000
000F8000
001F0000
001F0000
003E0000
003C0000
007C0000
00F80000
00F80000
01F00000
01E00000
03E00000
07C00000
07C00000
0F800000
0F000000
1F000000
3E000000
3E000000
7C000000
7FFFFF00
FFFFFF00
FFFFFF00
FFFFFF00
ENDCHAR
STARTCHAR 017B
ENCODING 379
SWIDTH 486 0
DWIDTH 27 0
BBX 25 51 1 0
BITMAP
000C0000
003F0000
003F8000
007F8000
007F8000
003F8000
003F0000
001E0000
00000000
00000000
00000000
00000000
FFFFFF80
FFFFFF80
FFFFFF80
FFFFFF80
00001F00
00001E00
00003E00
00007C00
00007C00
0000F800
0000F000
0001F000
0003E000
0003E000
0007C000
00078000
000F8000
001F0000
001F0000
003E0000
003C0000
007C0000
00F80000
00F80000
01F00000
01E00000
03E00000
07C00000
07C00000
0F800000
0F000000
1F000000
3E000000
3E000000
7C000000
7FFFFF00
FFFFFF00
FFFFFF00
FFFFFF00
ENDCHAR
STARTCHAR 017C
ENCODING 380
SWIDTH 486 0
DWIDTH 27 0
BBX 25 51 1 0
BITMAP
000C0000
003F0000
003F8000
007F8000
007F8000
003F8000
003F0000
001E0000
00000000
00000000
00000000
00000000
FFFFFF80
FFFFFF80
FFFFFF80
FFFFFF80
00001F00
00001E00
00003E00
00007C00
00007C00
0000F800
0000F000
0001F000
0003E000
0003E000
0007C000
00078000
000F8000
001F0000
001F0000
003E0000
003C0000
007C0000
00F80000
00F80000
01F00000
01E00000
03E00000
07C00000
07C00000
0F800000
0F000000
1F000000
3E000000
3E000000
7C000000
7FFFFF00
FFFFFF00
FFFFFF00
FFFFFF00
ENDCHAR
STARTCHAR 017D
ENCODING 381
SWIDTH 486 0
DWIDTH 27 0
BBX 25 50 1 0
BITMAP
07807800
03C0F000
01E1E000
00F3C000
007F8000
007F8000
003F0000
00000000
00000000
00000000
00000000
FFFFFF80
FFFFFF80
FFFFFF80
FFFFFF80
00001F00
00001E00
00003E00
00007C00
00007C00
0000F800
0000F000
0001F000
0003E000
0003E000
0007C000
00078000
000F8000
001F0000
001F0000
003E0000
003C0000
007C0000
00F80000
00F80000
01F00000
01E00000
03E00000
07C00000
07C00000
0F800000
0F000000
1F000000
3E000000
3E000000
7C000000
7FFFFF00
FFFFFF00
FFFFFF00
FFFFFF00
ENDCHAR
STARTCHAR 017E
ENCODING 382
SWIDTH 486 0
DWIDTH 27 0
BBX 25 50 1 0
BITMAP
07807800
03C0F000
01E1E000
00F3C000
007F8000
007F8000
003F0000
00000000
00000000
00000000
00000000
FFFFFF80
FFFFFF80
FFFFFF80
FFFFFF80
00001F00
00001E00
00003E00
00007C00
00007C00
0000F800
0000F000
0001F000
0003E000
0003E000
0007C000
00078000
000F8000
001F0000
001F0000
003E0000
003C0000
007C0000
00F80000
00F80000
01F00000
01E00000
03E00000
07C00000
07C00000
0F800000
0F000000
1F000000
3E000000
3E000000
7C000000
7FFFFF00
FFFFFF00
FFFFFF00
FFFFFF00
ENDCHAR
STARTCHAR 01A0
ENCODING 416
SWIDTH 810 0
DWIDTH 45 0
BBX 41 45 2 -1
BITMAP
000000007000
000000007000
00000000F000
00000000F000
00003E01E000
0007FFF3C000
001FFFFF8000
007FFFFF0000
00FF80FFC000
03FC001FE000
07F00007F000
0FC00001F800
0F800000F800
1F0000007C00
3E0000003E00
3E0000001E00
7C0000001F00
780000000F00
780000000F00
F80000000F80
F00000000780
F00000000780
F00000000780
F00000000780
F00000000780
F00000000780
F00000000780
F00000000780
F00000000780
F80000000F80
780000000F00
780000000F00
7C0000001F00
3C0000001E00
3E0000003E00
1F0000007C00
0F800000FC00
0FC00001F800
07F00007F000
03F8000FE000
01FF80FFC000
007FFFFF0000
001FFFFC0000
0007FFF00000
00007F000000
ENDCHAR
STARTCHAR 01A1
ENCODING 417
SWIDTH 810 0
DWIDTH 45 0
BBX 41 45 2 -1
BITMAP
000000007000
000000007000
00000000F000
00000000F000
00003E01E000
0007FFF3C000
001FFFFF8000
007FFFFF0000
00FF80FFC000
03FC001FE000
07F00007F000
0FC00001F800
0F800000F800
1F0000007C00
3E0000003E00
3E0000001E00
7C0000001F00
780000000F00
780000000F00
F80000000F80
F00000000780
F00000000780
F00000000780
F00000000780
F00000000780
F00000000780
F00000000780
F00000000780
F00000000780
F80000000F80
780000000F00
780000000F00
7C0000001F00
3C0000001E00
3E0000003E00
1F0000007C00
0F800000FC00
0FC00001F800
07F00007F000
03F8000FE000
01FF80FFC000
007FFFFF0000
001FFFFC0000
0007FFF00000
00007F000000
ENDCHAR
STARTCHAR 01AF
ENCODING 431
SWIDTH 486 0
DWIDTH 27 0
BBX 27 45 2 -1
BITMAP
000000E0
000000E0
000000E0
000001E0
000001C0
F8001FC0
F8001F00
F8001E00
F8001E00
F8001E00
F8001E00
F8001E00
F8001E00
F8001E00
F8001E00
F8001E00
F8001E00
F8001E00
F8001E00
F8001E00
F8001E00
F8001E00
F8001E00
F8001E00
F8001E00
F8001E00
F8001E00
F8001E00
F8001E00
F8001E00
F8001E00
F8001E00
F8001E00
F8001E00
78001E00
78001E00
78003E00
7C003C00
3C007C00
3E00F800
1F83F800
0FFFF000
07FFE000
03FF8000
007E0000
ENDCHAR
STARTCHAR 01B0
ENCODING 432
SWIDTH 486 0
DWIDTH 27 0
BBX 27 45 2 -1
BITMAP
000000E0
000000E0
000000E0
000001E0
000001C0
F8001FC0
F8001F00
F8001E00
F8001E00
F8001E00
F8001E00
F8001E00
F8001E00
F8001E00
F8001E00
F8001E00
F8001E00
F8001E00
F8001E00
F8001E00
F8001E00
F8001E00
F8001E00
F8001E00
F8001E00
F8001E00
F8001E00
F8001E00
F8001E00
F8001E00
F8001E00
F8001E00
F8001E00
F8001E00
78001E00
78001E00
78003E00
7C003C00
3C007C00
3E00F800
1F83F800
0FFFF000
07FFE000
03FF8000
007E0000
ENDCHAR
STARTCHAR 01CD
ENCODING 461
SWIDTH 540 0
DWIDTH 30 0
BBX 27 50 3 0
BITMAP
0E01E000
0F03C000
07878000
03C70000
01EF0000
00FE0000
00FC0000
00000000
00000000
00000000
007C0000
03FF8000
0FFFC000
1FFFE000
3F83F000
3E00F800
7C007800
78007C00
F8003C00
F0003C00
F0003C00
F0003E00
F0001E00
F0001E00
F0001E00
F0001E00
F0001E00
F0001E00
F0001E00
F0001E00
F0001E00
F0001E00
F0001E00
F0001E00
F0001E00
F0001E00
F0001E00
F0001E00
F0001E00
F0001E00
F0001E00
F0001E00
F0001E00
F0001E00
F0001E00
F0001E00
FFFFFFE0
FFFFFFE0
FFFFFFE0
FFFFFFE0
ENDCHAR
STARTCHAR 01CE
ENCODING 462
SWIDTH 540 0
DWIDTH 30 0
BBX 27 50 3 0
BITMAP
0E01E000
0F03C000
07878000
03C70000
01EF0000
00FE0000
00FC0000
00000000
00000000
00000000
007C0000
03FF8000
0FFFC000
1FFFE000
3F83F000
3E00F800
7C007800
78007C00
F8003C00
F0003C00
F0003C00
F0003E00
F0001E00
F0001E00
F0001E00
F0001E00
F0001E00
F0001E00
F0001E00
F0001E00
F0001E00
F0001E00
F0001E00
F0001E00
F0001E00
F0001E00
F0001E00
F0001E00
F0001E00
F0001E00
F0001E00
F0001E00
F0001E00
F0001E00
F0001E00
F0001E00
FFFFFFE0
FFFFFFE0
FFFFFFE0
FFFFFFE0
ENDCHAR
STARTCHAR 01CF
ENCODING 463
SWIDTH 162 0
DWIDTH 9 0
BBX 16 35 -3 0
BITMAP
F00F
781E
3C3C
1E78
0FF0
0FF0
07E0
0000
0000
0000
0000
03C0
03C0
03C0
03C0
03C0
03C0
03C0
03C0
03C0
03C0
03C0
03C0
03C0
03C0
03C0
03C0
03C0
03C0
03C0
03C0
03C0
03C0
03C0
03C0
ENDCHAR
STARTCHAR 01D0
ENCODING 464
SWIDTH 162 0
DWIDTH 9 0
BBX 16 35 -3 0
BITMAP
F00F
781E
3C3C
1E78
0FF0
0FF0
07E0
0000
0000
0000
0000
03C0
03C0
03C0
03C0
03C0
03C0
03C0
03C0
03C0
03C0
03C0
03C0
03C0
03C0
03C0
03C0
03C0
03C0
03C0
03C0
03C0
03C0
03C0
03C0
ENDCHAR
STARTCHAR 01D1
ENCODING 465
SWIDTH 810 0
DWIDTH 45 0
BBX 41 51 2 -1
BITMAP
000780F00000
0003C0E00000
0001C1E00000
0001E3C00000
0000F7800000
00007F000000
00003E000000
000000000000
000000000000
000000000000
00003E000000
0007FFF00000
001FFFFC0000
007FFFFF0000
00FF80FFC000
03FC001FE000
07F00007F000
0FC00001F800
0F800000F800
1F0000007C00
3E0000003E00
3E0000001E00
7C0000001F00
780000000F00
780000000F00
F80000000F80
F00000000780
F00000000780
F00000000780
F00000000780
F00000000780
F00000000780
F00000000780
F00000000780
F00000000780
F80000000F80
780000000F00
780000000F00
7C0000001F00
3C0000001E00
3E0000003E00
1F0000007C00
0F800000FC00
0FC00001F800
07F00007F000
03F8000FE000
01FF80FFC000
007FFFFF0000
001FFFFC0000
0007FFF00000
00007F000000
ENDCHAR
STARTCHAR 01D2
ENCODING 466
SWIDTH 810 0
DWIDTH 45 0
BBX 41 51 2 -1
BITMAP
000780F00000
0003C0E00000
0001C1E00000
0001E3C00000
0000F7800000
00007F000000
00003E000000
000000000000
000000000000
000000000000
00003E000000
0007FFF00000
001FFFFC0000
007FFFFF0000
00FF80FFC000
03FC001FE000
07F00007F000
0FC00001F800
0F800000F800
1F0000007C00
3E0000003E00
3E0000001E00
7C0000001F00
780000000F00
780000000F00
F80000000F80
F00000000780
F00000000780
F00000000780
F00000000780
F00000000780
F00000000780
F00000000780
F00000000780
F00000000780
F80000000F80
780000000F00
780000000F00
7C0000001F00
3C0000001E00
3E0000003E00
1F0000007C00
0F800000FC00
0FC00001F800
07F00007F000
03F8000FE000
01FF80FFC000
007FFFFF0000
001FFFFC0000
0007FFF00000
00007F000000
ENDCHAR
STARTCHAR 01D3
ENCODING 467
SWIDTH 486 0
DWIDTH 27 0
BBX 23 51 2 -1
BITMAP
0F00E0
0781E0
03C3C0
01E780
01EF00
00FE00
007E00
000000
000000
000000
000000
F8001E
F8001E
F8001E
F8001E
F8001E
F8001E
F8001E
F8001E
F8001E
F8001E
F8001E
F8001E
F8001E
F8001E
F8001E
F8001E
F8001E
F8001E
F8001E
F8001E
F8001E
F8001E
F8001E
F8001E
F8001E
F8001E
F8001E
F8001E
F8001E
78001E
78001E
78003E
7C003C
3C007C
3E00F8
1F83F8
0FFFF0
07FFE0
03FF80
007E00
ENDCHAR
STARTCHAR 01D4
ENCODING 468
SWIDTH 486 0
DWIDTH 27 0
BBX 23 51 2 -1
BITMAP
0F00E0
0781E0
03C3C0
01E780
01EF00
00FE00
007E00
000000
000000
000000
000000
F8001E
F8001E
F8001E
F8001E
F8001E
F8001E
F8001E
F8001E
F8001E
F8001E
F8001E
F8001E
F8001E
F8001E
F8001E
F8001E
F8001E
F8001E
F8001E
F8001E
F8001E
F8001E
F8001E
F8001E
F8001E
F8001E
F8001E
F8001E
F8001E
78001E
78001E
78003E
7C003C
3C007C
3E00F8
1F83F8
0FFFF0
07FFE0
03FF80
007E00
ENDCHAR
STARTCHAR 02C6
ENCODING 710
SWIDTH 288 0
DWIDTH 16 0
BBX 16 8 0 42
BITMAP
03C0
07E0
0FF0
1E78
1C3C
3C1C
780E
F00F
ENDCHAR
STARTCHAR 02C7
ENCODING 711
SWIDTH 288 0
DWIDTH 16 0
BBX 16 7 0 43
BITMAP
F00F
781E
3C3C
1E78
0F78
07F0
07E0
ENDCHAR
STARTCHAR 02D8
ENCODING 728
SWIDTH 252 0
DWIDTH 14 0
BBX 15 8 0 42
BITMAP
E00E
E00E
E01E
701C
783C
3FF8
1FF0
0780
ENDCHAR
STARTCHAR 02D9
ENCODING 729
SWIDTH 126 0
DWIDTH 7 0
BBX 8 7 0 44
BITMAP
3C
7E
FF
FF
FF
7F
3E
ENDCHAR
STARTCHAR 02DA
ENCODING 730
SWIDTH 198 0
DWIDTH 11 0
BBX 11 11 0 42
BITMAP
1F00
7FC0
71C0
E0E0
E0E0
C060
E0E0
E0E0
7FC0
3F80
0E00
ENDCHAR
STARTCHAR 02DB
ENCODING 731
SWIDTH 180 0
DWIDTH 10 0
BBX 10 11 0 -10
BITMAP
0700
1C00
7000
6000
E000
C000
C000
E080
73C0
7F80
1E00
ENDCHAR
STARTCHAR 02DC
ENCODING 732
SWIDTH 234 0
DWIDTH 13 0
BBX 13 4 0 45
BITMAP
7C00
FFF8
FFF8
83F8
ENDCHAR
STARTCHAR 02DD
ENCODING 733
SWIDTH 306 0
DWIDTH 17 0
BBX 17 7 0 42
BITMAP
0F0780
1E0700
1C0F00
381E00
781C00
703800
E03800
ENDCHAR
STARTCHAR 0300
ENCODING 768
SWIDTH 0 0
DWIDTH 0 0
BBX 8 7 -8 42
BITMAP
F0
78
38
1C
1E
0E
07
ENDCHAR
STARTCHAR 0301
ENCODING 769
SWIDTH 0 0
DWIDTH 0 0
BBX 8 7 -8 42
BITMAP
0F
1E
3C
38
70
F0
E0
ENDCHAR
STARTCHAR 0302
ENCODING 770
SWIDTH 0 0
DWIDTH 0 0
BBX 16 8 -16 42
BITMAP
03C0
07E0
0FF0
1E78
3C78
383C
701E
F00F
ENDCHAR
STARTCHAR 0303
ENCODING 771
SWIDTH 0 0
DWIDTH 0 0
BBX 13 4 -13 45
BITMAP
7800
FFF8
FFF8
03F8
ENDCHAR
STARTCHAR 0304
ENCODING 772
SWIDTH 0 0
DWIDTH 0 0
BBX 16 4 -16 44
BITMAP
FFFF
FFFF
FFFF
FFFF
ENDCHAR
STARTCHAR 0306
ENCODING 774
SWIDTH 0 0
DWIDTH 0 0
BBX 15 8 -15 42
BITMAP
E00E
E00E
F00E
701C
783C
3FF8
1FF0
03C0
ENDCHAR
STARTCHAR 0307
ENCODING 775
SWIDTH 0 0
DWIDTH 0 0
BBX 7 7 -7 44
BITMAP
7C
FE
FE
FE
FE
FE
7C
ENDCHAR
STARTCHAR 0308
ENCODING 776
SWIDTH 0 0
DWIDTH 0 0
BBX 19 7 -19 42
BITMAP
7C07C0
FE0FE0
FE0FE0
FF0FE0
FE0FE0
FE0FE0
7C07C0
ENDCHAR
STARTCHAR 0309
ENCODING 777
SWIDTH 0 0
DWIDTH 0 0
BBX 4 11 -4 42
BITMAP
E0
70
70
70
70
E0
E0
E0
E0
E0
E0
ENDCHAR
STARTCHAR 030A
ENCODING 778
SWIDTH 0 0
DWIDTH 0 0
BBX 11 11 -11 42
BITMAP
1F00
7FC0
71C0
E0E0
C0E0
C060
E0E0
E0E0
7FC0
3F80
0E00
ENDCHAR
STARTCHAR 030B
ENCODING 779
SWIDTH 0 0
DWIDTH 0 0
BBX 18 7 -18 42
BITMAP
0F03C0
0E0780
1C0F00
3C0E00
381C00
703C00
E03800
ENDCHAR
STARTCHAR 030C
ENCODING 780
SWIDTH 0 0
DWIDTH 0 0
BBX 16 7 -16 43
BITMAP
F00F
781E
3C3C
1E78
1EF0
0FE0
07E0
ENDCHAR
STARTCHAR 031B
ENCODING 795
SWIDTH 0 0
DWIDTH 0 0
BBX 6 7 -6 37
BITMAP
1C
1C
1C
3C
38
F0
E0
ENDCHAR
STARTCHAR 0323
ENCODING 803
SWIDTH 0 0
DWIDTH 0 0
BBX 8 8 -8 -15
BITMAP
1C
7E
7F
FF
FF
7F
7E
1C
ENDCHAR
STARTCHAR 0326
ENCODING 806
SWIDTH 0 0
DWIDTH 0 0
BBX 7 9 -7 -12
BITMAP
1E
1C
3C
38
38
78
70
F0
E0
ENDCHAR
STARTCHAR 0327
ENCODING 807
SWIDTH 0 0
DWIDTH 0 0
BBX 11 12 -11 -12
BITMAP
0700
0E00
0F00
0FC0
00C0
00E0
0060
C0E0
E0E0
FFC0
3F80
0E00
ENDCHAR
STARTCHAR 0328
ENCODING 808
SWIDTH 0 0
DWIDTH 0 0
BBX 10 11 -10 -10
BITMAP
0700
3C00
7000
6000
E000
C000
C000
E080
F7C0
7F80
1E00
ENDCHAR
STARTCHAR 0335
ENCODING 821
SWIDTH 0 0
DWIDTH 0 0
BBX 18 3 -18 11
BITMAP
FFFFC0
FFFFC0
FFFFC0
ENDCHAR
STARTCHAR 1EA0
ENCODING 7840
SWIDTH 540 0
DWIDTH 30 0
BBX 27 55 3 -15
BITMAP
007C0000
03FF8000
0FFFC000
1FFFE000
3F83F000
3E00F800
7C007800
78007C00
F8003C00
F0003C00
F0003C00
F0003E00
F0001E00
F0001E00
F0001E00
F0001E00
F0001E00
F0001E00
F0001E00
F0001E00
F0001E00
F0001E00
F0001E00
F0001E00
F0001E00
F0001E00
F0001E00
F0001E00
F0001E00
F0001E00
F0001E00
F0001E00
F0001E00
F0001E00
F0001E00
F0001E00
FFFFFFE0
FFFFFFE0
FFFFFFE0
FFFFFFE0
00000000
00000000
00000000
00000000
00000000
00000000
00000000
00380000
00FC0000
00FE0000
01FE0000
01FE0000
00FE0000
00FC0000
00380000
ENDCHAR
STARTCHAR 1EA1
ENCODING 7841
SWIDTH 540 0
DWIDTH 30 0
BBX 27 55 3 -15
BITMAP
007C0000
03FF8000
0FFFC000
1FFFE000
3F83F000
3E00F800
7C007800
78007C00
F8003C00
F0003C00
F0003C00
F0003E00
F0001E00
F0001E00
F0001E00
F0001E00
F0001E00
F0001E00
F0001E00
F0001E00
F0001E00
F0001E00
F0001E00
F0001E00
F0001E00
F0001E00
F0001E00
F0001E00
F0001E00
F0001E00
F0001E00
F0001E00
F0001E00
F0001E00
F0001E00
F0001E00
FFFFFFE0
FFFFFFE0
FFFFFFE0
FFFFFFE0
00000000
00000000
00000000
00000000
00000000
00000000
00000000
00380000
00FC0000
00FE0000
01FE0000
01FE0000
00FE0000
00FC0000
00380000
ENDCHAR
STARTCHAR 1EA2
ENCODING 7842
SWIDTH 540 0
DWIDTH 30 0
BBX 27 53 3 0
BITMAP
00380000
00380000
00380000
00380000
00380000
00300000
00700000
00700000
00700000
00700000
00380000
00000000
00000000
007C0000
03FF8000
0FFFC000
1FFFE000
3F83F000
3E00F800
7C007800
78007C00
F8003C00
F0003C00
F0003C00
F0003E00
F0001E00
F0001E00
F0001E00
F0001E00
F0001E00
F0001E00
F0001E00
F0001E00
F0001E00
F0001E00
F0001E00
F0001E00
F0001E00
F0001E00
F0001E00
F0001E00
F0001E00
F0001E00
F0001E00
F0001E00
F0001E00
F0001E00
F0001E00
F0001E00
FFFFFFE0
FFFFFFE0
FFFFFFE0
FFFFFFE0
ENDCHAR
STARTCHAR 1EA3
ENCODING 7843
SWIDTH 540 0
DWIDTH 30 0
BBX 27 53 3 0
BITMAP
00380000
00380000
00380000
00380000
00380000
00300000
00700000
00700000
00700000
00700000
00380000
00000000
00000000
007C0000
03FF8000
0FFFC000
1FFFE000
3F83F000
3E00F800
7C007800
78007C00
F8003C00
F0003C00
F0003C00
F0003E00
F0001E00
F0001E00
F0001E00
F0001E00
F0001E00
F0001E00
F0001E00
F0001E00
F0001E00
F0001E00
F0001E00
F0001E00
F0001E00
F0001E00
F0001E00
F0001E00
F0001E00
F0001E00
F0001E00
F0001E00
F0001E00
F0001E00
F0001E00
F0001E00
FFFFFFE0
FFFFFFE0
FFFFFFE0
FFFFFFE0
ENDCHAR
STARTCHAR 1EA4
ENCODING 7844
SWIDTH 540 0
DWIDTH 30 0
BBX 27 55 3 0
BITMAP
000003C0
00000380
00000780
00000F00
00000E00
007C1C00
00FC1C00
01FE3800
01CF0000
03C78000
0783C000
0F01C000
1E00E000
00000000
00000000
007C0000
03FF8000
0FFFC000
1FFFE000
3F83F000
3E00F800
7C007800
78007C00
F8003C00
F0003C00
F0003C00
F0003E00
F0001E00
F0001E00
F0001E00
F0001E00
F0001E00
F0001E00
F0001E00
F0001E00
F0001E00
F0001E00
F0001E00
F0001E00
F0001E00
F0001E00
F0001E00
F0001E00
F0001E00
F0001E00
F0001E00
F0001E00
F0001E00
F0001E00
F0001E00
F0001E00
FFFFFFE0
FFFFFFE0
FFFFFFE0
FFFFFFE0
ENDCHAR
STARTCHAR 1EA5
ENCODING 7845
SWIDTH 540 0
DWIDTH 30 0
BBX 27 55 3 0
BITMAP
000003C0
00000380
00000780
00000F00
00000E00
007C1C00
00FC1C00
01FE3800
01CF0000
03C78000
0783C000
0F01C000
1E00E000
00000000
00000000
007C0000
03FF8000
0FFFC000
1FFFE000
3F83F000
3E00F800
7C007800
78007C00
F8003C00
F0003C00
F0003C00
F0003E00
F0001E00
F0001E00
F0001E00
F0001E00
F0001E00
F0001E00
F0001E00
F0001E00
F0001E00
F0001E00
F0001E00
F0001E00
F0001E00
F0001E00
F0001E00
F0001E00
F0001E00
F0001E00
F0001E00
F0001E00
F0001E00
F0001E00
F0001E00
F0001E00
FFFFFFE0
FFFFFFE0
FFFFFFE0
FFFFFFE0
ENDCHAR
STARTCHAR 1EA6
ENCODING 7846
SWIDTH 540 0
DWIDTH 30 0
BBX 32 55 -2 0
BITMAP
F0000000
78000000
3C000000
1C000000
1E000000
0E03E000
0707E000
038FF000
000E7800
001E3C00
003C1E00
00780E00
00F00F00
00000000
00000000
0003E000
001FFC00
007FFE00
00FFFF00
01FC1F80
01F007C0
03E003C0
03C003E0
07C001E0
078001E0
078001E0
078001F0
078000F0
078000F0
078000F0
078000F0
078000F0
078000F0
078000F0
078000F0
078000F0
078000F0
078000F0
078000F0
078000F0
078000F0
078000F0
078000F0
078000F0
078000F0
078000F0
078000F0
078000F0
078000F0
078000F0
078000F0
07FFFFFF
07FFFFFF
07FFFFFF
07FFFFFF
ENDCHAR
STARTCHAR 1EA7
ENCODING 7847
SWIDTH 540 0
DWIDTH 30 0
BBX 32 55 -2 0
BITMAP
F0000000
78000000
3C000000
1C000000
1E000000
0E03E000
0707E000
038FF000
000E7800
001E3C00
003C1E00
00780E00
00F00F00
00000000
00000000
0003E000
001FFC00
007FFE00
00FFFF00
01FC1F80
01F007C0
03E003C0
03C003E0
07C001E0
078001E0
078001E0
078001F0
078000F0
078000F0
078000F0
078000F0
078000F0
078000F0
078000F0
078000F0
078000F0
078000F0
078000F0
078000F0
078000F0
078000F0
078000F0
078000F0
078000F0
078000F0
078000F0
078000F0
078000F0
078000F0
078000F0
078000F0
07FFFFFF
07FFFFFF
07FFFFFF
07FFFFFF
ENDCHAR
STARTCHAR 1EA8
ENCODING 7848
SWIDTH 540 0
DWIDTH 30 0
BBX 27 57 3 0
BITMAP
00001C00
00001C00
00001C00
00001C00
00003800
00003800
00003800
007C3800
00FC3800
01FE3800
01CF0000
03C78000
0783C000
0F01C000
1E00E000
00000000
00000000
007C0000
03FF8000
0FFFC000
1FFFE000
3F83F000
3E00F800
7C007800
78007C00
F8003C00
F0003C00
F0003C00
F0003E00
F0001E00
F0001E00
F0001E00
F0001E00
F0001E00
F0001E00
F0001E00
F0001E00
F0001E00
F0001E00
F0001E00
F0001E00
F0001E00
F0001E00
F0001E00
F0001E00
F0001E00
F0001E00
F0001E00
F0001E00
F0001E00
F0001E00
F0001E00
F0001E00
FFFFFFE0
FFFFFFE0
FFFFFFE0
FFFFFFE0
ENDCHAR
STARTCHAR 1EA9
ENCODING 7849
SWIDTH 540 0
DWIDTH 30 0
BBX 27 57 3 0
BITMAP
00001C00
00001C00
00001C00
00001C00
00003800
00003800
00003800
007C3800
00FC3800
01FE3800
01CF0000
03C78000
0783C000
0F01C000
1E00E000
00000000
00000000
007C0000
03FF8000
0FFFC000
1FFFE000
3F83F000
3E00F800
7C007800
78007C00
F8003C00
F0003C00
F0003C00
F0003E00
F0001E00
F0001E00
F0001E00
F0001E00
F0001E00
F0001E00
F0001E00
F0001E00
F0001E00
F0001E00
F0001E00
F0001E00
F0001E00
F0001E00
F0001E00
F0001E00
F0001E00
F0001E00
F0001E00
F0001E00
F0001E00
F0001E00
F0001E00
F0001E00
FFFFFFE0
FFFFFFE0
FFFFFFE0
FFFFFFE0
ENDCHAR
STARTCHAR 1EAA
ENCODING 7850
SWIDTH 540 0
DWIDTH 30 0
BBX 27 55 3 0
BITMAP
000F8000
001FFF00
001FFF00
00003F00
00000000
007C0000
00FC0000
01FE0000
01CF0000
03C78000
0783C000
0F01C000
1E00E000
00000000
00000000
007C0000
03FF8000
0FFFC000
1FFFE000
3F83F000
3E00F800
7C007800
78007C00
F8003C00
F0003C00
F0003C00
F0003E00
F0001E00
F0001E00
F0001E00
F0001E00
F0001E00
F0001E00
F0001E00
F0001E00
F0001E00
F0001E00
F0001E00
F0001E00
F0001E00
F0001E00
F0001E00
F0001E00
F0001E00
F0001E00
F0001E00
F0001E00
F0001E00
F0001E00
F0001E00
F0001E00
FFFFFFE0
FFFFFFE0
FFFFFFE0
FFFFFFE0
ENDCHAR
STARTCHAR 1EAB
ENCODING 7851
SWIDTH 540 0
DWIDTH 30 0
BBX 27 55 3 0
BITMAP
000F8000
001FFF00
001FFF00
00003F00
00000000
007C0000
00FC0000
01FE0000
01CF0000
03C78000
0783C000
0F01C000
1E00E000
00000000
00000000
007C0000
03FF8000
0FFFC000
1FFFE000
3F83F000
3E00F800
7C007800
78007C00
F8003C00
F0003C00
F0003C00
F0003E00
F0001E00
F0001E00
F0001E00
F0001E00
F0001E00
F0001E00
F0001E00
F0001E00
F0001E00
F0001E00
F0001E00
F0001E00
F0001E00
F0001E00
F0001E00
F0001E00
F0001E00
F0001E00
F0001E00
F0001E00
F0001E00
F0001E00
F0001E00
F0001E00
FFFFFFE0
FFFFFFE0
FFFFFFE0
FFFFFFE0
ENDCHAR
STARTCHAR 1EAC
ENCODING 7852
SWIDTH 540 0
DWIDTH 30 0
BBX 27 65 3 -15
BITMAP
007C0000
00FC0000
01FE0000
01CF0000
03C78000
0783C000
0F01C000
1E00E000
00000000
00000000
007C0000
03FF8000
0FFFC000
1FFFE000
3F83F000
3E00F800
7C007800
78007C00
F8003C00
F0003C00
F0003C00
F0003E00
F0001E00
F0001E00
F0001E00
F0001E00
F0001E00
F0001E00
F0001E00
F0001E00
F0001E00
F0001E00
F0001E00
F0001E00
F0001E00
F0001E00
F0001E00
F0001E00
F0001E00
F0001E00
F0001E00
F0001E00
F0001E00
F0001E00
F0001E00
F0001E00
FFFFFFE0
FFFFFFE0
FFFFFFE0
FFFFFFE0
00000000
00000000
00000000
00000000
00000000
00000000
00000000
00380000
00FC0000
00FE0000
01FE0000
01FE0000
00FE0000
00FC0000
00380000
ENDCHAR
STARTCHAR 1EAD
ENCODING 7853
SWIDTH 540 0
DWIDTH 30 0
BBX 27 65 3 -15
BITMAP
007C0000
00FC0000
01FE0000
01CF0000
03C78000
0783C000
0F01C000
1E00E000
00000000
00000000
007C0000
03FF8000
0FFFC000
1FFFE000
3F83F000
3E00F800
7C007800
78007C00
F8003C00
F0003C00
F0003C00
F0003E00
F0001E00
F0001E00
F0001E00
F0001E00
F0001E00
F0001E00
F0001E00
F0001E00
F0001E00
F0001E00
F0001E00
F0001E00
F0001E00
F0001E00
F0001E00
F0001E00
F0001E00
F0001E00
F0001E00
F0001E00
F0001E00
F0001E00
F0001E00
F0001E00
FFFFFFE0
FFFFFFE0
FFFFFFE0
FFFFFFE0
00000000
00000000
00000000
00000000
00000000
00000000
00000000
00380000
00FC0000
00FE0000
01FE0000
01FE0000
00FE0000
00FC0000
00380000
ENDCHAR
STARTCHAR 1EAE
ENCODING 7854
SWIDTH 540 0
DWIDTH 30 0
BBX 27 56 3 0
BITMAP
00038000
00078000
000F0000
000E0000
001C0000
00380000
0E38E000
0E00E000
0E01C000
0F01C000
07878000
03FF8000
01FE0000
00780000
00000000
00000000
007C0000
03FF8000
0FFFC000
1FFFE000
3F83F000
3E00F800
7C007800
78007C00
F8003C00
F0003C00
F0003C00
F0003E00
F0001E00
F0001E00
F0001E00
F0001E00
F0001E00
F0001E00
F0001E00
F0001E00
F0001E00
F0001E00
F0001E00
F0001E00
F0001E00
F0001E00
F0001E00
F0001E00
F0001E00
F0001E00
F0001E00
F0001E00
F0001E00
F0001E00
F0001E00
F0001E00
FFFFFFE0
FFFFFFE0
FFFFFFE0
FFFFFFE0
ENDCHAR
STARTCHAR 1EAF
ENCODING 7855
SWIDTH 540 0
DWIDTH 30 0
BBX 27 56 3 0
BITMAP
00038000
00078000
000F0000
000E0000
001C0000
00380000
0E38E000
0E00E000
0E01C000
0F01C000
07878000
03FF8000
01FE0000
00780000
00000000
00000000
007C0000
03FF8000
0FFFC000
1FFFE000
3F83F000
3E00F800
7C007800
78007C00
F8003C00
F0003C00
F0003C00
F0003E00
F0001E00
F0001E00
F0001E00
F0001E00
F0001E00
F0001E00
F0001E00
F0001E00
F0001E00
F0001E00
F0001E00
F0001E00
F0001E00
F0001E00
F0001E00
F0001E00
F0001E00
F0001E00
F0001E00
F0001E00
F0001E00
F0001E00
F0001E00
F0001E00
FFFFFFE0
FFFFFFE0
FFFFFFE0
FFFFFFE0
ENDCHAR
STARTCHAR 1EB0
ENCODING 7856
SWIDTH 540 0
DWIDTH 30 0
BBX 27 56 3 0
BITMAP
0F000000
07800000
03800000
03C00000
01C00000
00E00000
0E70E000
0E00E000
0E01C000
0F01C000
07878000
03FF8000
01FE0000
00780000
00000000
00000000
007C0000
03FF8000
0FFFC000
1FFFE000
3F83F000
3E00F800
7C007800
78007C00
F8003C00
F0003C00
F0003C00
F0003E00
F0001E00
F0001E00
F0001E00
F0001E00
F0001E00
F0001E00
F0001E00
F0001E00
F0001E00
F0001E00
F0001E00
F0001E00
F0001E00
F0001E00
F0001E00
F0001E00
F0001E00
F0001E00
F0001E00
F0001E00
F0001E00
F0001E00
F0001E00
F0001E00
FFFFFFE0
FFFFFFE0
FFFFFFE0
FFFFFFE0
ENDCHAR
STARTCHAR 1EB1
ENCODING 7857
SWIDTH 540 0
DWIDTH 30 0
BBX 27 56 3 0
BITMAP
0F000000
07800000
03800000
03C00000
01C00000
00E00000
0E70E000
0E00E000
0E01C000
0F01C000
07878000
03FF8000
01FE0000
00780000
00000000
00000000
007C0000
03FF8000
0FFFC000
1FFFE000
3F83F000
3E00F800
7C007800
78007C00
F8003C00
F0003C00
F0003C00
F0003E00
F0001E00
F0001E00
F0001E00
F0001E00
F0001E00
F0001E00
F0001E00
F0001E00
F0001E00
F0001E00
F0001E00
F0001E00
F0001E00
F0001E00
F0001E00
F0001E00
F0001E00
F0001E00
F0001E00
F0001E00
F0001E00
F0001E00
F0001E00
F0001E00
FFFFFFE0
FFFFFFE0
FFFFFFE0
FFFFFFE0
ENDCHAR
STARTCHAR 1EB2
ENCODING 7858
SWIDTH 540 0
DWIDTH 30 0
BBX 27 58 3 0
BITMAP
00180000
001C0000
001C0000
001C0000
001C0000
00380000
00380000
00380000
0E38E000
0E38E000
0E39C000
0F01C000
07878000
03FF8000
01FE0000
00780000
00000000
00000000
007C0000
03FF8000
0FFFC000
1FFFE000
3F83F000
3E00F800
7C007800
78007C00
F8003C00
F0003C00
F0003C00
F0003E00
F0001E00
F0001E00
F0001E00
F0001E00
F0001E00
F0001E00
F0001E00
F0001E00
F0001E00
F0001E00
F0001E00
F0001E00
F0001E00
F0001E00
F0001E00
F0001E00
F0001E00
F0001E00
F0001E00
F0001E00
F0001E00
F0001E00
F0001E00
F0001E00
FFFFFFE0
FFFFFFE0
FFFFFFE0
FFFFFFE0
ENDCHAR
STARTCHAR 1EB3
ENCODING 7859
SWIDTH 540 0
DWIDTH 30 0
BBX 27 58 3 0
BITMAP
00180000
001C0000
001C0000
001C0000
001C0000
00380000
00380000
00380000
0E38E000
0E38E000
0E39C000
0F01C000
07878000
03FF8000
01FE0000
00780000
00000000
00000000
007C0000
03FF8000
0FFFC000
1FFFE000
3F83F000
3E00F800
7C007800
78007C00
F8003C00
F0003C00
F0003C00
F0003E00
F0001E00
F0001E00
F0001E00
F0001E00
F0001E00
F0001E00
F0001E00
F0001E00
F0001E00
F0001E00
F0001E00
F0001E00
F0001E00
F0001E00
F0001E00
F0001E00
F0001E00
F0001E00
F0001E00
F0001E00
F0001E00
F0001E00
F0001E00
F0001E00
FFFFFFE0
FFFFFFE0
FFFFFFE0
FFFFFFE0
ENDCHAR
STARTCHAR 1EB4
ENCODING 7860
SWIDTH 540 0
DWIDTH 30 0
BBX 27 55 3 0
BITMAP
07F04000
07FFC000
07FFC000
000F8000
00000000
0E00E000
0E00E000
0E01C000
0F01C000
07878000
03FF8000
01FE0000
00780000
00000000
00000000
007C0000
03FF8000
0FFFC000
1FFFE000
3F83F000
3E00F800
7C007800
78007C00
F8003C00
F0003C00
F0003C00
F0003E00
F0001E00
F0001E00
F0001E00
F0001E00
F0001E00
F0001E00
F0001E00
F0001E00
F0001E00
F0001E00
F0001E00
F0001E00
F0001E00
F0001E00
F0001E00
F0001E00
F0001E00
F0001E00
F0001E00
F0001E00
F0001E00
F0001E00
F0001E00
F0001E00
FFFFFFE0
FFFFFFE0
FFFFFFE0
FFFFFFE0
ENDCHAR
STARTCHAR 1EB5
ENCODING 7861
SWIDTH 540 0
DWIDTH 30 0
BBX 27 55 3 0
BITMAP
07F04000
07FFC000
07FFC000
000F8000
00000000
0E00E000
0E00E000
0E01C000
0F01C000
07878000
03FF8000
01FE0000
00780000
00000000
00000000
007C0000
03FF8000
0FFFC000
1FFFE000
3F83F000
3E00F800
7C007800
78007C00
F8003C00
F0003C00
F0003C00
F0003E00
F0001E00
F0001E00
F0001E00
F0001E00
F0001E00
F0001E00
F0001E00
F0001E00
F0001E00
F0001E00
F0001E00
F0001E00
F0001E00
F0001E00
F0001E00
F0001E00
F0001E00
F0001E00
F0001E00
F0001E00
F0001E00
F0001E00
F0001E00
F0001E00
FFFFFFE0
FFFFFFE0
FFFFFFE0
FFFFFFE0
ENDCHAR
STARTCHAR 1EB6
ENCODING 7862
SWIDTH 540 0
DWIDTH 30 0
BBX 27 65 3 -15
BITMAP
0E00E000
0E00E000
0E01C000
0F01C000
07878000
03FF8000
01FE0000
00780000
00000000
00000000
007C0000
03FF8000
0FFFC000
1FFFE000
3F83F000
3E00F800
7C007800
78007C00
F8003C00
F0003C00
F0003C00
F0003E00
F0001E00
F0001E00
F0001E00
F0001E00
F0001E00
F0001E00
F0001E00
F0001E00
F0001E00
F0001E00
F0001E00
F0001E00
F0001E00
F0001E00
F0001E00
F0001E00
F0001E00
F0001E00
F0001E00
F0001E00
F0001E00
F0001E00
F0001E00
F0001E00
FFFFFFE0
FFFFFFE0
FFFFFFE0
FFFFFFE0
00000000
00000000
00000000
00000000
00000000
00000000
00000000
00380000
00FC0000
00FE0000
01FE0000
01FE0000
00FE0000
00FC0000
00380000
ENDCHAR
STARTCHAR 1EB7
ENCODING 7863
SWIDTH 540 0
DWIDTH 30 0
BBX 27 65 3 -15
BITMAP
0E00E000
0E00E000
0E01C000
0F01C000
07878000
03FF8000
01FE0000
00780000
00000000
00000000
007C0000
03FF8000
0FFFC000
1FFFE000
3F83F000
3E00F800
7C007800
78007C00
F8003C00
F0003C00
F0003C00
F0003E00
F0001E00
F0001E00
F0001E00
F0001E00
F0001E00
F0001E00
F0001E00
F0001E00
F0001E00
F0001E00
F0001E00
F0001E00
F0001E00
F0001E00
F0001E00
F0001E00
F0001E00
F0001E00
F0001E00
F0001E00
F0001E00
F0001E00
F0001E00
F0001E00
FFFFFFE0
FFFFFFE0
FFFFFFE0
FFFFFFE0
00000000
00000000
00000000
00000000
00000000
00000000
00000000
00380000
00FC0000
00FE0000
01FE0000
01FE0000
00FE0000
00FC0000
00380000
ENDCHAR
STARTCHAR 1EB8
ENCODING 7864
SWIDTH 486 0
DWIDTH 27 0
BBX 26 54 1 -15
BITMAP
0FFFF000
0FFFF000
0FFFF000
0FFFF000
0F000000
0F000000
0F000000
0F000000
0F000000
0F000000
0F000000
0F000000
0F000000
0F000000
0F000000
0F000000
0F000000
FFFFFC00
FFFFFC00
FFFFFC00
FFFFFC00
0F000000
0F000000
0F000000
0F000000
0F000000
0F000000
0F000000
0F000000
0F000000
0F000000
0F000000
0F000000
0F000000
0F000000
0FFFFFC0
0FFFFFC0
0FFFFFC0
0FFFFFC0
00000000
00000000
00000000
00000000
00000000
00000000
00000000
00038000
0007E000
000FE000
000FF000
000FF000
000FE000
0007E000
00038000
ENDCHAR
STARTCHAR 1EB9
ENCODING 7865
SWIDTH 486 0
DWIDTH 27 0
BBX 26 54 1 -15
BITMAP
0FFFF000
0FFFF000
0FFFF000
0FFFF000
0F000000
0F000000
0F000000
0F000000
0F000000
0F000000
0F000000
0F000000
0F000000
0F000000
0F000000
0F000000
0F000000
FFFFFC00
FFFFFC00
FFFFFC00
FFFFFC00
0F000000
0F000000
0F000000
0F000000
0F000000
0F000000
0F000000
0F000000
0F000000
0F000000
0F000000
0F000000
0F000000
0F000000
0FFFFFC0
0FFFFFC0
0FFFFFC0
0FFFFFC0
00000000
00000000
00000000
00000000
00000000
00000000
00000000
00038000
0007E000
000FE000
000FF000
000FF000
000FE000
0007E000
00038000
ENDCHAR
STARTCHAR 1EBA
ENCODING 7866
SWIDTH 486 0
DWIDTH 27 0
BBX 26 53 1 0
BITMAP
00380000
001C0000
001C0000
001C0000
001C0000
00380000
00380000
00380000
00380000
00380000
00380000
00000000
00000000
00000000
0FFFF000
0FFFF000
0FFFF000
0FFFF000
0F000000
0F000000
0F000000
0F000000
0F000000
0F000000
0F000000
0F000000
0F000000
0F000000
0F000000
0F000000
0F000000
FFFFFC00
FFFFFC00
FFFFFC00
FFFFFC00
0F000000
0F000000
0F000000
0F000000
0F000000
0F000000
0F000000
0F000000
0F000000
0F000000
0F000000
0F000000
0F000000
0F000000
0FFFFFC0
0FFFFFC0
0FFFFFC0
0FFFFFC0
ENDCHAR
STARTCHAR 1EBB
ENCODING 7867
SWIDTH 486 0
DWIDTH 27 0
BBX 26 53 1 0
BITMAP
00380000
001C0000
001C0000
001C0000
001C0000
00380000
00380000
00380000
00380000
00380000
00380000
00000000
00000000
00000000
0FFFF000
0FFFF000
0FFFF000
0FFFF000
0F000000
0F000000
0F000000
0F000000
0F000000
0F000000
0F000000
0F000000
0F000000
0F000000
0F000000
0F000000
0F000000
FFFFFC00
FFFFFC00
FFFFFC00
FFFFFC00
0F000000
0F000000
0F000000
0F000000
0F000000
0F000000
0F000000
0F000000
0F000000
0F000000
0F000000
0F000000
0F000000
0F000000
0FFFFFC0
0FFFFFC0
0FFFFFC0
0FFFFFC0
ENDCHAR
STARTCHAR 1EBC
ENCODING 7868
SWIDTH 486 0
DWIDTH 27 0
BBX 26 49 1 0
BITMAP
03C00000
0FFFC000
0FFFC000
081FC000
00000000
00000000
00000000
00000000
00000000
00000000
0FFFF000
0FFFF000
0FFFF000
0FFFF000
0F000000
0F000000
0F000000
0F000000
0F000000
0F000000
0F000000
0F000000
0F000000
0F000000
0F000000
0F000000
0F000000
FFFFFC00
FFFFFC00
FFFFFC00
FFFFFC00
0F000000
0F000000
0F000000
0F000000
0F000000
0F000000
0F000000
0F000000
0F000000
0F000000
0F000000
0F000000
0F000000
0F000000
0FFFFFC0
0FFFFFC0
0FFFFFC0
0FFFFFC0
ENDCHAR
STARTCHAR 1EBD
ENCODING 7869
SWIDTH 486 0
DWIDTH 27 0
BBX 26 49 1 0
BITMAP
03C00000
0FFFC000
0FFFC000
081FC000
00000000
00000000
00000000
00000000
00000000
00000000
0FFFF000
0FFFF000
0FFFF000
0FFFF000
0F000000
0F000000
0F000000
0F000000
0F000000
0F000000
0F000000
0F000000
0F000000
0F000000
0F000000
0F000000
0F000000
FFFFFC00
FFFFFC00
FFFFFC00
FFFFFC00
0F000000
0F000000
0F000000
0F000000
0F000000
0F000000
0F000000
0F000000
0F000000
0F000000
0F000000
0F000000
0F000000
0F000000
0FFFFFC0
0FFFFFC0
0FFFFFC0
0FFFFFC0
ENDCHAR
STARTCHAR 1EBE
ENCODING 7870
SWIDTH 486 0
DWIDTH 27 0
BBX 27 55 1 0
BITMAP
000001E0
000003C0
00000380
00000780
00000F00
003C0E00
007E1C00
00FF1800
01E78000
03C78000
0383C000
0701E000
0F00F000
00000000
00000000
00000000
0FFFF000
0FFFF000
0FFFF000
0FFFF000
0F000000
0F000000
0F000000
0F000000
0F000000
0F000000
0F000000
0F000000
0F000000
0F000000
0F000000
0F000000
0F000000
FFFFFC00
FFFFFC00
FFFFFC00
FFFFFC00
0F000000
0F000000
0F000000
0F000000
0F000000
0F000000
0F000000
0F000000
0F000000
0F000000
0F000000
0F000000
0F000000
0F000000
0FFFFFC0
0FFFFFC0
0FFFFFC0
0FFFFFC0
ENDCHAR
STARTCHAR 1EBF
ENCODING 7871
SWIDTH 486 0
DWIDTH 27 0
BBX 27 55 1 0
BITMAP
000001E0
000003C0
00000380
00000780
00000F00
003C0E00
007E1C00
00FF1800
01E78000
03C78000
0383C000
0701E000
0F00F000
00000000
00000000
00000000
0FFFF000
0FFFF000
0FFFF000
0FFFF000
0F000000
0F000000
0F000000
0F000000
0F000000
0F000000
0F000000
0F000000
0F000000
0F000000
0F000000
0F000000
0F000000
FFFFFC00
FFFFFC00
FFFFFC00
FFFFFC00
0F000000
0F000000
0F000000
0F000000
0F000000
0F000000
0F000000
0F000000
0F000000
0F000000
0F000000
0F000000
0F000000
0F000000
0FFFFFC0
0FFFFFC0
0FFFFFC0
0FFFFFC0
ENDCHAR
STARTCHAR 1EC0
ENCODING 7872
SWIDTH 486 0
DWIDTH 27 0
BBX 30 55 -3 0
BITMAP
F0000000
78000000
38000000
3C000000
1C000000
0E07C000
0707E000
070FF000
001E7800
003C7800
00383C00
00701E00
00F00F00
00000000
00000000
00000000
00FFFF00
00FFFF00
00FFFF00
00FFFF00
00F00000
00F00000
00F00000
00F00000
00F00000
00F00000
00F00000
00F00000
00F00000
00F00000
00F00000
00F00000
00F00000
0FFFFFC0
0FFFFFC0
0FFFFFC0
0FFFFFC0
00F00000
00F00000
00F00000
00F00000
00F00000
00F00000
00F00000
00F00000
00F00000
00F00000
00F00000
00F00000
00F00000
00F00000
00FFFFFC
00FFFFFC
00FFFFFC
00FFFFFC
ENDCHAR
STARTCHAR 1EC1
ENCODING 7873
SWIDTH 486 0
DWIDTH 27 0
BBX 30 55 -3 0
BITMAP
F0000000
78000000
38000000
3C000000
1C000000
0E07C000
0707E000
070FF000
001E7800
003C7800
00383C00
00701E00
00F00F00
00000000
00000000
00000000
00FFFF00
00FFFF00
00FFFF00
00FFFF00
00F00000
00F00000
00F00000
00F00000
00F00000
00F00000
00F00000
00F00000
00F00000
00F00000
00F00000
00F00000
00F00000
0FFFFFC0
0FFFFFC0
0FFFFFC0
0FFFFFC0
00F00000
00F00000
00F00000
00F00000
00F00000
00F00000
00F00000
00F00000
00F00000
00F00000
00F00000
00F00000
00F00000
00F00000
00FFFFFC
00FFFFFC
00FFFFFC
00FFFFFC
ENDCHAR
STARTCHAR 1EC2
ENCODING 7874
SWIDTH 486 0
DWIDTH 27 0
BBX 26 57 1 0
BITMAP
00001C00
00000C00
00000E00
00001C00
00001C00
00001800
00003800
003C3800
007E3800
00FF1C00
01E78000
03C78000
0383C000
0701E000
0F00F000
00000000
00000000
00000000
0FFFF000
0FFFF000
0FFFF000
0FFFF000
0F000000
0F000000
0F000000
0F000000
0F000000
0F000000
0F000000
0F000000
0F000000
0F000000
0F000000
0F000000
0F000000
FFFFFC00
FFFFFC00
FFFFFC00
FFFFFC00
0F000000
0F000000
0F000000
0F000000
0F000000
0F000000
0F000000
0F000000
0F000000
0F000000
0F000000
0F000000
0F000000
0F000000
0FFFFFC0
0FFFFFC0
0FFFFFC0
0FFFFFC0
ENDCHAR
STARTCHAR 1EC3
ENCODING 7875
SWIDTH 486 0
DWIDTH 27 0
BBX 26 57 1 0
BITMAP
00001C00
00000C00
00000E00
00001C00
00001C00
00001800
00003800
003C3800
007E3800
00FF1C00
01E78000
03C78000
0383C000
0701E000
0F00F000
00000000
00000000
00000000
0FFFF000
0FFFF000
0FFFF000
0FFFF000
0F000000
0F000000
0F000000
0F000000
0F000000
0F000000
0F000000
0F000000
0F000000
0F000000
0F000000
0F000000
0F000000
FFFFFC00
FFFFFC00
FFFFFC00
FFFFFC00
0F000000
0F000000
0F000000
0F000000
0F000000
0F000000
0F000000
0F000000
0F000000
0F000000
0F000000
0F000000
0F000000
0F000000
0FFFFFC0
0FFFFFC0
0FFFFFC0
0FFFFFC0
ENDCHAR
STARTCHAR 1EC4
ENCODING 7876
SWIDTH 486 0
DWIDTH 27 0
BBX 26 55 1 0
BITMAP
0007C000
000FFF80
000FFF80
00003F00
00000000
003C0000
007E0000
00FF0000
01E78000
03C78000
0383C000
0701E000
0F00F000
00000000
00000000
00000000
0FFFF000
0FFFF000
0FFFF000
0FFFF000
0F000000
0F000000
0F000000
0F000000
0F000000
0F000000
0F000000
0F000000
0F000000
0F000000
0F000000
0F000000
0F000000
FFFFFC00
FFFFFC00
FFFFFC00
FFFFFC00
0F000000
0F000000
0F000000
0F000000
0F000000
0F000000
0F000000
0F000000
0F000000
0F000000
0F000000
0F000000
0F000000
0F000000
0FFFFFC0
0FFFFFC0
0FFFFFC0
0FFFFFC0
ENDCHAR
STARTCHAR 1EC5
ENCODING 7877
SWIDTH 486 0
DWIDTH 27 0
BBX 26 55 1 0
BITMAP
0007C000
000FFF80
000FFF80
00003F00
00000000
003C0000
007E0000
00FF0000
01E78000
03C78000
0383C000
0701E000
0F00F000
00000000
00000000
00000000
0FFFF000
0FFFF000
0FFFF000
0FFFF000
0F000000
0F000000
0F000000
0F000000
0F000000
0F000000
0F000000
0F000000
0F000000
0F000000
0F000000
0F000000
0F000000
FFFFFC00
FFFFFC00
FFFFFC00
FFFFFC00
0F000000
0F000000
0F000000
0F000000
0F000000
0F000000
0F000000
0F000000
0F000000
0F000000
0F000000
0F000000
0F000000
0F000000
0FFFFFC0
0FFFFFC0
0FFFFFC0
0FFFFFC0
ENDCHAR
STARTCHAR 1EC6
ENCODING 7878
SWIDTH 486 0
DWIDTH 27 0
BBX 26 65 1 -15
BITMAP
003C0000
007E0000
00FF0000
01E78000
03C78000
0383C000
0701E000
0F00F000
00000000
00000000
00000000
0FFFF000
0FFFF000
0FFFF000
0FFFF000
0F000000
0F000000
0F000000
0F000000
0F000000
0F000000
0F000000
0F000000
0F000000
0F000000
0F000000
0F000000
0F000000
FFFFFC00
FFFFFC00
FFFFFC00
FFFFFC00
0F000000
0F000000
0F000000
0F000000
0F000000
0F000000
0F000000
0F000000
0F000000
0F000000
0F000000
0F000000
0F000000
0F000000
0FFFFFC0
0FFFFFC0
0FFFFFC0
0FFFFFC0
00000000
00000000
00000000
00000000
00000000
00000000
00000000
00038000
0007E000
000FE000
000FF000
000FF000
000FE000
0007E000
00038000
ENDCHAR
STARTCHAR 1EC7
ENCODING 7879
SWIDTH 486 0
DWIDTH 27 0
BBX 26 65 1 -15
BITMAP
003C0000
007E0000
00FF0000
01E78000
03C78000
0383C000
0701E000
0F00F000
00000000
00000000
00000000
0FFFF000
0FFFF000
0FFFF000
0FFFF000
0F000000
0F000000
0F000000
0F000000
0F000000
0F000000
0F000000
0F000000
0F000000
0F000000
0F000000
0F000000
0F000000
FFFFFC00
FFFFFC00
FFFFFC00
FFFFFC00
0F000000
0F000000
0F000000
0F000000
0F000000
0F000000
0F000000
0F000000
0F000000
0F000000
0F000000
0F000000
0F000000
0F000000
0FFFFFC0
0FFFFFC0
0FFFFFC0
0FFFFFC0
00000000
00000000
00000000
00000000
00000000
00000000
00000000
00038000
0007E000
000FE000
000FF000
000FF000
000FE000
0007E000
00038000
ENDCHAR
STARTCHAR 1EC8
ENCODING 7880
SWIDTH 162 0
DWIDTH 9 0
BBX 4 38 3 0
BITMAP
E0
70
70
70
70
E0
E0
E0
E0
E0
E0
00
00
00
F0
F0
F0
F0
F0
F0
F0
F0
F0
F0
F0
F0
F0
F0
F0
F0
F0
F0
F0
F0
F0
F0
F0
F0
ENDCHAR
STARTCHAR 1EC9
ENCODING 7881
SWIDTH 162 0
DWIDTH 9 0
BBX 4 38 3 0
BITMAP
E0
70
70
70
70
E0
E0
E0
E0
E0
E0
00
00
00
F0
F0
F0
F0
F0
F0
F0
F0
F0
F0
F0
F0
F0
F0
F0
F0
F0
F0
F0
F0
F0
F0
F0
F0
ENDCHAR
STARTCHAR 1ECA
ENCODING 7882
SWIDTH 162 0
DWIDTH 9 0
BBX 13 58 -2 -14
BITMAP
0200
0200
0300
0700
FFF8
3FE0
1FC0
0F80
0FC0
1DC0
1840
2020
0000
0000
0000
0000
0000
0000
0000
0780
0780
0780
0780
0780
0780
0780
0780
0780
0780
0780
0780
0780
0780
0780
0780
0780
0780
0780
0780
0780
0780
0780
0780
0000
0000
0000
0000
0000
0000
0000
0700
0FC0
1FC0
1FE0
1FE0
1FC0
0FC0
0700
ENDCHAR
STARTCHAR 1ECB
ENCODING 7883
SWIDTH 162 0
DWIDTH 9 0
BBX 13 58 -2 -14
BITMAP
0200
0200
0300
0700
FFF8
3FE0
1FC0
0F80
0FC0
1DC0
1840
2020
0000
0000
0000
0000
0000
0000
0000
0780
0780
0780
0780
0780
0780
0780
0780
0780
0780
0780
0780
0780
0780
0780
0780
0780
0780
0780
0780
0780
0780
0780
0780
0000
0000
0000
0000
0000
0000
0000
0700
0FC0
1FC0
1FE0
1FE0
1FC0
0FC0
0700
ENDCHAR
STARTCHAR 1ECC
ENCODING 7884
SWIDTH 810 0
DWIDTH 45 0
BBX 41 55 2 -15
BITMAP
00003E000000
0007FFF00000
001FFFFC0000
007FFFFF0000
00FF80FFC000
03FC001FE000
07F00007F000
0FC00001F800
0F800000F800
1F0000007C00
3E0000003E00
3E0000001E00
7C0000001F00
780000000F00
780000000F00
F80000000F80
F00000000780
F00000000780
F00000000780
F00000000780
F00000000780
F00000000780
F00000000780
F00000000780
F00000000780
F80000000F80
780000000F00
780000000F00
7C0000001F00
3C0000001E00
3E0000003E00
1F0000007C00
0F800000FC00
0FC00001F800
07F00007F000
03F8000FE000
01FF80FFC000
007FFFFF0000
001FFFFC0000
0007FFF00000
00007F000000
000000000000
000000000000
000000000000
000000000000
000000000000
000000000000
00001C000000
00003E000000
00007F000000
00007F000000
00007F000000
00007F000000
00003E000000
00001C000000
ENDCHAR
STARTCHAR 1ECD
ENCODING 7885
SWIDTH 810 0
DWIDTH 45 0
BBX 41 55 2 -15
BITMAP
00003E000000
0007FFF00000
001FFFFC0000
007FFFFF0000
00FF80FFC000
03FC001FE000
07F00007F000
0FC00001F800
0F800000F800
1F0000007C00
3E0000003E00
3E0000001E00
7C0000001F00
780000000F00
780000000F00
F80000000F80
F00000000780
F00000000780
F00000000780
F00000000780
F00000000780
F00000000780
F00000000780
F00000000780
F00000000780
F80000000F80
780000000F00
780000000F00
7C0000001F00
3C0000001E00
3E0000003E00
1F0000007C00
0F800000FC00
0FC00001F800
07F00007F000
03F8000FE000
01FF80FFC000
007FFFFF0000
001FFFFC0000
0007FFF00000
00007F000000
000000000000
000000000000
000000000000
000000000000
000000000000
000000000000
00001C000000
00003E000000
00007F000000
00007F000000
00007F000000
00007F000000
00003E000000
00001C000000
ENDCHAR
STARTCHAR 1ECE
ENCODING 7886
SWIDTH 810 0
DWIDTH 45 0
BBX 41 54 2 -1
BITMAP
00001C000000
00000C000000
00000E000000
00000E000000
00001C000000
00001C000000
000038000000
000038000000
000038000000
000018000000
00001C000000
000000000000
000000000000
00003E000000
0007FFF00000
001FFFFC0000
007FFFFF0000
00FF80FFC000
03FC001FE000
07F00007F000
0FC00001F800
0F800000F800
1F0000007C00
3E0000003E00
3E0000001E00
7C0000001F00
780000000F00
780000000F00
F80000000F80
F00000000780
F00000000780
F00000000780
F00000000780
F00000000780
F00000000780
F00000000780
F00000000780
F00000000780
F80000000F80
780000000F00
780000000F00
7C0000001F00
3C0000001E00
3E0000003E00
1F0000007C00
0F800000FC00
0FC00001F800
07F00007F000
03F8000FE000
01FF80FFC000
007FFFFF0000
001FFFFC0000
0007FFF00000
00007F000000
ENDCHAR
STARTCHAR 1ECF
ENCODING 7887
SWIDTH 810 0
DWIDTH 45 0
BBX 41 54 2 -1
BITMAP
00001C000000
00000C000000
00000E000000
00000E000000
00001C000000
00001C000000
000038000000
000038000000
000038000000
000018000000
00001C000000
000000000000
000000000000
00003E000000
0007FFF00000
001FFFFC0000
007FFFFF0000
00FF80FFC000
03FC001FE000
07F00007F000
0FC00001F800
0F800000F800
1F0000007C00
3E0000003E00
3E0000001E00
7C0000001F00
780000000F00
780000000F00
F80000000F80
F00000000780
F00000000780
F00000000780
F00000000780
F00000000780
F00000000780
F00000000780
F00000000780
F00000000780
F80000000F80
780000000F00
780000000F00
7C0000001F00
3C0000001E00
3E0000003E00
1F0000007C00
0F800000FC00
0FC00001F800
07F00007F000
03F8000FE000
01FF80FFC000
007FFFFF0000
001FFFFC0000
0007FFF00000
00007F000000
ENDCHAR
STARTCHAR 1ED0
ENCODING 7888
SWIDTH 810 0
DWIDTH 45 0
BBX 41 56 2 -1
BITMAP
00000000E000
00000001E000
00000003C000
000000038000
000000070000
00003E0F0000
00007F0E0000
00007F1C0000
0000F7800000
0001E3C00000
0003C1E00000
000780F00000
000700700000
000000000000
000000000000
00003E000000
0007FFF00000
001FFFFC0000
007FFFFF0000
00FF80FFC000
03FC001FE000
07F00007F000
0FC00001F800
0F800000F800
1F0000007C00
3E0000003E00
3E0000001E00
7C0000001F00
780000000F00
780000000F00
F80000000F80
F00000000780
F00000000780
F00000000780
F00000000780
F00000000780
F00000000780
F00000000780
F00000000780
F00000000780
F80000000F80
780000000F00
780000000F00
7C0000001F00
3C0000001E00
3E0000003E00
1F0000007C00
0F800000FC00
0FC00001F800
07F00007F000
03F8000FE000
01FF80FFC000
007FFFFF0000
001FFFFC0000
0007FFF00000
00007F000000
ENDCHAR
STARTCHAR 1ED1
ENCODING 7889
SWIDTH 810 0
DWIDTH 45 0
BBX 41 56 2 -1
BITMAP
00000000E000
00000001E000
00000003C000
000000038000
000000070000
00003E0F0000
00007F0E0000
00007F1C0000
0000F7800000
0001E3C00000
0003C1E00000
000780F00000
000700700000
000000000000
000000000000
00003E000000
0007FFF00000
001FFFFC0000
007FFFFF0000
00FF80FFC000
03FC001FE000
07F00007F000
0FC00001F800
0F800000F800
1F0000007C00
3E0000003E00
3E0000001E00
7C0000001F00
780000000F00
780000000F00
F80000000F80
F00000000780
F00000000780
F00000000780
F00000000780
F00000000780
F00000000780
F00000000780
F00000000780
F00000000780
F80000000F80
780000000F00
780000000F00
7C0000001F00
3C0000001E00
3E0000003E00
1F0000007C00
0F800000FC00
0FC00001F800
07F00007F000
03F8000FE000
01FF80FFC000
007FFFFF0000
001FFFFC0000
0007FFF00000
00007F000000
ENDCHAR
STARTCHAR 1ED2
ENCODING 7890
SWIDTH 810 0
DWIDTH 45 0
BBX 41 56 2 -1
BITMAP
078000000000
078000000000
03C000000000
01C000000000
00E000000000
00F03E000000
00707F000000
00387F000000
0000F7800000
0001E3C00000
0003C1E00000
000780F00000
000700700000
000000000000
000000000000
00003E000000
0007FFF00000
001FFFFC0000
007FFFFF0000
00FF80FFC000
03FC001FE000
07F00007F000
0FC00001F800
0F800000F800
1F0000007C00
3E0000003E00
3E0000001E00
7C0000001F00
780000000F00
780000000F00
F80000000F80
F00000000780
F00000000780
F00000000780
F00000000780
F00000000780
F00000000780
F00000000780
F00000000780
F00000000780
F80000000F80
780000000F00
780000000F00
7C0000001F00
3C0000001E00
3E0000003E00
1F0000007C00
0F800000FC00
0FC00001F800
07F00007F000
03F8000FE000
01FF80FFC000
007FFFFF0000
001FFFFC0000
0007FFF00000
00007F000000
ENDCHAR
STARTCHAR 1ED3
ENCODING 7891
SWIDTH 810 0
DWIDTH 45 0
BBX 41 56 2 -1
BITMAP
078000000000
078000000000
03C000000000
01C000000000
00E000000000
00F03E000000
00707F000000
00387F000000
0000F7800000
0001E3C00000
0003C1E00000
000780F00000
000700700000
000000000000
000000000000
00003E000000
0007FFF00000
001FFFFC0000
007FFFFF0000
00FF80FFC000
03FC001FE000
07F00007F000
0FC00001F800
0F800000F800
1F0000007C00
3E0000003E00
3E0000001E00
7C0000001F00
780000000F00
780000000F00
F80000000F80
F00000000780
F00000000780
F00000000780
F00000000780
F00000000780
F00000000780
F00000000780
F00000000780
F00000000780
F80000000F80
780000000F00
780000000F00
7C0000001F00
3C0000001E00
3E0000003E00
1F0000007C00
0F800000FC00
0FC00001F800
07F00007F000
03F8000FE000
01FF80FFC000
007FFFFF0000
001FFFFC0000
0007FFF00000
00007F000000
ENDCHAR
STARTCHAR 1ED4
ENCODING 7892
SWIDTH 810 0
DWIDTH 45 0
BBX 41 58 2 -1
BITMAP
0000000E0000
0000000E0000
0000000E0000
0000000E0000
0000000E0000
0000001C0000
0000001C0000
00003E1C0000
00007F1C0000
00007F1C0000
0000F7800000
0001E3C00000
0003C1E00000
000780F00000
000700700000
000000000000
000000000000
00003E000000
0007FFF00000
001FFFFC0000
007FFFFF0000
00FF80FFC000
03FC001FE000
07F00007F000
0FC00001F800
0F800000F800
1F0000007C00
3E0000003E00
3E0000001E00
7C0000001F00
780000000F00
780000000F00
F80000000F80
F00000000780
F00000000780
F00000000780
F00000000780
F00000000780
F00000000780
F00000000780
F00000000780
F00000000780
F80000000F80
780000000F00
780000000F00
7C0000001F00
3C0000001E00
3E0000003E00
1F0000007C00
0F800000FC00
0FC00001F800
07F00007F000
03F8000FE000
01FF80FFC000
007FFFFF0000
001FFFFC0000
0007FFF00000
00007F000000
ENDCHAR
STARTCHAR 1ED5
ENCODING 7893
SWIDTH 810 0
DWIDTH 45 0
BBX 41 58 2 -1
BITMAP
0000000E0000
0000000E0000
0000000E0000
0000000E0000
0000000E0000
0000001C0000
0000001C0000
00003E1C0000
00007F1C0000
00007F1C0000
0000F7800000
0001E3C00000
0003C1E00000
000780F00000
000700700000
000000000000
000000000000
00003E000000
0007FFF00000
001FFFFC0000
007FFFFF0000
00FF80FFC000
03FC001FE000
07F00007F000
0FC00001F800
0F800000F800
1F0000007C00
3E0000003E00
3E0000001E00
7C0000001F00
780000000F00
780000000F00
F80000000F80
F00000000780
F00000000780
F00000000780
F00000000780
F00000000780
F00000000780
F00000000780
F00000000780
F00000000780
F80000000F80
780000000F00
780000000F00
7C0000001F00
3C0000001E00
3E0000003E00
1F0000007C00
0F800000FC00
0FC00001F800
07F00007F000
03F8000FE000
01FF80FFC000
007FFFFF0000
001FFFFC0000
0007FFF00000
00007F000000
ENDCHAR
STARTCHAR 1ED6
ENCODING 7894
SWIDTH 810 0
DWIDTH 45 0
BBX 41 56 2 -1
BITMAP
000007E00000
00000FFFC000
00000FFFC000
0000081F8000
000000000000
00003E000000
00007F000000
00007F000000
0000F7800000
0001E3C00000
0003C1E00000
000780F00000
000700700000
000000000000
000000000000
00003E000000
0007FFF00000
001FFFFC0000
007FFFFF0000
00FF80FFC000
03FC001FE000
07F00007F000
0FC00001F800
0F800000F800
1F0000007C00
3E0000003E00
3E0000001E00
7C0000001F00
780000000F00
780000000F00
F80000000F80
F00000000780
F00000000780
F00000000780
F00000000780
F00000000780
F00000000780
F00000000780
F00000000780
F00000000780
F80000000F80
780000000F00
780000000F00
7C0000001F00
3C0000001E00
3E0000003E00
1F0000007C00
0F800000FC00
0FC00001F800
07F00007F000
03F8000FE000
01FF80FFC000
007FFFFF0000
001FFFFC0000
0007FFF00000
00007F000000
ENDCHAR
STARTCHAR 1ED7
ENCODING 7895
SWIDTH 810 0
DWIDTH 45 0
BBX 41 56 2 -1
BITMAP
000007E00000
00000FFFC000
00000FFFC000
0000081F8000
000000000000
00003E000000
00007F000000
00007F000000
0000F7800000
0001E3C00000
0003C1E00000
000780F00000
000700700000
000000000000
000000000000
00003E000000
0007FFF00000
001FFFFC0000
007FFFFF0000
00FF80FFC000
03FC001FE000
07F00007F000
0FC00001F800
0F800000F800
1F0000007C00
3E0000003E00
3E0000001E00
7C0000001F00
780000000F00
780000000F00
F80000000F80
F00000000780
F00000000780
F00000000780
F00000000780
F00000000780
F00000000780
F00000000780
F00000000780
F00000000780
F80000000F80
780000000F00
780000000F00
7C0000001F00
3C0000001E00
3E0000003E00
1F0000007C00
0F800000FC00
0FC00001F800
07F00007F000
03F8000FE000
01FF80FFC000
007FFFFF0000
001FFFFC0000
0007FFF00000
00007F000000
ENDCHAR
STARTCHAR 1ED8
ENCODING 7896
SWIDTH 810 0
DWIDTH 45 0
BBX 41 65 2 -15
BITMAP
00003E000000
00007F000000
00007F000000
0000F7800000
0001E3C00000
0003C1E00000
000780F00000
000700700000
000000000000
000000000000
00003E000000
0007FFF00000
001FFFFC0000
007FFFFF0000
00FF80FFC000
03FC001FE000
07F00007F000
0FC00001F800
0F800000F800
1F0000007C00
3E0000003E00
3E0000001E00
7C0000001F00
780000000F00
780000000F00
F80000000F80
F00000000780
F00000000780
F00000000780
F00000000780
F00000000780
F00000000780
F00000000780
F00000000780
F00000000780
F80000000F80
780000000F00
780000000F00
7C0000001F00
3C0000001E00
3E0000003E00
1F0000007C00
0F800000FC00
0FC00001F800
07F00007F000
03F8000FE000
01FF80FFC000
007FFFFF0000
001FFFFC0000
0007FFF00000
00007F000000
000000000000
000000000000
000000000000
000000000000
000000000000
000000000000
00001C000000
00003E000000
00007F000000
00007F000000
00007F000000
00007F000000
00003E000000
00001C000000
ENDCHAR
STARTCHAR 1ED9
ENCODING 7897
SWIDTH 810 0
DWIDTH 45 0
BBX 41 65 2 -15
BITMAP
00003E000000
00007F000000
00007F000000
0000F7800000
0001E3C00000
0003C1E00000
000780F00000
000700700000
000000000000
000000000000
00003E000000
0007FFF00000
001FFFFC0000
007FFFFF0000
00FF80FFC000
03FC001FE000
07F00007F000
0FC00001F800
0F800000F800
1F0000007C00
3E0000003E00
3E0000001E00
7C0000001F00
780000000F00
780000000F00
F80000000F80
F00000000780
F00000000780
F00000000780
F00000000780
F00000000780
F00000000780
F00000000780
F00000000780
F00000000780
F80000000F80
780000000F00
780000000F00
7C0000001F00
3C0000001E00
3E0000003E00
1F0000007C00
0F800000FC00
0FC00001F800
07F00007F000
03F8000FE000
01FF80FFC000
007FFFFF0000
001FFFFC0000
0007FFF00000
00007F000000
000000000000
000000000000
000000000000
000000000000
000000000000
000000000000
00001C000000
00003E000000
00007F000000
00007F000000
00007F000000
00007F000000
00003E000000
00001C000000
ENDCHAR
STARTCHAR 1EDA
ENCODING 7898
SWIDTH 810 0
DWIDTH 45 0
BBX 41 50 2 -1
BITMAP
000003C00000
000007800000
000007000000
00000E000000
00001E000000
00001C007000
000038007000
00000000F000
00000000F000
00003E01E000
0007FFF3C000
001FFFFF8000
007FFFFF0000
00FF80FFC000
03FC001FE000
07F00007F000
0FC00001F800
0F800000F800
1F0000007C00
3E0000003E00
3E0000001E00
7C0000001F00
780000000F00
780000000F00
F80000000F80
F00000000780
F00000000780
F00000000780
F00000000780
F00000000780
F00000000780
F00000000780
F00000000780
F00000000780
F80000000F80
780000000F00
780000000F00
7C0000001F00
3C0000001E00
3E0000003E00
1F0000007C00
0F800000FC00
0FC00001F800
07F00007F000
03F8000FE000
01FF80FFC000
007FFFFF0000
001FFFFC0000
0007FFF00000
00007F000000
ENDCHAR
STARTCHAR 1EDB
ENCODING 7899
SWIDTH 810 0
DWIDTH 45 0
BBX 41 50 2 -1
BITMAP
000003C00000
000007800000
000007000000
00000E000000
00001E000000
00001C007000
000038007000
00000000F000
00000000F000
00003E01E000
0007FFF3C000
001FFFFF8000
007FFFFF0000
00FF80FFC000
03FC001FE000
07F00007F000
0FC00001F800
0F800000F800
1F0000007C00
3E0000003E00
3E0000001E00
7C0000001F00
780000000F00
780000000F00
F80000000F80
F00000000780
F00000000780
F00000000780
F00000000780
F00000000780
F00000000780
F00000000780
F00000000780
F00000000780
F80000000F80
780000000F00
780000000F00
7C0000001F00
3C0000001E00
3E0000003E00
1F0000007C00
0F800000FC00
0FC00001F800
07F00007F000
03F8000FE000
01FF80FFC000
007FFFFF0000
001FFFFC0000
0007FFF00000
00007F000000
ENDCHAR
STARTCHAR 1EDC
ENCODING 7900
SWIDTH 810 0
DWIDTH 45 0
BBX 41 50 2 -1
BITMAP
0001E0000000
0000F0000000
000070000000
000038000000
00003C000000
00001C007000
00000E007000
00000000F000
00000000F000
00003E01E000
0007FFF3C000
001FFFFF8000
007FFFFF0000
00FF80FFC000
03FC001FE000
07F00007F000
0FC00001F800
0F800000F800
1F0000007C00
3E0000003E00
3E0000001E00
7C0000001F00
780000000F00
780000000F00
F80000000F80
F00000000780
F00000000780
F00000000780
F00000000780
F00000000780
F00000000780
F00000000780
F00000000780
F00000000780
F80000000F80
780000000F00
780000000F00
7C0000001F00
3C0000001E00
3E0000003E00
1F0000007C00
0F800000FC00
0FC00001F800
07F00007F000
03F8000FE000
01FF80FFC000
007FFFFF0000
001FFFFC0000
0007FFF00000
00007F000000
ENDCHAR
STARTCHAR 1EDD
ENCODING 7901
SWIDTH 810 0
DWIDTH 45 0
BBX 41 50 2 -1
BITMAP
0001E0000000
0000F0000000
000070000000
000038000000
00003C000000
00001C007000
00000E007000
00000000F000
00000000F000
00003E01E000
0007FFF3C000
001FFFFF8000
007FFFFF0000
00FF80FFC000
03FC001FE000
07F00007F000
0FC00001F800
0F800000F800
1F0000007C00
3E0000003E00
3E0000001E00
7C0000001F00
780000000F00
780000000F00
F80000000F80
F00000000780
F00000000780
F00000000780
F00000000780
F00000000780
F00000000780
F00000000780
F00000000780
F00000000780
F80000000F80
780000000F00
780000000F00
7C0000001F00
3C0000001E00
3E0000003E00
1F0000007C00
0F800000FC00
0FC00001F800
07F00007F000
03F8000FE000
01FF80FFC000
007FFFFF0000
001FFFFC0000
0007FFF00000
00007F000000
ENDCHAR
STARTCHAR 1EDE
ENCODING 7902
SWIDTH 810 0
DWIDTH 45 0
BBX 41 54 2 -1
BITMAP
00001C000000
00000C000000
00000E000000
00000E000000
00001C000000
00001C000000
000038000000
000038000000
000038000000
000018007000
00001C007000
00000000F000
00000000F000
00003E01E000
0007FFF3C000
001FFFFF8000
007FFFFF0000
00FF80FFC000
03FC001FE000
07F00007F000
0FC00001F800
0F800000F800
1F0000007C00
3E0000003E00
3E0000001E00
7C0000001F00
780000000F00
780000000F00
F80000000F80
F00000000780
F00000000780
F00000000780
F00000000780
F00000000780
F00000000780
F00000000780
F00000000780
F00000000780
F80000000F80
780000000F00
780000000F00
7C0000001F00
3C0000001E00
3E0000003E00
1F0000007C00
0F800000FC00
0FC00001F800
07F00007F000
03F8000FE000
01FF80FFC000
007FFFFF0000
001FFFFC0000
0007FFF00000
00007F000000
ENDCHAR
STARTCHAR 1EDF
ENCODING 7903
SWIDTH 810 0
DWIDTH 45 0
BBX 41 54 2 -1
BITMAP
00001C000000
00000C000000
00000E000000
00000E000000
00001C000000
00001C000000
000038000000
000038000000
000038000000
000018007000
00001C007000
00000000F000
00000000F000
00003E01E000
0007FFF3C000
001FFFFF8000
007FFFFF0000
00FF80FFC000
03FC001FE000
07F00007F000
0FC00001F800
0F800000F800
1F0000007C00
3E0000003E00
3E0000001E00
7C0000001F00
780000000F00
780000000F00
F80000000F80
F00000000780
F00000000780
F00000000780
F00000000780
F00000000780
F00000000780
F00000000780
F00000000780
F00000000780
F80000000F80
780000000F00
780000000F00
7C0000001F00
3C0000001E00
3E0000003E00
1F0000007C00
0F800000FC00
0FC00001F800
07F00007F000
03F8000FE000
01FF80FFC000
007FFFFF0000
001FFFFC0000
0007FFF00000
00007F000000
ENDCHAR
STARTCHAR 1EE0
ENCODING 7904
SWIDTH 810 0
DWIDTH 45 0
BBX 41 50 2 -1
BITMAP
0001E0000000
0007FFC00000
0007FFC00000
00041FC00000
000000000000
000000007000
000000007000
00000000F000
00000000F000
00003E01E000
0007FFF3C000
001FFFFF8000
007FFFFF0000
00FF80FFC000
03FC001FE000
07F00007F000
0FC00001F800
0F800000F800
1F0000007C00
3E0000003E00
3E0000001E00
7C0000001F00
780000000F00
780000000F00
F80000000F80
F00000000780
F00000000780
F00000000780
F00000000780
F00000000780
F00000000780
F00000000780
F00000000780
F00000000780
F80000000F80
780000000F00
780000000F00
7C0000001F00
3C0000001E00
3E0000003E00
1F0000007C00
0F800000FC00
0FC00001F800
07F00007F000
03F8000FE000
01FF80FFC000
007FFFFF0000
001FFFFC0000
0007FFF00000
00007F000000
ENDCHAR
STARTCHAR 1EE1
ENCODING 7905
SWIDTH 810 0
DWIDTH 45 0
BBX 41 50 2 -1
BITMAP
0001E0000000
0007FFC00000
0007FFC00000
00041FC00000
000000000000
000000007000
000000007000
00000000F000
00000000F000
00003E01E000
0007FFF3C000
001FFFFF8000
007FFFFF0000
00FF80FFC000
03FC001FE000
07F00007F000
0FC00001F800
0F800000F800
1F0000007C00
3E0000003E00
3E0000001E00
7C0000001F00
780000000F00
780000000F00
F80000000F80
F00000000780
F00000000780
F00000000780
F00000000780
F00000000780
F00000000780
F00000000780
F00000000780
F00000000780
F80000000F80
780000000F00
780000000F00
7C0000001F00
3C0000001E00
3E0000003E00
1F0000007C00
0F800000FC00
0FC00001F800
07F00007F000
03F8000FE000
01FF80FFC000
007FFFFF0000
001FFFFC0000
0007FFF00000
00007F000000
ENDCHAR
STARTCHAR 1EE2
ENCODING 7906
SWIDTH 810 0
DWIDTH 45 0
BBX 41 59 2 -15
BITMAP
000000007000
000000007000
00000000F000
00000000F000
00003E01E000
0007FFF3C000
001FFFFF8000
007FFFFF0000
00FF80FFC000
03FC001FE000
07F00007F000
0FC00001F800
0F800000F800
1F0000007C00
3E0000003E00
3E0000001E00
7C0000001F00
780000000F00
780000000F00
F80000000F80
F00000000780
F00000000780
F00000000780
F00000000780
F00000000780
F00000000780
F00000000780
F00000000780
F00000000780
F80000000F80
780000000F00
780000000F00
7C0000001F00
3C0000001E00
3E0000003E00
1F0000007C00
0F800000FC00
0FC00001F800
07F00007F000
03F8000FE000
01FF80FFC000
007FFFFF0000
001FFFFC0000
0007FFF00000
00007F000000
000000000000
000000000000
000000000000
000000000000
000000000000
000000000000
00001C000000
00003E000000
00007F000000
00007F000000
00007F000000
00007F000000
00003E000000
00001C000000
ENDCHAR
STARTCHAR 1EE3
ENCODING 7907
SWIDTH 810 0
DWIDTH 45 0
BBX 41 59 2 -15
BITMAP
000000007000
000000007000
00000000F000
00000000F000
00003E01E000
0007FFF3C000
001FFFFF8000
007FFFFF0000
00FF80FFC000
03FC001FE000
07F00007F000
0FC00001F800
0F800000F800
1F0000007C00
3E0000003E00
3E0000001E00
7C0000001F00
780000000F00
780000000F00
F80000000F80
F00000000780
F00000000780
F00000000780
F00000000780
F00000000780
F00000000780
F00000000780
F00000000780
F00000000780
F80000000F80
780000000F00
780000000F00
7C0000001F00
3C0000001E00
3E0000003E00
1F0000007C00
0F800000FC00
0FC00001F800
07F00007F000
03F8000FE000
01FF80FFC000
007FFFFF0000
001FFFFC0000
0007FFF00000
00007F000000
000000000000
000000000000
000000000000
000000000000
000000000000
000000000000
00001C000000
00003E000000
00007F000000
00007F000000
00007F000000
00007F000000
00003E000000
00001C000000
ENDCHAR
STARTCHAR 1EE4
ENCODING 7908
SWIDTH 486 0
DWIDTH 27 0
BBX 23 54 2 -15
BITMAP
F8001E
F8001E
F8001E
F8001E
F8001E
F8001E
F8001E
F8001E
F8001E
F8001E
F8001E
F8001E
F8001E
F8001E
F8001E
F8001E
F8001E
F8001E
F8001E
F8001E
F8001E
F8001E
F8001E
F8001E
F8001E
F8001E
F8001E
F8001E
F8001E
78001E
78001E
78003E
7C003C
3C007C
3E00F8
1F83F8
0FFFF0
07FFE0
03FF80
007E00
000000
000000
000000
000000
000000
000000
003800
007E00
00FE00
00FF00
00FF00
00FE00
007E00
003800
ENDCHAR
STARTCHAR 1EE5
ENCODING 7909
SWIDTH 486 0
DWIDTH 27 0
BBX 23 54 2 -15
BITMAP
F8001E
F8001E
F8001E
F8001E
F8001E
F8001E
F8001E
F8001E
F8001E
F8001E
F8001E
F8001E
F8001E
F8001E
F8001E
F8001E
F8001E
F8001E
F8001E
F8001E
F8001E
F8001E
F8001E
F8001E
F8001E
F8001E
F8001E
F8001E
F8001E
78001E
78001E
78003E
7C003C
3C007C
3E00F8
1F83F8
0FFFF0
07FFE0
03FF80
007E00
000000
000000
000000
000000
000000
000000
003800
007E00
00FE00
00FF00
00FF00
00FE00
007E00
003800
ENDCHAR
STARTCHAR 1EE6
ENCODING 7910
SWIDTH 486 0
DWIDTH 27 0
BBX 23 54 2 -1
BITMAP
003800
001C00
001C00
001C00
001800
003800
003800
007000
003000
003800
003800
000000
000000
000000
F8001E
F8001E
F8001E
F8001E
F8001E
F8001E
F8001E
F8001E
F8001E
F8001E
F8001E
F8001E
F8001E
F8001E
F8001E
F8001E
F8001E
F8001E
F8001E
F8001E
F8001E
F8001E
F8001E
F8001E
F8001E
F8001E
F8001E
F8001E
F8001E
78001E
78001E
78003E
7C003C
3C007C
3E00F8
1F83F8
0FFFF0
07FFE0
03FF80
007E00
ENDCHAR
STARTCHAR 1EE7
ENCODING 7911
SWIDTH 486 0
DWIDTH 27 0
BBX 23 54 2 -1
BITMAP
003800
001C00
001C00
001C00
001800
003800
003800
007000
003000
003800
003800
000000
000000
000000
F8001E
F8001E
F8001E
F8001E
F8001E
F8001E
F8001E
F8001E
F8001E
F8001E
F8001E
F8001E
F8001E
F8001E
F8001E
F8001E
F8001E
F8001E
F8001E
F8001E
F8001E
F8001E
F8001E
F8001E
F8001E
F8001E
F8001E
F8001E
F8001E
78001E
78001E
78003E
7C003C
3C007C
3E00F8
1F83F8
0FFFF0
07FFE0
03FF80
007E00
ENDCHAR
STARTCHAR 1EE8
ENCODING 7912
SWIDTH 486 0
DWIDTH 27 0
BBX 27 50 2 -1
BITMAP
00078000
000F0000
000E0000
001E0000
001C0000
003800E0
007000E0
000000E0
000001E0
000001C0
F8001FC0
F8001F00
F8001E00
F8001E00
F8001E00
F8001E00
F8001E00
F8001E00
F8001E00
F8001E00
F8001E00
F8001E00
F8001E00
F8001E00
F8001E00
F8001E00
F8001E00
F8001E00
F8001E00
F8001E00
F8001E00
F8001E00
F8001E00
F8001E00
F8001E00
F8001E00
F8001E00
F8001E00
F8001E00
78001E00
78001E00
78003E00
7C003C00
3C007C00
3E00F800
1F83F800
0FFFF000
07FFE000
03FF8000
007E0000
ENDCHAR
STARTCHAR 1EE9
ENCODING 7913
SWIDTH 486 0
DWIDTH 27 0
BBX 27 50 2 -1
BITMAP
00078000
000F0000
000E0000
001E0000
001C0000
003800E0
007000E0
000000E0
000001E0
000001C0
F8001FC0
F8001F00
F8001E00
F8001E00
F8001E00
F8001E00
F8001E00
F8001E00
F8001E00
F8001E00
F8001E00
F8001E00
F8001E00
F8001E00
F8001E00
F8001E00
F8001E00
F8001E00
F8001E00
F8001E00
F8001E00
F8001E00
F8001E00
F8001E00
F8001E00
F8001E00
F8001E00
F8001E00
F8001E00
78001E00
78001E00
78003E00
7C003C00
3C007C00
3E00F800
1F83F800
0FFFF000
07FFE000
03FF8000
007E0000
ENDCHAR
STARTCHAR 1EEA
ENCODING 7914
SWIDTH 486 0
DWIDTH 27 0
BBX 27 50 2 -1
BITMAP
03C00000
01E00000
00F00000
00700000
00380000
003C00E0
001C00E0
000000E0
000001E0
000001C0
F8001FC0
F8001F00
F8001E00
F8001E00
F8001E00
F8001E00
F8001E00
F8001E00
F8001E00
F8001E00
F8001E00
F8001E00
F8001E00
F8001E00
F8001E00
F8001E00
F8001E00
F8001E00
F8001E00
F8001E00
F8001E00
F8001E00
F8001E00
F8001E00
F8001E00
F8001E00
F8001E00
F8001E00
F8001E00
78001E00
78001E00
78003E00
7C003C00
3C007C00
3E00F800
1F83F800
0FFFF000
07FFE000
03FF8000
007E0000
ENDCHAR
STARTCHAR 1EEB
ENCODING 7915
SWIDTH 486 0
DWIDTH 27 0
BBX 27 50 2 -1
BITMAP
03C00000
01E00000
00F00000
00700000
00380000
003C00E0
001C00E0
000000E0
000001E0
000001C0
F8001FC0
F8001F00
F8001E00
F8001E00
F8001E00
F8001E00
F8001E00
F8001E00
F8001E00
F8001E00
F8001E00
F8001E00
F8001E00
F8001E00
F8001E00
F8001E00
F8001E00
F8001E00
F8001E00
F8001E00
F8001E00
F8001E00
F8001E00
F8001E00
F8001E00
F8001E00
F8001E00
F8001E00
F8001E00
78001E00
78001E00
78003E00
7C003C00
3C007C00
3E00F800
1F83F800
0FFFF000
07FFE000
03FF8000
007E0000
ENDCHAR
STARTCHAR 1EEC
ENCODING 7916
SWIDTH 486 0
DWIDTH 27 0
BBX 27 54 2 -1
BITMAP
00380000
001C0000
001C0000
001C0000
00180000
00380000
00380000
00700000
00300000
003800E0
003800E0
000000E0
000001E0
000001C0
F8001FC0
F8001F00
F8001E00
F8001E00
F8001E00
F8001E00
F8001E00
F8001E00
F8001E00
F8001E00
F8001E00
F8001E00
F8001E00
F8001E00
F8001E00
F8001E00
F8001E00
F8001E00
F8001E00
F8001E00
F8001E00
F8001E00
F8001E00
F8001E00
F8001E00
F8001E00
F8001E00
F8001E00
F8001E00
78001E00
78001E00
78003E00
7C003C00
3C007C00
3E00F800
1F83F800
0FFFF000
07FFE000
03FF8000
007E0000
ENDCHAR
STARTCHAR 1EED
ENCODING 7917
SWIDTH 486 0
DWIDTH 27 0
BBX 27 54 2 -1
BITMAP
00380000
001C0000
001C0000
001C0000
00180000
00380000
00380000
00700000
00300000
003800E0
003800E0
000000E0
000001E0
000001C0
F8001FC0
F8001F00
F8001E00
F8001E00
F8001E00
F8001E00
F8001E00
F8001E00
F8001E00
F8001E00
F8001E00
F8001E00
F8001E00
F8001E00
F8001E00
F8001E00
F8001E00
F8001E00
F8001E00
F8001E00
F8001E00
F8001E00
F8001E00
F8001E00
F8001E00
F8001E00
F8001E00
F8001E00
F8001E00
78001E00
78001E00
78003E00
7C003C00
3C007C00
3E00F800
1F83F800
0FFFF000
07FFE000
03FF8000
007E0000
ENDCHAR
STARTCHAR 1EEE
ENCODING 7918
SWIDTH 486 0
DWIDTH 27 0
BBX 27 50 2 -1
BITMAP
03C00000
0FFFC000
0FFFC000
083FC000
00000000
000000E0
000000E0
000000E0
000001E0
000001C0
F8001FC0
F8001F00
F8001E00
F8001E00
F8001E00
F8001E00
F8001E00
F8001E00
F8001E00
F8001E00
F8001E00
F8001E00
F8001E00
F8001E00
F8001E00
F8001E00
F8001E00
F8001E00
F8001E00
F8001E00
F8001E00
F8001E00
F8001E00
F8001E00
F8001E00
F8001E00
F8001E00
F8001E00
F8001E00
78001E00
78001E00
78003E00
7C003C00
3C007C00
3E00F800
1F83F800
0FFFF000
07FFE000
03FF8000
007E0000
ENDCHAR
STARTCHAR 1EEF
ENCODING 7919
SWIDTH 486 0
DWIDTH 27 0
BBX 27 50 2 -1
BITMAP
03C00000
0FFFC000
0FFFC000
083FC000
00000000
000000E0
000000E0
000000E0
000001E0
000001C0
F8001FC0
F8001F00
F8001E00
F8001E00
F8001E00
F8001E00
F8001E00
F8001E00
F8001E00
F8001E00
F8001E00
F8001E00
F8001E00
F8001E00
F8001E00
F8001E00
F8001E00
F8001E00
F8001E00
F8001E00
F8001E00
F8001E00
F8001E00
F8001E00
F8001E00
F8001E00
F8001E00
F8001E00
F8001E00
78001E00
78001E00
78003E00
7C003C00
3C007C00
3E00F800
1F83F800
0FFFF000
07FFE000
03FF8000
007E0000
ENDCHAR
STARTCHAR 1EF0
ENCODING 7920
SWIDTH 486 0
DWIDTH 27 0
BBX 27 59 2 -15
BITMAP
000000E0
000000E0
000000E0
000001E0
000001C0
F8001FC0
F8001F00
F8001E00
F8001E00
F8001E00
F8001E00
F8001E00
F8001E00
F8001E00
F8001E00
F8001E00
F8001E00
F8001E00
F8001E00
F8001E00
F8001E00
F8001E00
F8001E00
F8001E00
F8001E00
F8001E00
F8001E00
F8001E00
F8001E00
F8001E00
F8001E00
F8001E00
F8001E00
F8001E00
78001E00
78001E00
78003E00
7C003C00
3C007C00
3E00F800
1F83F800
0FFFF000
07FFE000
03FF8000
007E0000
00000000
00000000
00000000
00000000
00000000
00000000
00380000
007E0000
00FE0000
00FF0000
00FF0000
00FE0000
007E0000
00380000
ENDCHAR
STARTCHAR 1EF1
ENCODING 7921
SWIDTH 486 0
DWIDTH 27 0
BBX 27 59 2 -15
BITMAP
000000E0
000000E0
000000E0
000001E0
000001C0
F8001FC0
F8001F00
F8001E00
F8001E00
F8001E00
F8001E00
F8001E00
F8001E00
F8001E00
F8001E00
F8001E00
F8001E00
F8001E00
F8001E00
F8001E00
F8001E00
F8001E00
F8001E00
F8001E00
F8001E00
F8001E00
F8001E00
F8001E00
F8001E00
F8001E00
F8001E00
F8001E00
F8001E00
F8001E00
78001E00
78001E00
78003E00
7C003C00
3C007C00
3E00F800
1F83F800
0FFFF000
07FFE000
03FF8000
007E0000
00000000
00000000
00000000
00000000
00000000
00000000
00380000
007E0000
00FE0000
00FF0000
00FF0000
00FE0000
007E0000
00380000
ENDCHAR
STARTCHAR 1EF2
ENCODING 7922
SWIDTH 486 0
DWIDTH 27 0
BBX 23 49 2 0
BITMAP
03C000
01E000
00E000
007000
007800
003800
001C00
000000
000000
000000
F0001E
F0001E
F0001E
F0001E
F0001E
F0001E
F0001E
F0001E
F0001E
F0001E
F0001E
F0001E
F0001E
F0001E
F0001E
F0001E
F0001E
F0001E
F0001E
F0001E
F8003E
78003C
7C003C
7C007C
3E00F8
1F83F0
0FFFF0
07FFC0
03FF80
007C00
007C00
007C00
007C00
007C00
007C00
007C00
007C00
007C00
007C00
ENDCHAR
STARTCHAR 1EF3
ENCODING 7923
SWIDTH 486 0
DWIDTH 27 0
BBX 23 49 2 0
BITMAP
03C000
01E000
00E000
007000
007800
003800
001C00
000000
000000
000000
F0001E
F0001E
F0001E
F0001E
F0001E
F0001E
F0001E
F0001E
F0001E
F0001E
F0001E
F0001E
F0001E
F0001E
F0001E
F0001E
F0001E
F0001E
F0001E
F0001E
F8003E
78003C
7C003C
7C007C
3E00F8
1F83F0
0FFFF0
07FFC0
03FF80
007C00
007C00
007C00
007C00
007C00
007C00
007C00
007C00
007C00
007C00
ENDCHAR
STARTCHAR 1EF4
ENCODING 7924
SWIDTH 486 0
DWIDTH 27 0
BBX 23 54 2 -15
BITMAP
F0001E
F0001E
F0001E
F0001E
F0001E
F0001E
F0001E
F0001E
F0001E
F0001E
F0001E
F0001E
F0001E
F0001E
F0001E
F0001E
F0001E
F0001E
F0001E
F0001E
F8003E
78003C
7C003C
7C007C
3E00F8
1F83F0
0FFFF0
07FFC0
03FF80
007C00
007C00
007C00
007C00
007C00
007C00
007C00
007C00
007C00
007C00
000000
000000
000000
000000
000000
000000
000000
003800
007C00
00FE00
00FE00
00FE00
00FE00
007C00
003800
ENDCHAR
STARTCHAR 1EF5
ENCODING 7925
SWIDTH 486 0
DWIDTH 27 0
BBX 23 54 2 -15
BITMAP
F0001E
F0001E
F0001E
F0001E
F0001E
F0001E
F0001E
F0001E
F0001E
F0001E
F0001E
F0001E
F0001E
F0001E
F0001E
F0001E
F0001E
F0001E
F0001E
F0001E
F8003E
78003C
7C003C
7C007C
3E00F8
1F83F0
0FFFF0
07FFC0
03FF80
007C00
007C00
007C00
007C00
007C00
007C00
007C00
007C00
007C00
007C00
000000
000000
000000
000000
000000
000000
000000
003800
007C00
00FE00
00FE00
00FE00
00FE00
007C00
003800
ENDCHAR
STARTCHAR 1EF6
ENCODING 7926
SWIDTH 486 0
DWIDTH 27 0
BBX 23 53 2 0
BITMAP
003800
003800
001C00
001800
003800
003800
007000
007000
007000
003000
003800
000000
000000
000000
F0001E
F0001E
F0001E
F0001E
F0001E
F0001E
F0001E
F0001E
F0001E
F0001E
F0001E
F0001E
F0001E
F0001E
F0001E
F0001E
F0001E
F0001E
F0001E
F0001E
F8003E
78003C
7C003C
7C007C
3E00F8
1F83F0
0FFFF0
07FFC0
03FF80
007C00
007C00
007C00
007C00
007C00
007C00
007C00
007C00
007C00
007C00
ENDCHAR
STARTCHAR 1EF7
ENCODING 7927
SWIDTH 486 0
DWIDTH 27 0
BBX 23 53 2 0
BITMAP
003800
003800
001C00
001800
003800
003800
007000
007000
007000
003000
003800
000000
000000
000000
F0001E
F0001E
F0001E
F0001E
F0001E
F0001E
F0001E
F0001E
F0001E
F0001E
F0001E
F0001E
F0001E
F0001E
F0001E
F0001E
F0001E
F0001E
F0001E
F0001E
F8003E
78003C
7C003C
7C007C
3E00F8
1F83F0
0FFFF0
07FFC0
03FF80
007C00
007C00
007C00
007C00
007C00
007C00
007C00
007C00
007C00
007C00
ENDCHAR
STARTCHAR 1EF8
ENCODING 7928
SWIDTH 486 0
DWIDTH 27 0
BBX 23 49 2 0
BITMAP
07C000
0FFF80
0FFF80
083F80
000000
000000
000000
000000
000000
000000
F0001E
F0001E
F0001E
F0001E
F0001E
F0001E
F0001E
F0001E
F0001E
F0001E
F0001E
F0001E
F0001E
F0001E
F0001E
F0001E
F0001E
F0001E
F0001E
F0001E
F8003E
78003C
7C003C
7C007C
3E00F8
1F83F0
0FFFF0
07FFC0
03FF80
007C00
007C00
007C00
007C00
007C00
007C00
007C00
007C00
007C00
007C00
ENDCHAR
STARTCHAR 1EF9
ENCODING 7929
SWIDTH 486 0
DWIDTH 27 0
BBX 23 49 2 0
BITMAP
07C000
0FFF80
0FFF80
083F80
000000
000000
000000
000000
000000
000000
F0001E
F0001E
F0001E
F0001E
F0001E
F0001E
F0001E
F0001E
F0001E
F0001E
F0001E
F0001E
F0001E
F0001E
F0001E
F0001E
F0001E
F0001E
F0001E
F0001E
F8003E
78003C
7C003C
7C007C
3E00F8
1F83F0
0FFFF0
07FFC0
03FF80
007C00
007C00
007C00
007C00
007C00
007C00
007C00
007C00
007C00
007C00
ENDCHAR
STARTCHAR 2013
ENCODING 8211
SWIDTH 576 0
DWIDTH 32 0
BBX 26 4 3 13
BITMAP
FFFFFFC0
FFFFFFC0
FFFFFFC0
FFFFFFC0
ENDCHAR
STARTCHAR 2014
ENCODING 8212
SWIDTH 792 0
DWIDTH 44 0
BBX 38 4 3 13
BITMAP
FFFFFFFFFC
FFFFFFFFFC
FFFFFFFFFC
FFFFFFFFFC
ENDCHAR
STARTCHAR 2018
ENCODING 8216
SWIDTH 216 0
DWIDTH 12 0
BBX 6 11 3 28
BITMAP
0C
1C
1C
1C
3C
38
38
78
78
F8
F0
ENDCHAR
STARTCHAR 2019
ENCODING 8217
SWIDTH 216 0
DWIDTH 12 0
BBX 6 11 3 28
BITMAP
3C
3C
3C
78
78
78
70
70
E0
E0
E0
ENDCHAR
STARTCHAR 201A
ENCODING 8218
SWIDTH 216 0
DWIDTH 12 0
BBX 6 11 3 -7
BITMAP
3C
3C
3C
78
78
70
70
70
E0
E0
E0
ENDCHAR
STARTCHAR 201C
ENCODING 8220
SWIDTH 378 0
DWIDTH 21 0
BBX 16 11 3 28
BITMAP
0E07
0E07
1E0E
1C0E
1C1E
3C1E
3C1E
3C3C
783C
783C
F87C
ENDCHAR
STARTCHAR 201D
ENCODING 8221
SWIDTH 378 0
DWIDTH 21 0
BBX 15 11 3 28
BITMAP
3C1E
3C1E
3C3E
783C
783C
7838
7038
7078
E070
E070
E070
ENDCHAR
STARTCHAR 201E
ENCODING 8222
SWIDTH 396 0
DWIDTH 22 0
BBX 16 11 3 -7
BITMAP
3C0F
3C0F
3C1E
781E
781E
701C
701C
703C
E038
E038
E038
ENDCHAR
STARTCHAR 2020
ENCODING 8224
SWIDTH 396 0
DWIDTH 22 0
BBX 17 26 3 14
BITMAP
01C000
01C000
01C000
01C000
01C000
01C000
FFFF80
FFFF80
FFFF80
01C000
01C000
01C000
01C000
01C000
01C000
01C000
01C000
01C000
01C000
01C000
01C000
01C000
01C000
01C000
01C000
01C000
ENDCHAR
STARTCHAR 2021
ENCODING 8225
SWIDTH 396 0
DWIDTH 22 0
BBX 17 26 3 14
BITMAP
01C000
01C000
01C000
01C000
01C000
01C000
FFFF80
FFFF80
FFFF80
01C000
01C000
01C000
01C000
01C000
01C000
01C000
01C000
FFFF80
FFFF80
FFFF80
01C000
01C000
01C000
01C000
01C000
01C000
ENDCHAR
STARTCHAR 2022
ENCODING 8226
SWIDTH 306 0
DWIDTH 17 0
BBX 11 11 3 10
BITMAP
0F00
3F80
7FC0
FFE0
FFE0
FFE0
FFE0
FFE0
7FE0
7FC0
3F80
ENDCHAR
STARTCHAR 2026
ENCODING 8230
SWIDTH 630 0
DWIDTH 35 0
BBX 30 8 3 -1
BITMAP
3C0780F0
7E0FC1F8
FE1FE3FC
FF1FE3FC
FF1FE3FC
FE1FC1FC
7C0FC1F8
10020060
ENDCHAR
STARTCHAR 2030
ENCODING 8240
SWIDTH 1242 0
DWIDTH 69 0
BBX 63 40 3 0
BITMAP
07FC0000F0000000
1FFE0001E0000000
3FFF0001C0000000
3E0F8003C0000000
7807C00780000000
F003C00F00000000
F001C00F00000000
F001E01E00000000
F001E03C00000000
F001E03800000000
F001E07800000000
F003C0F000000000
7803C0E000000000
7C0781E000000000
3F1F83C000000000
1FFF078000000000
0FFE078000000000
03F80F0000000000
00001E0000000000
00001C0000000000
00003C0000000000
0000780FE0001F80
0000703FF8007FE0
0000F07FFC01FFF0
0001E0FC7E03F0F8
0003C0F01F03C07C
0003C1E00F07803E
000781E00787801E
000F03C00787001E
000E03C00787000E
001E03C0078F000E
003C03C00787000E
003801C00787801E
007801E00787801E
00F001F00F07C03C
01E000F81F03E07C
01E0007FFE01FFF8
03C0003FFC00FFF0
0780001FF0007FC0
0000000100000600
ENDCHAR
STARTCHAR 2039
ENCODING 8249
SWIDTH 342 0
DWIDTH 19 0
BBX 13 24 3 5
BITMAP
0078
00F0
01E0
03E0
03C0
0780
0F00
1E00
1E00
3C00
7800
F000
F800
7800
3C00
1E00
1F00
0F00
0780
03C0
03E0
01E0
00F0
0078
ENDCHAR
STARTCHAR 203A
ENCODING 8250
SWIDTH 342 0
DWIDTH 19 0
BBX 13 24 3 5
BITMAP
F800
7800
3C00
1E00
1F00
0F00
0780
03C0
03E0
01E0
00F0
0078
0078
00F0
01E0
01E0
03C0
0780
0F00
1F00
1E00
3C00
7800
F800
ENDCHAR
STARTCHAR 2044
ENCODING 8260
SWIDTH 648 0
DWIDTH 36 0
BBX 31 39 3 0
BITMAP
0000001E
0000003C
00000078
00000070
000000F0
000001E0
000001C0
000003C0
00000780
00000F00
00000F00
00001E00
00003C00
00003800
00007800
0000F000
0000E000
0001E000
0003C000
00078000
00078000
000F0000
001E0000
001C0000
003C0000
00780000
00700000
00F00000
01E00000
03C00000
03C00000
07800000
0F000000
0E000000
1E000000
3C000000
38000000
78000000
F0000000
ENDCHAR
STARTCHAR 20AC
ENCODING 8364
SWIDTH 648 0
DWIDTH 36 0
BBX 30 40 3 -1
BITMAP
00001FFC
0000FFFC
0003FFFC
0007FFFC
001FE000
003F8000
007E0000
007C0000
00F80000
01F00000
01F00000
03E00000
03C00000
03C00000
FFFFFF80
FFFFFF80
FFFFFF80
FFFFFF80
07800000
07800000
07800000
FFFFFF80
FFFFFF80
FFFFFF80
FFFFFF80
03C00000
03C00000
03E00000
01E00000
01F00000
00F80000
007C0000
007E0000
003F8000
001FE000
0007FFFC
0003FFFC
0000FFFC
00003FFC
000000C0
ENDCHAR
STARTCHAR 2122
ENCODING 8482
SWIDTH 774 0
DWIDTH 43 0
BBX 37 22 3 18
BITMAP
FFFC008000
FFFE00E038
FFFF80F038
FFFFC0FC38
0703F0FE38
0701F8FFB8
0701FEF7F8
0701DFF3F8
0701CFF0F8
0701C3F078
0701C1F038
0701C0F038
0701C0F038
0701C0F038
0701C0F038
0701C0F038
0701C0F038
0701C0F038
0701C0F038
0701C0F038
0701C0F038
0701C0F038
ENDCHAR
STARTCHAR 2190
ENCODING 8592
SWIDTH 810 0
DWIDTH 45 0
BBX 40 26 3 7
BITMAP
0008000000
001C000000
003E000000
007C000000
00F8000000
01F0000000
03E0000000
07C0000000
0F80000000
1F00000000
3E00000000
7FFFFFFFFF
FFFFFFFFFF
FFFFFFFFFF
7FFFFFFFFF
3E00000000
1F00000000
0F80000000
07C0000000
03E0000000
01F0000000
00F8000000
007C000000
003E000000
001C000000
0008000000
ENDCHAR
STARTCHAR 2191
ENCODING 8593
SWIDTH 558 0
DWIDTH 31 0
BBX 25 40 3 0
BITMAP
00080000
001C0000
003E0000
007F0000
00FF8000
01FFC000
03FFE000
07DDF000
0F9CF800
1F1C7C00
3E1C3E00
7C1C1F00
F81C0F80
701C0780
201C0300
001C0000
001E0000
001E0000
001E0000
001E0000
001E0000
001E0000
001E0000
001E0000
001E0000
001E0000
001E0000
001E0000
001E0000
001E0000
001E0000
001E0000
001E0000
001E0000
001E0000
001E0000
001E0000
001E0000
001E0000
001E0000
ENDCHAR
STARTCHAR 2192
ENCODING 8594
SWIDTH 810 0
DWIDTH 45 0
BBX 39 24 3 8
BITMAP
0000003000
0000007800
0000003C00
0000001E00
0000000F00
0000000780
00000003C0
00000001E0
00000000F0
0000000078
FFFFFFFFFC
FFFFFFFFFE
FFFFFFFFFE
FFFFFFFFFC
0000000078
00000000F0
00000001E0
00000003C0
0000000780
0000000F00
0000001E00
0000003C00
0000007800
0000003000
ENDCHAR
STARTCHAR 2193
ENCODING 8595
SWIDTH 558 0
DWIDTH 31 0
BBX 25 40 3 -1
BITMAP
001E0000
001E0000
001E0000
001E0000
001E0000
001E0000
001E0000
001E0000
001E0000
001E0000
001E0000
001E0000
001E0000
001E0000
001E0000
001E0000
001E0000
001E0000
001E0000
001C0000
001C0000
001C0000
001C0000
001C0000
001C0000
201C0300
701C0780
F81C0F80
7C1C1F00
3E1C1E00
1F1C7C00
0F9C7800
07DCF000
03FDE000
01FFC000
00FF8000
007F0000
003E0000
001C0000
00080000
ENDCHAR
STARTCHAR 2194
ENCODING 8596
SWIDTH 864 0
DWIDTH 48 0
BBX 42 26 3 7
BITMAP
000800000000
001C00060000
003E000F0000
007C00078000
00F80003C000
01F00001E000
03E00000F000
07C000007800
0F8000003C00
1F0000001E00
3E0000000F00
7FFFFFFFFF80
FFFFFFFFFFC0
FFFFFFFFFFC0
7FFFFFFFFF80
3E0000000F00
1F0000001E00
0F8000003C00
07C000007800
03E00000F000
01F00001E000
00F80003C000
007C00078000
003E000F0000
001C00060000
000800000000
ENDCHAR
STARTCHAR 2195
ENCODING 8597
SWIDTH 594 0
DWIDTH 33 0
BBX 27 41 3 -1
BITMAP
00040000
000E0000
001F0000
003FC000
00FFE000
01FFF000
03EEF800
07CE7C00
0F8E3E00
1F0E1F80
7C0E07C0
F80E03E0
F00E01E0
600E00C0
000E0000
000E0000
000E0000
000E0000
000E0000
000E0000
000E0000
000E0000
000E0000
000E0000
000E0000
000E0000
000E0000
600E00C0
700E01E0
F80E03E0
7C0E07C0
3F0E0F80
0F8E3F00
07CE7C00
03EEF800
01FFF000
00FFE000
007FC000
001F8000
000E0000
00040000
ENDCHAR
STARTCHAR 2196
ENCODING 8598
SWIDTH 630 0
DWIDTH 35 0
BBX 29 29 3 5
BITMAP
FFFFC000
FFFFC000
FFFFC000
FC000000
FE000000
FF000000
EF800000
E7C00000
E3E00000
E1F00000
E0F80000
E07C0000
E03E0000
E01F0000
E00F8000
E007C000
E003E000
E001F000
0000F800
00007C00
00003E00
00001F00
00000F80
000007C0
000003E0
000001F0
000000F8
00000078
00000030
ENDCHAR
STARTCHAR 2197
ENCODING 8599
SWIDTH 630 0
DWIDTH 35 0
BBX 30 29 3 5
BITMAP
001FFFFC
001FFFFC
001FFFFC
000001FC
000003FC
000007FC
00000FBC
00001F3C
00003E3C
00007C3C
0000F83C
0001F03C
0003E03C
0007C03C
000F803C
001F003C
003E003C
007C003C
00F80000
01F00000
03E00000
07C00000
0F800000
1F800000
3F000000
7E000000
FC000000
78000000
30000000
ENDCHAR
STARTCHAR 2198
ENCODING 8600
SWIDTH 630 0
DWIDTH 35 0
BBX 30 29 3 5
BITMAP
20000000
70000000
F8000000
7C000000
3E000000
1F000000
0F800000
07C00000
03E00000
01F00000
00F80000
007C003C
003E003C
001F003C
000F803C
0007C03C
0003E03C
0001F03C
0000F83C
00007C3C
00003E3C
00001F3C
00000FBC
000007FC
000003FC
000001FC
001FFFFC
001FFFFC
001FFFFC
ENDCHAR
STARTCHAR 2199
ENCODING 8601
SWIDTH 630 0
DWIDTH 35 0
BBX 30 29 3 5
BITMAP
00000030
00000078
000000FC
000001F8
000003F0
000007E0
00000FC0
00001F80
00003F00
00007E00
0000FC00
E001F800
E003F000
E007E000
E00FC000
E01F8000
E03F0000
E07C0000
E0F80000
E1F00000
E3E00000
E7C00000
EF800000
FF000000
FE000000
FC000000
FFFFC000
FFFFC000
FFFFC000
ENDCHAR
STARTCHAR 2202
ENCODING 8706
SWIDTH 540 0
DWIDTH 30 0
BBX 25 41 3 0
BITMAP
01C00000
03E00000
03F80000
03FC0000
00FF0000
003F8000
001FC000
0007E000
0003F000
0001F800
0000F800
00007C00
00007C00
00003E00
00001E00
00001F00
01FF0F00
07FFCF00
0FFFEF00
1FFFF780
3F807F80
3E003F80
7C001F80
7C000F80
F8000780
F8000780
F0000780
F0000F80
F0000F80
F0000F00
F0000F00
F0001F00
F8001E00
78003E00
7C007C00
3E00F800
3F83F800
1FFFF000
0FFFC000
03FF8000
007C0000
ENDCHAR
STARTCHAR 2205
ENCODING 8709
SWIDTH 702 0
DWIDTH 39 0
BBX 34 34 3 3
BITMAP
0001E00080
001FFE01C0
00FFFF8380
01F807E700
03C000FE00
0780007C00
0E00003C00
1C00007E00
3C0000EF00
380001C700
7000038780
7000070380
60000E0380
E0001C0180
E0003801C0
E0007001C0
E000E001C0
E001C001C0
E0038001C0
E0070001C0
E00E000180
701C000380
7038000380
7070000780
39E0000700
3FC0000F00
1F80001E00
0F00003C00
0F80007800
1FC001F000
39F807E000
F07FFF8000
E01FFE0000
4000C00000
ENDCHAR
STARTCHAR 220F
ENCODING 8719
SWIDTH 576 0
DWIDTH 32 0
BBX 27 46 3 -6
BITMAP
FFFFFFE0
FFFFFFE0
FFFFFFE0
FFFFFFE0
1E000F00
1E000F00
1E000F00
1E000F00
1E000F00
1E000F00
1E000F00
1E000F00
1E000F00
1E000F00
1E000F00
1E000F00
1E000F00
1E000F00
1E000F00
1E000F00
1E000F00
1E000F00
1E000F00
1E000F00
1E000F00
1E000F00
1E000F00
1E000F00
1E000F00
1E000F00
1E000F00
1E000F00
1E000F00
1E000F00
1E000F00
1E000F00
1E000F00
1E000F00
1E000F00
1E000F00
1E000F00
1E000F00
1E000F00
1E000F00
1E000F00
1E000F00
ENDCHAR
STARTCHAR 2211
ENCODING 8721
SWIDTH 468 0
DWIDTH 26 0
BBX 21 46 3 -6
BITMAP
FFFFF8
FFFFF8
FFFFF8
FFFFF8
F80000
780000
3C0000
3C0000
1E0000
1E0000
0F0000
0F8000
078000
07C000
03C000
01E000
01E000
00F000
00F000
007800
007800
003C00
003E00
003C00
003C00
007800
007800
00F000
01F000
01E000
03C000
03C000
078000
078000
0F0000
0F0000
1E0000
3E0000
3C0000
780000
780000
F00000
FFFFF8
FFFFF8
FFFFF8
FFFFF8
ENDCHAR
STARTCHAR 2212
ENCODING 8722
SWIDTH 540 0
DWIDTH 30 0
BBX 25 3 3 17
BITMAP
FFFFFF80
FFFFFF80
FFFFFF80
ENDCHAR
STARTCHAR 221A
ENCODING 8730
SWIDTH 630 0
DWIDTH 35 0
BBX 30 46 3 -6
BITMAP
00000FFC
00001FFC
00001FFC
00001FFC
00003C00
00003C00
00003C00
00003C00
00007800
00007800
00007800
00007000
0000F000
0000F000
0000F000
0001E000
0001E000
0001E000
0001C000
0003C000
0003C000
0003C000
00078000
F0078000
F0078000
78070000
780F0000
780F0000
3C0F0000
3C0E0000
3C1E0000
3C1E0000
1E1E0000
1E3C0000
1E3C0000
0F3C0000
0F380000
0F780000
07780000
07F80000
07F00000
07F00000
03F00000
03E00000
03E00000
01E00000
ENDCHAR
STARTCHAR 221E
ENCODING 8734
SWIDTH 774 0
DWIDTH 43 0
BBX 38 18 3 11
BITMAP
01C0001C00
0FFC00FF80
1FFE01FFE0
3F7F03F7F0
7C0F8780F0
7003CF0078
F001FE0038
E000FC003C
E000F8003C
E00078003C
E000FC003C
F001FE0038
F003DE0078
7807CF8078
7C1F87C1F0
3FFF03FFE0
0FFC00FFC0
03F0003F00
ENDCHAR
STARTCHAR 222B
ENCODING 8747
SWIDTH 468 0
DWIDTH 26 0
BBX 21 46 3 -6
BITMAP
000078
0001F8
0003F8
0007E0
000F80
000F00
000F00
001E00
001E00
001E00
001E00
001C00
003C00
003C00
003C00
003C00
003C00
003800
007800
007800
007800
007800
007000
007000
00F000
00F000
00F000
00F000
00E000
01E000
01E000
01E000
01E000
01C000
03C000
03C000
03C000
03C000
03C000
078000
078000
0F8000
1F0000
FE0000
FC0000
F00000
ENDCHAR
STARTCHAR 2248
ENCODING 8776
SWIDTH 522 0
DWIDTH 29 0
BBX 24 17 3 10
BITMAP
040000
FFE000
FFFFCF
FFFFFF
C0FFFF
0007FE
000000
000000
000000
000000
000000
000000
FFE000
FFFF07
FFFFFF
E1FFFF
000FFE
ENDCHAR
STARTCHAR 2260
ENCODING 8800
SWIDTH 540 0
DWIDTH 30 0
BBX 25 26 3 5
BITMAP
0003C000
0003C000
00038000
00078000
00078000
00070000
FFFFFF80
FFFFFF80
FFFFFF80
001E0000
001C0000
003C0000
003C0000
00380000
00780000
00780000
00F00000
FFFFFF80
FFFFFF80
FFFFFF80
01E00000
01C00000
03C00000
03C00000
03800000
07800000
ENDCHAR
STARTCHAR 2264
ENCODING 8804
SWIDTH 540 0
DWIDTH 30 0
BBX 25 22 3 7
BITMAP
00000780
00007F80
0007FF80
007FFC00
07FF8000
7FF80000
FF800000
F8000000
FF800000
FFF80000
0FFF8000
00FFF800
000FFF80
0000FF80
00000F80
00000080
00000000
00000000
00000000
FFFFFF80
FFFFFF80
FFFFFF80
ENDCHAR
STARTCHAR 2265
ENCODING 8805
SWIDTH 540 0
DWIDTH 30 0
BBX 25 22 3 7
BITMAP
F0000000
FF000000
FFF00000
1FFF0000
01FFF000
001FFF00
0001FF80
00001F80
0000FF80
000FFF80
00FFF800
0FFF8000
FFF80000
FF800000
F8000000
80000000
00000000
00000000
00000000
FFFFFF80
FFFFFF80
FFFFFF80
ENDCHAR
STARTCHAR 25CA
ENCODING 9674
SWIDTH 468 0
DWIDTH 26 0
BBX 20 30 3 5
BITMAP
01F800
01F800
03FC00
03BC00
079E00
071E00
0F0F00
0E0F00
1E0780
1C0780
3C03C0
3C03E0
7801E0
7800F0
F000F0
F000F0
7801E0
7801E0
3C03C0
3C03C0
1E0780
1E0780
0F0F00
0F0F00
079E00
079E00
03FC00
03FC00
01F800
01F800
ENDCHAR
ENDFONT
